<?xml version="1.0" encoding="utf-8"?>
<!-- Generator: Adobe Illustrator 17.1.0, SVG Export Plug-In . SVG Version: 6.00 Build 0)  -->
<!DOCTYPE svg PUBLIC "-//W3C//DTD SVG 1.1//EN" "http://www.w3.org/Graphics/SVG/1.1/DTD/svg11.dtd">
<svg version="1.1" id="Layer_3" xmlns="http://www.w3.org/2000/svg" xmlns:xlink="http://www.w3.org/1999/xlink" x="0px" y="0px"
	 viewBox="0 0 5000 5000" enable-background="new 0 0 5000 5000" xml:space="preserve">
<path fill="#4E5151" d="M3009.1,2377.8v225.3c0,9.1-7.4,16.4-16.4,16.4h-722.9c-9.1,0-16.4-7.4-16.4-16.4v-225.3
	c0-9.1,7.4-16.4,16.4-16.4h722.9C3001.7,2361.4,3009.1,2368.7,3009.1,2377.8z"/>
<path fill="#5B5E5E" d="M2253.4,2603.1l-40-45.1c-3.8-4.2-8.7-7.3-14.1-8.9l-76.3-21.5c-10-2.8-20.4-4.3-30.8-4.3h-32.4
	c-5.2,0-9.4-4.2-9.4-9.4v-57.5c0-3.9,3.2-7,7-7h34.7c8.1,0,16.2-1,24.1-3l84.7-21.4c3.6-0.9,6.8-2.8,9.3-5.6l45.9-50.7v234.4"/>
<g>
	<g>
		<line fill="#4F5151" x1="2256.1" y1="2423.8" x2="2256.1" y2="2411.1"/>
	</g>
</g>
<path fill="#81C6B9" d="M2050.4,2508h-43.2c-3,0-5.8-1.6-7.4-4.2l-19.4-32.4c-1.3-2.2-0.1-5.1,2.4-5.6l20.6-4.5
	c0.8-0.2,1.7-0.3,2.5-0.3h44.5V2508z"/>
<path fill="#92D6C9" d="M2050.4,2505.5h-40.9c-2.9,0-5.5-1.4-7-3.7l-18.4-28.8c-1.3-2-0.1-4.5,2.3-5l19.5-4c0.8-0.2,1.6-0.2,2.4-0.2
	h42.1V2505.5z"/>
<path fill="#92D6C9" d="M3009.1,2603.1h59.6c3.7,0,7-2.3,8.4-5.7l28.3-71.7c0,0,8.2-27,0-62.2l-17.8-70.5
	c-2.1-8.4-9.7-14.4-18.4-14.5l-60.1-0.7V2603.1z"/>
<g>
	<g>
		<line fill="#404242" x1="2253.4" y1="2428.3" x2="2253.4" y2="2395.3"/>
		<line fill="#404242" x1="3009.1" y1="2428.3" x2="3009.1" y2="2579"/>
		<g>
			<path fill="#383838" d="M2253.3,2603.1c0,9.1,7.4,16.4,16.4,16.4h722.9c9.1,0,16.4-7.4,16.4-16.4V2579h-755.8V2603.1z"/>
		</g>
		<g>
			<rect x="2253.4" y="2395.3" fill="#404242" width="755.7" height="32.9"/>
		</g>
	</g>
</g>
<g>
	<path fill="none" d="M3009.1,2378.6h49.9v-9.9h-52.7c1.7,2.6,2.8,5.8,2.8,9.1V2378.6z"/>
	<path fill="#707575" d="M2253.4,2377.8v0.8h755.7v-0.8c0-3.4-1-6.5-2.8-9.1h-750.2C2254.4,2371.3,2253.4,2374.4,2253.4,2377.8z"/>
</g>
<g>
	<path fill="#81CCBE" d="M3099.4,2481.6c2.4,14.4,0.9,29.2-4.3,42.9l-29.8,78.6h3.4c3.7,0,7-2.3,8.4-5.7l28.3-71.7
		c0,0,8.2-27,0-62.2l-17.8-70.5c-0.7-2.9-2.2-5.6-4-7.8L3099.4,2481.6z"/>
</g>
<g>
	<path fill="#74B7AA" d="M3024.8,2378l-15.6-0.2v225.3h59.6c3.7,0,7-2.3,8.4-5.7l3.8-9.5h-56.1V2378z"/>
</g>
<g>
	<path fill="#3D3F3F" d="M2245.6,2565.9c0,1.7-2.1,2.5-3.3,1.3l-14-14.6c-11.2-11.7-25.6-19.8-41.4-23.3l-89.3-19.7
		c-4.6-1-9.4-1.5-14.1-1.5h-33.2v5.9c0,5.2,4.2,9.4,9.4,9.4h32.4c10.4,0,20.8,1.4,30.8,4.3l76.3,21.5c5.5,1.5,10.4,4.6,14.1,8.9
		l40,45.1h2.8v-234.4l-10.6,11.7V2565.9z"/>
</g>
<path fill="#707575" d="M2256.1,2368.7v243.6l-0.5-0.7c-1.5-2-2.2-4.5-2.2-7v-1.4l-0.1-231.3L2256.1,2368.7z"/>
<g>
	<g>
		<g>
			<path fill="#4F5151" d="M2098.6,2466.6l54.7-12.4l52.4-11.9v-9.4l-108.4,23.8c-1.3,0.3-2.6,0.4-3.9,0.4l-43-0.6v10.8h41.7
				C2094.2,2467.4,2096.4,2467.1,2098.6,2466.6z"/>
		</g>
	</g>
</g>
<g>
	<g>
		<g>
			<path fill="#4F5151" d="M2098.6,2481.9l54.7-12.4l65.3-15.9l27-9.8v-10.9L2218,2444l-120.7,28c-1.3,0.3-2.6,0.4-3.9,0.4l-43-0.6
				v10.8h41.7C2094.2,2482.6,2096.4,2482.4,2098.6,2481.9z"/>
		</g>
	</g>
</g>
<g>
	<g>
		<g>
			<polygon fill="#707575" points="2153.3,2459.2 2212.3,2445.4 2212.3,2440.6 2212.3,2430.9 2205.7,2432.9 2205.7,2442.3 
				2095.2,2467.8 2050.4,2467.4 2050.4,2472.3 2095.3,2472.3 			"/>
		</g>
	</g>
</g>
<path fill="#92D6C9" d="M2259.5,2589v29.3l-308.3-5.8c-3.1-0.1-6.1-1.6-7.9-4.2l-6.8-9.7c-4-5.6-6.1-12.3-6.4-19.2
	c-0.3-7.4-1.9-18.9-7.3-33.6c-1.7-4.5-2.9-9.1-3.4-13.9c-2.6-22.5-8.6-88,6.8-113.1l3.8-29.5c0.5-4,3.9-6.9,7.9-6.9h0.1l4-11.3
	c1.8-5.2,6.8-8.7,12.3-8.7h305.3v76.3l107.7,1.1c2.4,0,4.6,1.4,5.8,3.5c2,3.7,5.3,10.3,8.6,18.9c10.4,26.9,12.2,56.4,6,84.6
	c-3.1,13.8-7.5,29.9-13.1,38.2c-1.7,2.5-4.5,3.9-7.5,3.9H2259.5z"/>
<g>
	<line fill="none" x1="2259.5" y1="2422.4" x2="2259.5" y2="2438.8"/>
	<path fill="none" d="M1922.8,2545.9c-1.7-4.5-2.9-9.1-3.4-13.9c-2-17.5-6.1-60.8-0.6-91.1l13,148.1c-1-3.1-1.5-6.3-1.7-9.5
		C1929.8,2572.1,1928.2,2560.6,1922.8,2545.9z"/>
	<path fill="#72B7AA" d="M1936.5,2598.7l6.8,9.7c1.8,2.6,9.9,9.9,13,10h303.2V2589h-327.7
		C1932.8,2592.5,1934.4,2595.7,1936.5,2598.7z"/>
	<path fill="#7EC4B7" d="M1918.8,2440.9l340.7-2.1v-16.4h-335.2C1921.9,2427.5,1920.1,2433.9,1918.8,2440.9z"/>
	<g>
		<path fill="#65AA9D" d="M1918.8,2440.9l340.7-2.1h-340.3C1919.1,2439.5,1918.9,2440.2,1918.8,2440.9z"/>
	</g>
</g>
<polygon fill="#61A396" points="2263.2,2592 2263.2,2586.1 1935.5,2586.1 1937.9,2592 "/>
<g>
	<path fill="none" d="M2382.9,2466.2l-5.7-14.1c1.4,3,2.8,6.4,4.3,10.2C2382,2463.6,2382.4,2464.9,2382.9,2466.2z"/>
	<line fill="none" x1="2259.5" y1="2375.4" x2="2259.5" y2="2389.5"/>
	<path fill="none" d="M1930,2389.5l-12.8,62.6c1.4-13.4,4.1-25.3,9-33.2L1930,2389.5z"/>
	<path fill="none" d="M1916,2474.2c0-2.7,0.1-5.3,0.2-8C1916.2,2466.2,1914.7,2473.2,1916,2474.2z"/>
	<path fill="#BCEDE4" d="M1932.6,2557.1c-0.6-1.4-1.2-2.9-1.7-4.3c-7.7-25.2-8.4-50.3-7.9-64.8c0.2-5.6-2.6-10.8-7-13.8
		c-0.3,23.1,2,46.2,3.3,57.8c0.6,4.8,1.7,9.4,3.4,13.9c5.5,14.7,7,26.2,7.3,33.6c0.1,1.6,0.2,3.1,0.5,4.7
		C1938.9,2574.5,1934.6,2561.8,1932.6,2557.1z"/>
	<path fill="#BCEDE4" d="M1916.2,2466.2h466.6c-0.5-1.3-0.9-2.6-1.4-3.9c-1.5-3.8-2.9-7.2-4.3-10.2h-460
		C1916.7,2456.7,1916.4,2461.4,1916.2,2466.2z"/>
	<path fill="#BCEDE4" d="M1937.9,2382.5L1937.9,2382.5c-4.1,0-7.4,3-7.9,6.9l0,0.1h329.5v-14.1h-319.1L1937.9,2382.5z"/>
</g>
</svg>
