<?xml version="1.0" encoding="utf-8"?>
<!-- Generator: Adobe Illustrator 17.1.0, SVG Export Plug-In . SVG Version: 6.00 Build 0)  -->
<!DOCTYPE svg PUBLIC "-//W3C//DTD SVG 1.1//EN" "http://www.w3.org/Graphics/SVG/1.1/DTD/svg11.dtd">
<svg version="1.1" id="Layer_3" xmlns="http://www.w3.org/2000/svg" xmlns:xlink="http://www.w3.org/1999/xlink" x="0px" y="0px"
	 viewBox="0 0 5000 5000" enable-background="new 0 0 5000 5000" xml:space="preserve">
<path fill="#ED8D24" d="M2960.7,3243.5l-944.2,0.6c-22.3,0-40.3-19.3-40.4-43.2l-0.8-1418.8c0-17.4,13.1-31.4,29.3-31.4l960.7-0.6
	c54.7,0,99.1,47.5,99.1,106.1l0.8,1275.3C3065.1,3193.3,3018.4,3243.5,2960.7,3243.5z"/>
<rect x="2783.7" y="1750.1" fill="#D87819" width="75" height="1493.5"/>
<path fill="#FFB533" d="M2873.4,3264.1l-58.5,0c-5,0-9.1-4.1-9.1-9.1l-0.9-1510.6c0-4.6,3.7-8.3,8.3-8.3l54.1,0
	c6.9,0,12.6,5.6,12.6,12.6l0.9,1508C2880.8,3260.8,2877.5,3264.1,2873.4,3264.1z"/>
<rect x="2047" y="1750.5" fill="#CC7323" width="45" height="1493.5"/>
<line opacity="0.39" fill="none" stroke="#CC7323" stroke-miterlimit="10" x1="2836.6" y1="1736.2" x2="2841.4" y2="3264.2"/>
<line opacity="0.39" fill="none" stroke="#CC7323" stroke-miterlimit="10" x1="2850" y1="1736.2" x2="2857.7" y2="3264.1"/>
<line opacity="0.39" fill="none" stroke="#CC7323" stroke-miterlimit="10" x1="2818.9" y1="1735.8" x2="2825.1" y2="3264.2"/>
<line opacity="0.39" fill="none" stroke="#CC7323" stroke-miterlimit="10" x1="2867.7" y1="1738.4" x2="2873.4" y2="3264.1"/>
</svg>
