<?xml version="1.0" encoding="utf-8"?>
<!-- Generator: Adobe Illustrator 17.1.0, SVG Export Plug-In . SVG Version: 6.00 Build 0)  -->
<!DOCTYPE svg PUBLIC "-//W3C//DTD SVG 1.1//EN" "http://www.w3.org/Graphics/SVG/1.1/DTD/svg11.dtd">
<svg version="1.1" id="Layer_3" xmlns="http://www.w3.org/2000/svg" xmlns:xlink="http://www.w3.org/1999/xlink" x="0px" y="0px"
	 viewBox="0 0 5000 5000" enable-background="new 0 0 5000 5000" xml:space="preserve">
<g>
	<g opacity="0.4">
		<path d="M2405.1,2849.7h144.8c81,0,146.6-62.9,146.6-140.6v-403.6c0-77.6-65.6-140.6-146.6-140.6h-144.8
			c-81,0-146.6,62.9-146.6,140.6v403.6C2258.5,2786.8,2324.1,2849.7,2405.1,2849.7z"/>
	</g>
	<g>
		<path d="M2436.1,2839.7h144.8c81,0,146.6-62.9,146.6-140.6v-403.6c0-77.6-65.6-140.6-146.6-140.6h-144.8
			c-81,0-146.6,62.9-146.6,140.6v403.6C2289.5,2776.8,2355.1,2839.7,2436.1,2839.7z"/>
	</g>
</g>
<path fill="#343435" d="M2436.1,2839.7h144.8c81,0,146.6-62.9,146.6-140.6v-403.6c0-77.6-65.6-140.6-146.6-140.6h-144.8
	c-81,0-146.6,62.9-146.6,140.6v403.6C2289.5,2776.8,2355.1,2839.7,2436.1,2839.7z"/>
<path fill="#454446" d="M2441.7,2832.7h133.6c74.7,0,135.2-53.2,135.2-139.1v-399.5c0-76.8-60.5-139.1-135.2-139.1h-133.6
	c-74.7,0-135.2,62.3-135.2,139.1v399.5C2306.5,2770.4,2345,2826.5,2441.7,2832.7z"/>
<path fill="#5C5C5F" d="M2441.7,2826.5h133.6c74.7,0,135.2-51.2,135.2-133.8v-384.3c0-73.9-60.5-133.8-135.2-133.8h-133.6
	c-74.7,0-135.2,59.9-135.2,133.8v384.3C2306.5,2766.6,2345,2820.5,2441.7,2826.5z"/>
<path fill="#454446" d="M2445.3,2827.8h129c72.1,0,130.6-50.6,130.6-132.3v-379.9c0-73.1-58.5-132.3-130.6-132.3h-129
	c-72.1,0-130.6,59.2-130.6,132.3v379.9C2314.7,2768.5,2352,2821.8,2445.3,2827.8z"/>
<g>
	<g>
		<g>
			<path fill="#3F3F42" d="M2523,2210.3c-9.1,0.5-18.2,0.5-27.3,0c-32.5-2-119.7-0.4-178,67.5c15.6-55.3,65.9-95.8,125.5-95.8h129
				c67.1,0,122.4,51.3,129.7,117.4C2668.8,2254.7,2611.9,2205.7,2523,2210.3z"/>
		</g>
	</g>
</g>
<path fill="#3D3D3F" d="M2453.1,2791.3h109.2c89.7,0,110.5-44.4,110.5-116v-333c0-64.1-8.5-121.7-110.5-116h-109.2
	c-110.5-7.2-110.5,51.9-110.5,116v333C2342.6,2739.4,2342.6,2791.3,2453.1,2791.3z"/>
<path fill="#0C0D0D" d="M2658.1,2445.8h-301.8c-3,0-5.4-2.3-5.4-5.2v-138.4c0-19.8,8-39.1,23-52.5c11.2-10,27.6-18.6,51.5-20.8
	c2.4-0.2,4.8-0.3,7.1-0.3H2583c0,0,79.2,1.1,81.5,67v144.1C2664.5,2443,2661.6,2445.8,2658.1,2445.8z"/>
<path fill="#868686" d="M2655.2,2442.5h-295.8c-2.9,0-5.3-2.3-5.3-5v-134.4c0-19.2,7.8-37.9,22.5-51c10.9-9.7,27-18,50.5-20.2
	c2.3-0.2,4.7-0.3,7-0.3h147.4c0,0,77.7,1,79.8,65v139.8C2661.4,2439.8,2658.6,2442.5,2655.2,2442.5z"/>
<path fill="#1E1C1F" d="M2654.4,2443.1h-294.3c-2.9,0-5.2-2.2-5.2-5v-133.7c0-19.1,7.8-37.7,22.4-50.7c10.9-9.7,26.9-18,50.3-20.1
	c2.3-0.2,4.6-0.3,7-0.3h146.7c0,0,77.2,1,79.4,64.7v139.1C2660.6,2440.4,2657.8,2443.1,2654.4,2443.1z"/>
<g>
	<g>
		<g>
			<path fill="#322F34" d="M2427.5,2233.6c2.3-0.2,4.6-0.3,7-0.3h146.7c0,0,77.2,1,79.4,64.7v139.1c0,1.4-0.5,2.7-1.4,3.7
				L2387,2246.4C2397.1,2240,2410.3,2235.2,2427.5,2233.6z"/>
		</g>
	</g>
</g>
<path fill="#61796E" d="M2446.3,2423.7h127.1c7.4,0,13.4-5.7,13.4-12.8v-147.5c0-7.1-6-12.8-13.4-12.8h-127.1
	c-7.4,0-13.4,5.7-13.4,12.8v147.5C2432.9,2417.9,2438.9,2423.7,2446.3,2423.7z"/>
<path fill="#ED2131" d="M2621.4,2329.5h0.1c3.5,0,6.3-2.7,6.3-6v-27.9c0-3.3-2.8-6-6.3-6h-0.1c-3.5,0-6.3,2.7-6.3,6v27.9
	C2615.1,2326.8,2617.9,2329.5,2621.4,2329.5z"/>
<path fill="#E54459" d="M2621.4,2326.5L2621.4,2326.5c2.4,0,4.2-2.3,4.2-5.1v-23.6c0-2.8-1.9-5.1-4.1-5.1h-0.1
	c-2.3,0-4.1,2.3-4.1,5.1v23.6C2617.3,2324.2,2619.1,2326.5,2621.4,2326.5z"/>
<path fill="#0C0D0D" d="M2385.5,2612.4h244.5c19.1,0,34.5-15,34.5-33.4v-87.1c0-18.5-15.5-33.4-34.5-33.4h-244.5
	c-19.1,0-34.5,15-34.5,33.4v87.1C2350.9,2597.4,2366.4,2612.4,2385.5,2612.4z"/>
<path fill="#2E2E30" d="M2386.4,2611.4h242.7c18.9,0,34.3-14.8,34.3-33v-85.9c0-18.2-15.4-33-34.3-33h-242.7
	c-18.9,0-34.3,14.8-34.3,33v85.9C2352.1,2596.6,2367.5,2611.4,2386.4,2611.4z"/>
<path fill="none" stroke="#2C2C2D" stroke-miterlimit="10" d="M2391.7,2603.5h232.1c18.1,0,32.8-13.4,32.8-29.9v-77.8
	c0-16.5-14.7-29.9-32.8-29.9h-232.1c-18.1,0-32.8,13.4-32.8,29.9v77.8C2358.9,2590.1,2373.5,2603.5,2391.7,2603.5z"/>
<ellipse fill="#E8233B" cx="2507.7" cy="2534" rx="29.7" ry="28.5"/>
<ellipse fill="#2E2E30" cx="2507.7" cy="2534" rx="22.7" ry="21.8"/>
<path fill="#2A2B2A" d="M2631.2,2623.3h-250.4c0,0-29.3,0.7-29.3,38.3c0,0,0.7,62.3,3.6,68.4c0,0,10,50.6,72.1,52.7h154.1
	c0,0,64.2,4.8,74.2-55.4l0.3-63.6C2655.9,2663.9,2659.6,2626.2,2631.2,2623.3z"/>
<path fill="#4B4B4D" d="M2635.2,2623.9c-2.1-0.5-4.3-0.6-6.5-0.6h-247.9c0,0-29.3,0.7-29.3,37.5c0,0,0.7,61,3.6,67
	c0,0,10,49.6,72.1,51.6h154.1c0,0,51.2,3.7,69.3-37.5c3.4-7.8,4.9-16.2,5-24.6l0.3-54.6C2655.8,2662.8,2659,2629.3,2635.2,2623.9z"
	/>
<path fill="#313133" d="M2628.7,2629.4h-246.2c0,0-28.8,0.6-28.8,35.7c0,0,0.7,58,3.5,63.8c0,0,9.8,47.2,70.8,49.1h151.5
	c0,0,50.3,3.6,68.1-35.6c3.4-7.4,4.8-15.4,4.9-23.5l0.3-51.8C2652.9,2667,2656.6,2632.6,2628.7,2629.4z"/>
<path fill="#282827" d="M2624,2635.6h-235.7c0,0-27.5,0.6-27.5,32.3c0,0,0.7,52.4,3.4,57.6c0,0,9.4,42.6,67.8,44.4H2577
	c0,0,44.1,2.9,62.8-27.8c4.8-7.9,7-17,7.1-26.1l0.3-46.3C2647.1,2669.6,2650.6,2638.6,2624,2635.6z"/>
<path fill="#313133" d="M2622.4,2636.4h-233.1c0,0-27.2,0.6-27.2,31.9c0,0,0.7,51.8,3.3,57c0,0,9.3,42.2,67.1,43.9h143.5
	c0,0,43.6,2.9,62.1-27.5c4.7-7.8,6.9-16.8,7-25.8l0.3-45.8C2645.3,2670,2648.8,2639.3,2622.4,2636.4z"/>
<path fill="#454446" d="M2503.2,2750h0.3c8.8,0,16-6.6,16-14.7v-67.7c0-8.1-7.2-14.7-16-14.7h-0.3c-8.8,0-16,6.6-16,14.7v67.7
	C2487.3,2743.4,2494.4,2750,2503.2,2750z"/>
<path fill="#2A2B2A" d="M2503.3,2746.5h0.2c6.7,0,12.1-6.1,12.1-13.7V2670c0-7.5-5.4-13.7-12.1-13.7h-0.2c-6.7,0-12.1,6.1-12.1,13.7
	v62.9C2491.2,2740.4,2496.6,2746.5,2503.3,2746.5z"/>
<path fill="#3A3A3A" d="M2503.3,2744.6h0.2c5.2,0,9.5-5.8,9.5-13.1v-60.2c0-7.2-4.2-13.1-9.5-13.1h-0.2c-5.2,0-9.5,5.8-9.5,13.1
	v60.2C2493.9,2738.7,2498.1,2744.6,2503.3,2744.6z"/>
<path fill="#2D2D2D" d="M2503.3,2741.6h0.1c3.5,0,6.4-5.4,6.4-12.2v-56.1c0-6.7-2.9-12.2-6.4-12.2h-0.1c-3.5,0-6.4,5.4-6.4,12.2
	v56.1C2496.9,2736.1,2499.8,2741.6,2503.3,2741.6z"/>
<path fill="#4E4D50" d="M2509.4,2658l-3.7,3.9c0,0-3-2.2-5.5,0.7l-4.2-3.7C2496.1,2659,2501.1,2653,2509.4,2658z"/>
<path fill="#AEAEAF" d="M2427.1,2685.2L2427.1,2685.2c-1.8,0-3.1-1.2-3.1-2.6v-20.4c0-1.5,1.4-2.6,3.1-2.6h0.1
	c1.7,0,3.1,1.2,3.1,2.6v20.4C2430.2,2684,2428.8,2685.2,2427.1,2685.2z"/>
<path fill="#AEAEAF" d="M2416.6,2674.9c0,0-13.2,7.8-9.8,22.5c0,0,0.8,7.6,9.3,12.2c6.8,3.6,15.3,3.4,21.8-0.5
	c0.4-0.3,0.9-0.5,1.3-0.8c7.9-5.4,10.2-15.8,6-24.3c-1.7-3.3-3-5.8-7.4-8.3c0-0.1-0.2-0.3-0.5-0.5c-2.2-2.1-0.7-5.7,2.4-5.9
	c1-0.1,2.2,0.2,3.3,1c0,0,9.8,6.2,11.6,18.6c0.8,5.5-0.4,11.2-3.1,16.2c-2.8,5.1-7.9,11-17.1,13.3c-4.7,1.2-9.7,1.1-14.4-0.1
	c-6.2-1.5-14.6-5.4-18.7-15.1c-1.6-3.9-2.2-8.1-1.9-12.2c0.5-5.9,3.1-14.5,12.4-20.4c0,0,2.6-1.6,4.8,0.2
	C2416.6,2670.7,2418.8,2673.2,2416.6,2674.9z"/>
<path fill="#AEAEAF" d="M2400,2731.2c-1.5,0.4-2.6,1.8-2.6,3.3v8h-2.8v-14h2.8v1.7c0,0,1.6-1.7,4.2-1.7c0,0,2,0.2,3.3,1.6
	c0.4,0.4,1,0.4,1.4,0c0.8-0.7,2.1-1.6,4-1.6c0,0,0.1,0,0.4,0c2.4,0,4.7,1.8,4.7,4.1v10h-2.6l-0.1-9.7c-0.1-0.1-0.1-1.7-2.3-1.8
	c0,0-3.1-0.6-3.4,2.1l0,9.4h-2.7l-0.2-9.4c0,0-0.2-2-2.6-2.2C2401.4,2730.9,2400.8,2731,2400,2731.2z"/>
<ellipse fill="#AEAEAF" cx="2424.7" cy="2735.7" rx="6.1" ry="7.3"/>
<ellipse fill="#313133" cx="2424.7" cy="2735.7" rx="3.7" ry="5.2"/>
<ellipse fill="#AEAEAF" cx="2438.7" cy="2735.7" rx="6.1" ry="7.3"/>
<path fill="#313133" d="M2442.2,2735.5c0,2.9-1.6,5.2-3.4,5.2c-1.9,0-3.4-2.3-3.4-5.2c0-2.9,1.5-5.2,3.4-5.2
	C2440.6,2730.3,2442.2,2732.6,2442.2,2735.5z"/>
<path fill="#AEAEAF" d="M2442.6,2729.6v-7.4h2.6v20.4h-2.5c0,0,0-6.1,0-9.1L2442.6,2729.6z"/>
<path fill="#AEAEAF" d="M2450.5,2736.4h9.7c0,0,1.4-5.5-3.3-7.6c-2-0.9-4.3-0.8-6.1,0.4c-1.6,1.1-3.1,3.2-3,7.2c0,0,0.2,6.8,7,6.4
	c0,0,3.5-0.5,4.7-2.1l-1.6-1.6c0,0-2.3,1.4-3.2,1.4C2454.6,2740.6,2450.4,2740.6,2450.5,2736.4z"/>
<path fill="#313133" d="M2450.3,2734.4h8.1c0,0,0-1.1-0.5-2.3c-1.3-3-5.8-3-7.1,0.1C2450.6,2732.8,2450.4,2733.5,2450.3,2734.4z"/>
<path fill="none" stroke="#AEAEAF" stroke-miterlimit="10" d="M2548.3,2676.5l6.2,6.3c0.4,0.4,1,0.6,1.6,0.5l7.8-1.2
	c0.9-0.1,1.7-0.8,1.8-1.7l1.1-6.4c0.1-0.6-0.1-1.3-0.5-1.7l-6.6-7.5c-0.7-0.8-0.1-2,1-2c6.6-0.1,23.3,1.7,20.5,22.6
	c-0.2,1.3,0.2,2.6,1.1,3.6l27.8,30.3c0,0,3.9,4.6-2,9.6c0,0-3.7,4-9.6,0.8c-0.6-0.3-1.2-0.8-1.7-1.3l-28.2-29.2
	c-0.7-0.8-1.8-1.2-2.9-1.2c-5.4,0-22-1.4-20.9-20.1C2544.8,2676,2547.1,2675.2,2548.3,2676.5z"/>
</svg>
