<?xml version="1.0" encoding="utf-8"?>
<!-- Generator: Adobe Illustrator 17.1.0, SVG Export Plug-In . SVG Version: 6.00 Build 0)  -->
<!DOCTYPE svg PUBLIC "-//W3C//DTD SVG 1.1//EN" "http://www.w3.org/Graphics/SVG/1.1/DTD/svg11.dtd">
<svg version="1.1" id="Layer_2" xmlns="http://www.w3.org/2000/svg" xmlns:xlink="http://www.w3.org/1999/xlink" x="0px" y="0px"
	 viewBox="0 0 5000 5000" enable-background="new 0 0 5000 5000" xml:space="preserve">
<g>
	<g opacity="0.3">
		<path fill="none" stroke="#000000" stroke-width="14" stroke-miterlimit="10" d="M2655.5,3153.2c0,0,123.7,396.5-141,561.5
			c-119.3,74.4-269.4,77.2-391.2,7.4c-62.4-35.7-123-92.9-150.4-184.2c-52.6-174.7,63.9-359.3,239.3-373.2c3.5-0.3,7-0.5,10.5-0.6
			c104.4-3.9,193.9,77.2,209.6,184.7c10.5,72.1,35.3,186.9,91.8,275.7c79.2,124.5,266.6,84.1,288.8-63.4c4-26.6,2.4-29.2,2.3-65.3"
			/>
	</g>
	<g>
		<path fill="none" stroke="#020202" stroke-width="14" stroke-miterlimit="10" d="M2664.5,3147.2c0,0,123.7,396.5-141,561.5
			c-119.3,74.4-269.4,77.2-391.2,7.4c-62.4-35.7-123-92.9-150.4-184.2c-52.6-174.7,63.9-359.3,239.3-373.2c3.5-0.3,7-0.5,10.5-0.6
			c104.4-3.9,193.9,77.2,209.6,184.7c10.5,72.1,35.3,186.9,91.8,275.7c79.2,124.5,266.6,84.1,288.8-63.4c4-26.6,2.4-29.2,2.3-65.3"
			/>
	</g>
</g>
<g>
	<g opacity="0.3">
		<path d="M2290.6,2782.1l-20.1,10.4c-3.3,1.7-7.4,0.3-9.1-3.3l-92-193.3c-1.7-3.5-0.3-7.8,3-9.5l20.1-10.4c3.3-1.7,7.4-0.3,9.1,3.3
			l92,193.3C2295.2,2776.2,2293.9,2780.4,2290.6,2782.1z"/>
	</g>
	<g>
		<path fill="#0E0E1C" d="M2299.6,2776.1l-20.1,10.4c-3.3,1.7-7.4,0.3-9.1-3.3l-92-193.3c-1.7-3.5-0.3-7.8,3-9.5l20.1-10.4
			c3.3-1.7,7.4-0.3,9.1,3.3l92,193.3C2304.2,2770.2,2302.9,2774.4,2299.6,2776.1z"/>
	</g>
</g>
<g>
	<g opacity="0.3">
		<polygon points="2670.5,3115.8 2629.9,3126.3 2621.8,3091.8 2662.4,3081.4 		"/>
	</g>
	<g>
		<polygon points="2679.5,3109.8 2638.9,3120.3 2630.8,3085.8 2671.4,3075.4 		"/>
	</g>
</g>
<g>
	<g opacity="0.3">
		<polygon points="2671.4,3134 2633.7,3144 2629.5,3126.5 2667.2,3116.5 		"/>
	</g>
	<g>
		<polygon points="2680.4,3128 2642.7,3138 2638.5,3120.5 2676.2,3110.5 		"/>
	</g>
</g>
<g>
	<g opacity="0.3">
		<polygon points="2667.4,3150 2641.7,3156.9 2638.2,3142.8 2664,3135.9 		"/>
	</g>
	<g>
		<polygon points="2676.4,3144 2650.7,3150.9 2647.2,3136.8 2673,3129.9 		"/>
	</g>
</g>
<g>
	<g opacity="0.3">
		<rect x="2800.8" y="3432.1" width="24.1" height="63.7"/>
	</g>
	<g>
		<rect x="2809.8" y="3426.1" width="24.1" height="63.7"/>
	</g>
</g>
<g>
	<g opacity="0.3">
		<path d="M2814.4,3234.3c3.3,0.1,5.9,2.1,5.8,4.5l1.1,20.7c-4.3-1.2-9.2-4.4-13.6,1.3l0.6-22.3
			C2808.4,3236.1,2811.2,3234.2,2814.4,3234.3L2814.4,3234.3z"/>
	</g>
	<g>
		<path d="M2823.4,3228.3c3.3,0.1,5.9,2.1,5.8,4.5l1.1,20.7c-4.3-1.2-9.2-4.4-13.6,1.3l0.6-22.3
			C2817.4,3230.1,2820.2,3228.2,2823.4,3228.3L2823.4,3228.3z"/>
	</g>
</g>
<g>
	<g opacity="0.3">
		<path d="M2814.8,3257.1c5.3,0,9.7,5.3,9.7,11.9v60.3c0,6.6-4.3,11.9-9.7,11.9l0,0c-5.3,0-9.7-5.3-9.7-11.9V3269
			C2805.1,3262.4,2809.4,3257.1,2814.8,3257.1L2814.8,3257.1z"/>
	</g>
	<g>
		<path d="M2823.8,3251.1c5.3,0,9.7,5.3,9.7,11.9v60.3c0,6.6-4.3,11.9-9.7,11.9l0,0c-5.3,0-9.7-5.3-9.7-11.9V3263
			C2814.1,3256.4,2818.4,3251.1,2823.8,3251.1L2823.8,3251.1z"/>
	</g>
</g>
<g>
	<g opacity="0.3">
		<rect x="2794.2" y="3302.3" width="38.9" height="129.8"/>
	</g>
	<g>
		<rect x="2803.2" y="3296.3" width="38.9" height="129.8"/>
	</g>
</g>
<g>
	<g opacity="0.3">
		<path d="M2812.9,3220c2.2,0,4,1.3,4,2.8v14.3c-1.6-4.1-6.6-2.8-7.9,0v-14.3C2809,3221.2,2810.7,3220,2812.9,3220L2812.9,3220z"/>
	</g>
	<g>
		<path d="M2821.9,3214c2.2,0,4,1.3,4,2.8v14.3c-1.6-4.1-6.6-2.8-7.9,0v-14.3C2818,3215.2,2819.7,3214,2821.9,3214L2821.9,3214z"/>
	</g>
</g>
<g>
	<g opacity="0.3">
		<rect x="2210.4" y="1726.3" width="18.2" height="11.1"/>
	</g>
	<g>
		<rect x="2219.4" y="1720.3" fill="#020202" width="18.2" height="11.1"/>
	</g>
</g>
<g>
	<g opacity="0.3">
		<path d="M2198.3,1726.4h43.5l-1-229.9l-5.2,6c-9.5,11-18.4,14.1-37,19.4l-0.2,0V1726.4z"/>
	</g>
	<g>
		<path fill="#020202" d="M2207.3,1720.4h43.5l-1-229.9l-5.2,6c-9.5,11-18.4,14.1-37,19.4l-0.2,0V1720.4z"/>
	</g>
</g>
<g>
	<g opacity="0.3">
		<path d="M2253.5,1468.8c0,0,13.4-80.4-70.4-81.7c-6.3-0.1-12.6,0.9-18.7,2.4c-21.3,5.1-36.9,11.1-63.9,42.4
			c-6.1,7-3.9,5.3-3.9,8.3c0,13.2-8.2,21.3,1.6,40.3c0,0,1.2,6.3,2.1,7.8c3.7,6.5,28.2,33.5,87.8,33.5
			C2188,1521.9,2243.5,1522.7,2253.5,1468.8z"/>
	</g>
	<g>
		<path fill="#020202" d="M2262.5,1462.8c0,0,13.4-80.4-70.4-81.7c-6.3-0.1-12.6,0.9-18.7,2.4c-21.3,5.1-36.9,11.1-63.9,42.4
			c-6.1,7-3.9,5.3-3.9,8.3c0,13.2-8.2,21.3,1.6,40.3c0,0,1.2,6.3,2.1,7.8c3.7,6.5,28.2,33.5,87.8,33.5
			C2197,1515.9,2252.5,1516.7,2262.5,1462.8z"/>
	</g>
</g>
<g>
	<g opacity="0.3">
		<rect x="2740.7" y="1846.9" width="16.5" height="8.3"/>
	</g>
	<g>
		<rect x="2749.7" y="1840.9" fill="#020202" width="16.5" height="8.3"/>
	</g>
</g>
<g>
	<g opacity="0.3">
		<path d="M2726.8,1847.2h43.6v-224.1l-7.2,6.6c-8.9,8.2-20,13.5-31.8,15.2l-4.6,0.7V1847.2z"/>
	</g>
	<g>
		<path fill="#020202" d="M2735.8,1841.2h43.6v-224.1l-7.2,6.6c-8.9,8.2-20,13.5-31.8,15.2l-4.6,0.7V1841.2z"/>
	</g>
</g>
<g>
	<g opacity="0.3">
		<path d="M2785.9,1590.4c0,0,13.6-83.5-71.4-84.8c-6.4-0.1-12.8,0.9-19,2.5c-21.6,5.3-37.5,11.5-64.8,44.1c-6.1,7.3-4,5.5-4,8.6
			c0,13.7-8.4,22.2,1.6,41.9c0,0,1.2,6.5,2.1,8.2c3.8,6.7,28.6,34.8,89,34.8C2719.4,1645.7,2775.7,1646.5,2785.9,1590.4z"/>
	</g>
	<g>
		<path fill="#020202" d="M2794.9,1584.4c0,0,13.6-83.5-71.4-84.8c-6.4-0.1-12.8,0.9-19,2.5c-21.6,5.3-37.5,11.5-64.8,44.1
			c-6.1,7.3-4,5.5-4,8.6c0,13.7-8.4,22.2,1.6,41.9c0,0,1.2,6.5,2.1,8.2c3.8,6.7,28.6,34.8,89,34.8
			C2728.4,1639.7,2784.7,1640.5,2794.9,1584.4z"/>
	</g>
</g>
<g>
	<g opacity="0.3">
		<path fill="none" stroke="#000000" stroke-width="14" stroke-miterlimit="10" d="M2748.7,1857.5c0,0-17.4,18.7,79.7,63.5
			c117.6,54.4,117.5,236,25.3,327.8c-40.7,40.5-99.9,65.1-185.4,41.4c-42.3-11.7-64.1-61.1-44.6-101.9c0.4-0.8,0.7-1.5,1.1-2.3
			c33.6-67.8,126-71.9,167-8.7c29.7,45.8,51,122.3-23.8,221.8c-6.6,8.7-13.8,17-21.1,25.1c-36.5,40.4-197.5,237-24.8,384.3
			c0,0,60.9,55.3-26.6,193.1c-19.6,30.8-36.7,63.3-50.1,97.6l-0.2,0.6l-0.7-0.6c-26.6-24.4-58.6-41.2-92.9-50.4
			c-194.9-52-252.3-187.7-282.8-282.3c-26.7-82.7-69.6-158.4-126-232.5l-182.3-189.4c-71-73.7,28.8-187.9,105.9-121.1
			c23.2,20.1,42.4,45.3,57.9,70.7c51.6,84.6,25.7,199.1-59.1,246.5c-31.5,17.6-61.8,20.8-89.4,16.1
			c-96.1-16.6-144.9-112.7-111.8-208c25.8-74.1,71.7-126.4,108.1-158.7c24.9-22,54.4-37.2,85.5-47.8
			c202.2-68.9,162.7-407.8,162.7-407.8"/>
	</g>
	<g>
		<path fill="none" stroke="#020202" stroke-width="14" stroke-miterlimit="10" d="M2757.7,1851.5c0,0-17.4,18.7,79.7,63.5
			c117.6,54.4,117.5,236,25.3,327.8c-40.7,40.5-99.9,65.1-185.4,41.4c-42.3-11.7-64.1-61.1-44.6-101.9c0.4-0.8,0.7-1.5,1.1-2.3
			c33.6-67.8,126-71.9,167-8.7c29.7,45.8,51,122.3-23.8,221.8c-6.6,8.7-13.8,17-21.1,25.1c-36.5,40.4-197.5,237-24.8,384.3
			c0,0,60.9,55.3-26.6,193.1c-19.6,30.8-36.7,63.3-50.1,97.6l-0.2,0.6l-0.7-0.6c-26.6-24.4-58.6-41.2-92.9-50.4
			c-194.9-52-252.3-187.7-282.8-282.3c-26.7-82.7-69.6-158.4-126-232.5l-182.3-189.4c-71-73.7,28.8-187.9,105.9-121.1
			c23.2,20.1,42.4,45.3,57.9,70.7c51.6,84.6,25.7,199.1-59.1,246.5c-31.5,17.6-61.8,20.8-89.4,16.1
			c-96.1-16.6-144.9-112.7-111.8-208c25.8-74.1,71.7-126.4,108.1-158.7c24.9-22,54.4-37.2,85.5-47.8
			c202.2-68.9,162.7-407.8,162.7-407.8"/>
	</g>
</g>
<path fill="none" stroke="#EFF0EC" stroke-width="18" stroke-miterlimit="10" d="M2662.8,3148.4c0,0,123.8,395.3-140.3,560.3
	c-119,74.4-268.8,77.2-390.4,7.4c-62.3-35.7-122.7-92.9-150.1-184.2c-52.5-174.7,63.8-359.3,238.8-373.2c3.5-0.3,7-0.5,10.5-0.6
	c104.2-3.9,193.5,77.2,209.2,184.7c10.5,72.1,35.2,186.9,91.6,275.7c79,124.5,266.1,84.1,288.2-63.4c4-26.6,5.2-57,2.6-91.7"/>
<polygon fill="#EFF0EC" points="2198.6,2575.9 2182.4,2588.9 2155.1,2551.9 2171.2,2538.9 "/>
<path fill="#EFF0EC" d="M2298.3,2776.7l-22.9,11.8c-3.8,1.9-8.2,0.7-9.9-2.8l-91.6-193.5c-1.7-3.5,0-8,3.8-9.9l22.9-11.8
	c3.8-1.9,8.2-0.7,9.9,2.8l91.6,193.5C2303.8,2770.3,2302.1,2774.8,2298.3,2776.7z"/>
<polygon fill="#EFF0EC" points="2306.9,2812.3 2287.7,2819.6 2274.7,2782.1 2293.9,2774.9 "/>
<polygon fill="#E9E9E9" points="2680.9,3110.3 2631.8,3123.6 2619.3,3073.4 2668.5,3060.1 "/>
<polygon fill="#E9E9E9" points="2681.5,3129.4 2640.1,3140.6 2631.1,3104.5 2672.6,3093.3 "/>
<polygon fill="#E9E9E9" points="2678.6,3144.2 2649.5,3152 2643,3125.9 2672.2,3118 "/>
<path fill="none" stroke="#E9E9E9" stroke-width="18" stroke-miterlimit="10" d="M2754,1862.4c0,0,18.9,25.8,81.9,52.7
	c117.9,50.3,117.3,236,25.3,327.8c-40.6,40.5-99.7,65.1-185.1,41.4c-42.2-11.7-64-61.1-44.6-101.9c0.4-0.8,0.7-1.5,1.1-2.3
	c33.6-67.8,125.8-71.9,166.7-8.7c29.7,45.8,50.9,122.3-23.8,221.8c-6.6,8.7-13.7,17-21,25.1c-36.4,40.4-197.2,237-24.7,384.3
	c0,0,60.9,55.3-26.6,193.1c-19.6,30.8-36.6,63.3-50,97.6l-0.2,0.6l-0.7-0.6c-26.5-24.4-58.5-41.2-92.8-50.4
	c-194.6-52-251.9-187.7-282.4-282.3c-26.7-82.7-69.5-158.4-125.8-232.5l-182.1-189.4c-70.9-73.7,28.8-187.9,105.8-121.1
	c23.2,20.1,42.3,45.3,57.8,70.7c51.5,84.6,25.6,199.1-59,246.5c-31.4,17.6-61.7,20.8-89.3,16.1c-95.9-16.6-144.7-112.7-111.6-208
	c25.7-74.1,71.6-126.4,107.9-158.7c24.9-22,54.3-37.2,85.3-47.8c201.9-68.9,162.5-405.2,162.5-405.2"/>
<polygon fill="#E9E9E9" points="2675.8,3149.1 2654.3,3154.9 2649.8,3137 2671.3,3131.2 "/>
<rect x="2809.8" y="3426.1" fill="#D9DBDA" width="25.7" height="63.7"/>
<path fill="#B9BBC2" d="M2822.8,3228.3c4.8,0,8.7,4.2,8.7,9.3v42.4c0,5.1-3.9,9.3-8.7,9.3l0,0c-4.8,0-8.7-4.2-8.7-9.3v-42.4
	C2814.1,3232.4,2818,3228.3,2822.8,3228.3L2822.8,3228.3z"/>
<path fill="#B9BBC2" d="M2823,3251.1c6.7,0,12.1,5.3,12.1,11.9v60.3c0,6.6-5.4,11.9-12.1,11.9l0,0c-6.7,0-12.1-5.3-12.1-11.9V3263
	C2810.9,3256.4,2816.3,3251.1,2823,3251.1L2823,3251.1z"/>
<rect x="2801.8" y="3296.3" fill="#E9E9E9" width="40.4" height="129.8"/>
<path fill="#B9BBC2" d="M2823,3212.4c3.2,0,5.8,4,5.8,8.9v40.5c0,4.9-2.6,8.9-5.8,8.9l0,0c-3.2,0-5.8-4-5.8-8.9v-40.5
	C2817.2,3216.3,2819.8,3212.4,2823,3212.4L2823,3212.4z"/>
<g>
	<rect x="2220.2" y="1710" fill="#E9E9E9" width="17.9" height="37.3"/>
	<rect x="2207.3" y="1494.3" fill="#E9E9E9" width="43.8" height="226.1"/>
	
		<line opacity="0.62" fill="none" stroke="#BFBDBD" stroke-width="2" stroke-miterlimit="10" x1="2238.1" y1="1494.3" x2="2238.1" y2="1720.4"/>
	<g>
		<path fill="#EFF0EE" stroke="#E9E9E9" stroke-miterlimit="10" d="M2266.3,1462.2c0,0,13.4-87.8-70.6-89.2
			c-6.3-0.1-12.6,1-18.8,2.6c-21.3,5.5-37,12.1-64.1,46.4c-6.1,7.7-3.9,5.8-3.9,9.1c0,14.4-8.3,23.3,1.6,44c0,0,1.2,6.9,2.1,8.6
			c3.7,7.1,28.2,36.6,88,36.6C2200.6,1520.3,2256.3,1521.2,2266.3,1462.2z"/>
		<path fill="#595959" d="M2225.5,1446.6c0,5.2,4,9.3,9,9.3h19.9c4.9,0,9-4.2,9-9.3l0,0c0-5.2-4-9.3-9-9.3h-19.9
			C2229.5,1437.3,2225.5,1441.5,2225.5,1446.6L2225.5,1446.6z"/>
		<path fill="#595959" d="M2103.1,1456c0,20.6,8.1,34.5,11.1,33.1c4.4-2.2,7.8-14.9,6.8-32.6c-1-17.7-8.2-26.7-11.4-30.4
			C2106.6,1422.4,2103.1,1430.4,2103.1,1456z"/>
		<path fill="#3F3F3F" d="M2112.1,1456c1.2,14.6-0.8,34.1,1.6,34.4c4.6,0.5,8.2-19.9,7.3-35.2c-0.8-14.7-9.5-31.9-13.8-31.4
			C2104.8,1424.2,2111,1441.4,2112.1,1456z"/>
	</g>
</g>
<g>
	<rect x="2748.8" y="1832.9" fill="#E9E9E9" width="17.9" height="37.3"/>
	<rect x="2735.8" y="1617.1" fill="#E9E9E9" width="43.8" height="226.1"/>
	
		<line opacity="0.62" fill="none" stroke="#BFBDBD" stroke-width="2" stroke-miterlimit="10" x1="2766.7" y1="1617.1" x2="2766.7" y2="1843.2"/>
	<g>
		<path fill="#EFF0EE" stroke="#E9E9E9" stroke-miterlimit="10" d="M2794.8,1585.1c0,0,13.4-87.8-70.6-89.2
			c-6.3-0.1-12.6,1-18.8,2.6c-21.3,5.5-37,12.1-64.1,46.4c-6.1,7.7-3.9,5.8-3.9,9.1c0,14.4-8.3,23.3,1.6,44c0,0,1.2,6.9,2.1,8.6
			c3.7,7.1,28.2,36.6,88,36.6C2729.2,1643.1,2784.8,1644,2794.8,1585.1z"/>
		<path fill="#595959" d="M2754,1569.5c0,5.2,4,9.3,9,9.3h19.9c4.9,0,9-4.2,9-9.3l0,0c0-5.2-4-9.3-9-9.3H2763
			C2758,1560.2,2754,1564.3,2754,1569.5L2754,1569.5z"/>
		<path fill="#595959" d="M2631.7,1578.8c0,20.6,8.1,34.5,11.1,33.1c4.4-2.2,7.8-14.9,6.8-32.6s-8.2-26.7-11.4-30.4
			C2635.2,1545.3,2631.7,1553.2,2631.7,1578.8z"/>
		<path fill="#3F3F3F" d="M2640.7,1578.9c1.2,14.6-0.8,34.1,1.6,34.4c4.6,0.5,8.2-19.9,7.3-35.2c-0.8-14.7-9.5-31.9-13.8-31.4
			C2633.4,1547.1,2639.5,1564.3,2640.7,1578.9z"/>
	</g>
</g>
</svg>
