<?xml version="1.0" encoding="utf-8"?>
<!-- Generator: Adobe Illustrator 17.1.0, SVG Export Plug-In . SVG Version: 6.00 Build 0)  -->
<!DOCTYPE svg PUBLIC "-//W3C//DTD SVG 1.1//EN" "http://www.w3.org/Graphics/SVG/1.1/DTD/svg11.dtd">
<svg version="1.1" id="Layer_3" xmlns="http://www.w3.org/2000/svg" xmlns:xlink="http://www.w3.org/1999/xlink" x="0px" y="0px"
	 viewBox="0 0 5000 5000" enable-background="new 0 0 5000 5000" xml:space="preserve">
<g>
	<g opacity="0.35">
		<path d="M2258.9,2726.6c0,0,62.4,113.2,217.5,143c0,0,226.7,38.4,319.5-187c0,0,54.8-127.3,0-318.2l-0.9-77.8
			c0,0,89.2,144.6,61.8,322.2c0,0-27.4,229.4-235.8,289.2c0,0-255.1,70.6-385-146.2c0,0-16.6-16.9-7.4-32
			C2228.5,2719.8,2246.6,2708.2,2258.9,2726.6z"/>
	</g>
	<g>
		<path d="M2276.9,2718.6c0,0,62.4,113.2,217.5,143c0,0,226.7,38.4,319.5-187c0,0,54.8-127.3,0-318.2l-0.9-77.8
			c0,0,89.2,144.6,61.8,322.2c0,0-27.4,229.4-235.8,289.2c0,0-255.1,70.6-385-146.2c0,0-16.6-16.9-7.4-32
			C2246.5,2711.8,2264.6,2700.2,2276.9,2718.6z"/>
	</g>
</g>
<g>
	<g opacity="0.35">
		<path d="M2240.3,2305.9c8.5-1.9,16.6-12.8,39.7-44.9c0,0,79.2-107,222.4-119.4c17.3-1.5,34.8-0.6,51.9,2.5
			c51.5,9.1,168.6,38.1,209.4,119.6c2.1,4.2,3,8.9,3,13.7v71.9c0,14.4,2.4,28.7,7,42.2l10.2,29.8c3.4,10.1,5.2,20.7,5.2,31.4v121.6
			c0,5-0.4,10.1-1.3,15c-2.8,16.2-8.7,56.6-1.8,76c1,2.8,4.7,3.1,6,0.4c11.8-23.6,52.6-123.5,11.3-310.6c-0.9-3.9-1.4-7.9-1.5-11.8
			l-2-78.8c-0.4-9.6-3.8-18.9-9.6-26.3c-7.8-9.9-19.3-28.4-36.9-45.1c-123.6-117.1-313.6-121.6-444-12.8
			c-20.9,17.4-40.6,38.4-57.8,63.8c0,0-25.9,33.8-25.8,50.8C2225.8,2302.5,2233.2,2307.5,2240.3,2305.9z"/>
	</g>
	<g>
		<path d="M2258.3,2297.9c8.5-1.9,16.6-12.8,39.7-44.9c0,0,79.2-107,222.4-119.4c17.3-1.5,34.8-0.6,51.9,2.5
			c51.5,9.1,168.6,38.1,209.4,119.6c2.1,4.2,3,8.9,3,13.7v71.9c0,14.4,2.4,28.7,7,42.2l10.2,29.8c3.4,10.1,5.2,20.7,5.2,31.4v121.6
			c0,5-0.4,10.1-1.3,15c-2.8,16.2-8.7,56.6-1.8,76c1,2.8,4.7,3.1,6,0.4c11.8-23.6,52.6-123.5,11.3-310.6c-0.9-3.9-1.4-7.9-1.5-11.8
			l-2-78.8c-0.4-9.6-3.8-18.9-9.6-26.3c-7.8-9.9-19.3-28.4-36.9-45.1c-123.6-117.1-313.6-121.6-444-12.8
			c-20.9,17.4-40.6,38.4-57.8,63.8c0,0-25.9,33.8-25.8,50.8C2243.8,2294.5,2251.2,2299.5,2258.3,2297.9z"/>
	</g>
</g>
<g>
	<g opacity="0.35">
		<path d="M2226.3,2745.2h-1.2c-32.1,0-58.1-26.7-58.1-59.7v-350.2c0-33,26-59.7,58.1-59.7h1.2c32.1,0,58.1,26.7,58.1,59.7v350.2
			C2284.4,2718.5,2258.4,2745.2,2226.3,2745.2z"/>
	</g>
	<g>
		<path fill="#E9CBB5" d="M2244.3,2737.2h-1.2c-32.1,0-58.1-26.7-58.1-59.7v-350.2c0-33,26-59.7,58.1-59.7h1.2
			c32.1,0,58.1,26.7,58.1,59.7v350.2C2302.4,2710.5,2276.4,2737.2,2244.3,2737.2z"/>
	</g>
</g>
<g>
	<path fill="none" d="M2191.1,2704.2c-4.5-1.8-9.3-5.4-14.2-11.4l27.9,53.9c0,0,6.5-5.9,14.6-14.5
		C2207.1,2726.6,2197.1,2716.6,2191.1,2704.2z"/>
	<path fill="#877164" d="M2252,2669v-329.4c0-20.1-6.4-39.9-19.3-54.9c-4-4.6-8.5-8.8-13.6-11.9c-11.2,5.2-20.5,14-26.5,25
		c13.9-3.3,33-2.6,38.9,23.1c0.9,3.8,1.2,7.8,1.2,11.7V2656c0,15.3-5.4,30.5-16.1,41c-6.9,6.7-15.6,11.2-25.5,7.2
		c6,12.5,16,22.4,28.3,28c6.9-7.3,15-16.5,21.4-25.8C2248.2,2695.5,2252,2682.4,2252,2669z"/>
</g>
<g>
	<path fill="#FFEEE3" d="M2210.4,2677.1c0-0.1,0-0.2,0-0.3v-331.9c0-15.4-8.1-29.5-21-36.8l-1-0.6c-2.1,6.2-3.3,12.9-3.3,19.9v350.2
		c0,11.4,3.1,22.1,8.5,31.1C2203.6,2701.5,2210.3,2690,2210.4,2677.1z"/>
</g>
<path fill="#9E8677" d="M2193,2696.5h-6.7c-2,0-3.6-1.7-3.6-3.8v-372.1c0-2.1,1.6-3.8,3.6-3.8h6.7c2,0,3.6,1.7,3.6,3.8v372.1
	C2196.6,2694.8,2195,2696.5,2193,2696.5z"/>
<path fill="#C8C4C2" d="M2189.9,2693.4h-4.2c-1.3,0-2.3-1.7-2.3-3.7v-366.1c0-2,1-3.7,2.3-3.7h4.2c1.3,0,2.3,1.7,2.3,3.7v366.1
	C2192.1,2691.7,2191.1,2693.4,2189.9,2693.4z"/>
<g>
	<g>
		<g>
			<path fill="#FFEEE3" d="M2258.4,2269.8c18.6,14.5,38.7,41.9,34.2,91.5l0.2,309.5c0,16.2-4.5,32-13.1,45.5
				c-2.8,4.3-5.9,9.1-9.4,14c18.1-10,30.5-29.9,30.5-52.7v-350.2C2300.7,2299.8,2282.7,2276.7,2258.4,2269.8z"/>
		</g>
	</g>
</g>
<ellipse fill="#877164" cx="2232.5" cy="2408.3" rx="38.5" ry="40.2"/>
<ellipse fill="#E9CBB5" cx="2232.5" cy="2408.3" rx="35.3" ry="36.8"/>
<ellipse fill="#FCEADE" cx="2232.5" cy="2408.3" rx="30.3" ry="31.6"/>
<path fill="#514138" d="M2302.4,2349.3v301.4l1.4-1.2c12-9.7,19-24.6,19-40.5c0,0-0.8-101.8-2.5-127.3c-0.7-10.1-2.2-20.1,1.5-52.3
	c0.5-4.5,0.8-9.1,0.8-13.7v-20.3c0-12.2-3.9-24-11-33.7L2302.4,2349.3z"/>
<path fill="#E8E7E6" d="M2188.3,2693.4h-1.2c-0.3,0-0.6-1.7-0.6-3.7v-366.1c0-2,0.3-3.7,0.6-3.7h1.2c0.3,0,0.6,1.7,0.6,3.7v366.1
	C2189,2691.7,2188.7,2693.4,2188.3,2693.4z"/>
<path fill="#E05A4C" d="M2276.9,2716.9c0,0,62.4,114.2,217.5,144.3c0,0,226.7,38.8,319.5-188.8c0,0,54.8-128.5,0-321.2l-0.9-78.5
	c0,0,89.2,145.9,61.8,325.2c0,0-27.4,231.6-235.8,291.9c0,0-255.1,71.3-385-147.5c0,0-16.6-17.1-7.4-32.3
	C2246.5,2710,2264.6,2698.4,2276.9,2716.9z"/>
<path fill="#E05A4C" d="M2258.3,2297.9c8.5-1.9,16.6-12.8,39.7-44.9c0,0,79.2-107,222.4-119.4c17.3-1.5,34.8-0.6,51.9,2.5
	c51.5,9.1,168.6,38.1,209.4,119.6c2.1,4.2,3,8.9,3,13.7v71.9c0,14.4,2.4,28.7,7,42.2l10.2,29.8c3.4,10.1,5.2,20.7,5.2,31.4v121.6
	c0,5-0.4,10.1-1.3,15c-2.8,16.2-8.7,56.6-1.8,76c1,2.8,4.7,3.1,6,0.4c11.8-23.6,52.6-123.5,11.3-310.6c-0.9-3.9-1.4-7.9-1.5-11.8
	l-2-78.8c-0.4-9.6-3.8-18.9-9.6-26.3c-7.8-9.9-19.3-28.4-36.9-45.1c-123.6-117.1-313.6-121.6-444-12.8
	c-20.9,17.4-40.6,38.4-57.8,63.8c0,0-25.9,33.8-25.8,50.8C2243.8,2294.5,2251.2,2299.5,2258.3,2297.9z"/>
<g>
	<g opacity="0.35">
		<path d="M2766.7,2294.7c0,0-138.7-165-304.5-126.9c0,0-39.8,13.8-47.3-7.9c0,0,197-88.1,355,99L2766.7,2294.7z"/>
	</g>
	<g>
		<path fill="#E05A4C" d="M2784.7,2286.7c0,0-138.7-165-304.5-126.9c0,0-39.8,13.8-47.3-7.9c0,0,197-88.1,355,99L2784.7,2286.7z"/>
	</g>
</g>
<g>
	<g>
		<g>
			<path fill="#B53737" d="M2811.9,2583.4l5.4-140.2c0.3-8.6-0.7-17.2-3.1-25.4l-14.5-49.3c-1.1-3.8-1.7-7.7-1.7-11.6V2287
				c0-10.1-2-20.2-6.4-29.2c-63.6-130-250-134.4-250-134.4c-169.8,3.7-256.3,123.2-285.8,174.8c0.8,0,1.7-0.1,2.5-0.3
				c8.5-1.9,16.6-12.8,39.7-44.9c0,0,79.2-107,222.4-119.4c17.3-1.5,34.8-0.6,51.9,2.5c51.5,9.1,168.6,38.1,209.4,119.6
				c2.1,4.2,3,8.9,3,13.7v71.9c0,14.4,2.4,28.7,7,42.2l10.2,29.8c3.4,10.1,5.2,20.7,5.2,31.4v121.6c0,5-0.4,10.1-1.3,15
				c-2.8,16.2-8.7,56.6-1.8,76c0.3,0.8,0.8,1.3,1.3,1.7c0.4-26,4-53.9,5.6-65.1C2811.4,2590.5,2811.8,2587,2811.9,2583.4z"/>
		</g>
	</g>
</g>
<g>
	<g>
		<path fill="#B53737" d="M2813,2272.8l0.2,18.7c102.7,204.2,39.7,364.5,39.7,364.5C2767.7,2916.2,2541,2894,2541,2894
			c-198,0-279.2-151.2-294.5-184c0,0-0.1,0-0.1,0c-9.1,15.3,7.4,32.3,7.4,32.3c129.9,218.8,385,147.5,385,147.5
			c208.4-60.3,235.8-291.9,235.8-291.9C2902.1,2418.7,2813,2272.8,2813,2272.8z"/>
	</g>
</g>
<g>
	<g>
		<g>
			<path fill="#B53737" d="M2821.3,2347.2c-0.9-3.9-1.4-7.9-1.5-11.8l-2-78.8c-0.4-9.6-3.8-18.9-9.6-26.3
				c-7.8-9.9-19.3-28.4-36.9-45.1c-123.6-117.1-313.6-121.6-444-12.8c-20.9,17.4-40.6,38.4-57.8,63.8c0,0-25.9,33.8-25.8,50.8
				c0,1.2,0.2,2.3,0.6,3.4c16.9-35,82.2-149.8,223-183c54.2-12.8,99.4-11.2,145.5,0.4c59.8,15,145.4,49.5,191.5,127.5
				c4.8,8.2,8.6,23,8.6,32.6v69.9c0,3.9,0.6,7.9,1.7,11.6l19.3,99.8c3.7,20.8,0.5,79.1-1.2,104.6c-0.5,7.9-1.7,15.8-3.6,23.5
				c-3.7,15.2-9.9,41.9-12.5,65.3C2832,2603.2,2856.6,2507,2821.3,2347.2z"/>
		</g>
	</g>
</g>
<g>
	<g>
		<path fill="#B53737" d="M2598.3,2159.8c-66.1-17.9-114.6-5.2-129.5-0.2c-5.5,1.8-11.3,2.5-16.9,1.2c-7.2-1.8-12.3-5.9-15.7-10.2
			c-2,0.8-3.1,1.3-3.1,1.3c7.5,21.7,47.3,7.9,47.3,7.9c165.8-38.1,304.5,126.9,304.5,126.9l0.1-0.6
			C2708.2,2187.4,2598.3,2159.8,2598.3,2159.8z"/>
	</g>
</g>
</svg>
