<?xml version="1.0" encoding="utf-8"?>
<!-- Generator: Adobe Illustrator 17.1.0, SVG Export Plug-In . SVG Version: 6.00 Build 0)  -->
<!DOCTYPE svg PUBLIC "-//W3C//DTD SVG 1.1//EN" "http://www.w3.org/Graphics/SVG/1.1/DTD/svg11.dtd">
<svg version="1.1" id="Layer_3" xmlns="http://www.w3.org/2000/svg" xmlns:xlink="http://www.w3.org/1999/xlink" x="0px" y="0px"
	 viewBox="0 0 5000 5000" enable-background="new 0 0 5000 5000" xml:space="preserve">
<g>
	<path fill="#FCB413" d="M2749.4,2487.3h-382.7c-6.4,0-11.6,5.2-11.6,11.6v93.8c0,6.4,5.2,11.6,11.6,11.6h382.7
		c6.4,0,11.6-5.2,11.6-11.6V2499C2761,2492.5,2755.8,2487.3,2749.4,2487.3z M2581,2572.2h161.4c2.5,0,4.6,2,4.7,4.5l0,1.3
		c0.1,3.7-2.9,6.8-6.6,6.8h-164.9c-16,0-28.9-12.9-28.9-28.9v-19.5c0-16.4,13.3-29.6,29.6-29.6H2743c2.4,0,4.3,2,4.2,4.3l-0.1,3.5
		c-0.1,2.7-2.3,4.9-5,4.9h-160.3c-11.4,0-20.6,9.2-20.6,20.6v12.2C2561.1,2563.3,2570,2572.2,2581,2572.2z"/>
</g>
<g>
	<path fill="none" d="M2575.7,2584.9h164.9c3.7,0,6.7-3.1,6.6-6.8l0-1.3c-0.1-2.5-2.1-4.5-4.7-4.5H2581c-11,0-19.9-8.9-19.9-19.9
		v-12.2c0-11.4,9.2-20.6,20.6-20.6h160.3c2.7,0,4.9-2.2,5-4.9l0.1-3.5c0.1-2.4-1.8-4.3-4.2-4.3h-166.6c-16.4,0-29.6,13.3-29.6,29.6
		v19.5C2546.8,2571.9,2559.7,2584.9,2575.7,2584.9z"/>
	<path fill="#E59D0E" d="M2375.4,2594.2c-5.1,0-9.2-4.1-9.2-9.2v-97.6c-6.2,0.3-11.1,5.3-11.1,11.6v93.8c0,6.4,5.2,11.6,11.6,11.6
		h382.7c5.9,0,10.7-4.4,11.5-10.1H2375.4z"/>
</g>
<rect x="2355.1" y="2506.8" fill="#F9D9A5" width="77.4" height="14.4"/>
<rect x="2355.1" y="2570.5" fill="#F9D9A5" width="77.4" height="14.4"/>
<rect x="2369.8" y="2529.9" fill="#F9D9A5" width="60.6" height="11.3"/>
<rect x="2369.8" y="2550.5" fill="#F9D9A5" width="60.6" height="11.3"/>
<g>
	<path fill="none" d="M2581.8,2519.5h160.3c2.7,0,4.9-2.2,5-4.9l0.1-3.5c0.1-2.4-1.8-4.3-4.2-4.3h-166.6
		c-16.4,0-29.6,13.3-29.6,29.6v19.5c0,16,12.9,28.9,28.9,28.9h164.9c3.7,0,6.7-3.1,6.6-6.8l0-1.3c-0.1-2.5-2.1-4.5-4.7-4.5H2581
		c-11,0-19.9-8.9-19.9-19.9v-12.2C2561.1,2528.7,2570.4,2519.5,2581.8,2519.5z"/>
	<path fill="#FFCA61" d="M2757.4,2505.2l3.6,19V2499c0-6.4-5.2-11.6-11.6-11.6h-382.7c-1.1,0-2.2,0.2-3.3,0.5l378.4,4.2
		C2749.5,2492.2,2756,2497.7,2757.4,2505.2z"/>
</g>
</svg>
