<?xml version="1.0" encoding="utf-8"?>
<!-- Generator: Adobe Illustrator 17.1.0, SVG Export Plug-In . SVG Version: 6.00 Build 0)  -->
<!DOCTYPE svg PUBLIC "-//W3C//DTD SVG 1.1//EN" "http://www.w3.org/Graphics/SVG/1.1/DTD/svg11.dtd">
<svg version="1.1" id="Layer_2" xmlns="http://www.w3.org/2000/svg" xmlns:xlink="http://www.w3.org/1999/xlink" x="0px" y="0px"
	 viewBox="0 0 5000 5000" enable-background="new 0 0 5000 5000" xml:space="preserve">
<path fill="#696868" d="M2920.6,2674.4h-651.7c-11.2,0-20.2-9.5-20.2-21.2V2190c0-11.7,9-21.2,20.2-21.2h651.7
	c11.2,0,20.2,9.5,20.2,21.2v463.2C2940.8,2665,2931.7,2674.4,2920.6,2674.4z"/>
<path fill="#E8E7E5" d="M2914.9,2668.3h-640.4c-20,0.6-19.9-9.3-19.9-20.8V2193c-1.4-20.8,8.9-20.8,19.9-20.8h640.4
	c11,0,20.5,5.1,19.9,20.8v454.5C2934.7,2659,2934.7,2668.9,2914.9,2668.3z"/>
<path fill="#CBC9C5" d="M2909.6,2668.3h-628.4c-10.8,0-19.5-9.2-19.5-20.5v-448.9c0-11.3,8.7-20.5,19.5-20.5h628.4
	c10.8,0,19.5,9.2,19.5,20.5v448.9C2929,2659.1,2920.3,2668.3,2909.6,2668.3z"/>
<path fill="#070707" d="M2704.1,2188l-28,0.5c-17.9,0.3-35.3,6.8-49,18.9c-24.6,21.5-54.3,64.6-43.4,143.7
	c6.3,45.5,27,87.9,60.1,118.4c29.3,26.9,67.5,44.3,130,43.9c1.2,0,2.4,0,3.5,0c8.9,0.2,60.1-0.6,101.5-40.3
	c21-20.1,32.7-48.8,32.7-78.5v-121.5c0-17.3-4.3-34.5-13.2-49.1c-0.6-1-1.2-2-1.9-2.9c-12.4-18.7-33.2-29.5-55-30l-27.6-0.5
	c-1,0-4.2-0.7-4.9-1.4c-1.2-1.2-6.3-4.1-6.3-4.1c-2.4-1.6-43-16.3-78.8-2.5C2717.3,2185.2,2711,2187.9,2704.1,2188z"/>
<path fill="#191819" d="M2705.1,2191.5l-27.3,0.5c-17.5,0.3-34.4,6.7-47.8,18.4c-24,21-53,63.1-42.4,140.3
	c6.1,44.3,26.2,85.5,58.3,115.2c28.6,26.5,66,43.6,127.2,43.2c1.1,0,2.3,0,3.5,0c8.7,0.2,58.9-0.6,99.4-39.6
	c20.4-19.6,31.6-47.5,31.6-76.4v-118.6c0-16.9-4.2-33.6-12.8-47.9c-0.6-1-1.2-1.9-1.8-2.9c-12.1-18.3-32.4-28.8-53.7-29.3l-25.8-0.5
	c-2.1,0-4.1-1.2-5.1-3.2l0-0.1c-4.2-5-54.9-19.9-83.7-4.6C2718.5,2189.4,2711.9,2191.4,2705.1,2191.5z"/>
<ellipse fill="#322F32" cx="2757.8" cy="2325.4" rx="138.8" ry="144.7"/>
<path fill="#515052" d="M2859.8,2227.3c0,0-104-86.6-192.6,0c0,0-61.3,57.4-37.9,153c0,0-7.5-17.2-9.3-43.1
	c-6.1-89.2,66.9-164,152.3-155.2C2799.5,2184.7,2829.4,2197.3,2859.8,2227.3z"/>
<ellipse fill="#121113" cx="2757.8" cy="2325.4" rx="113" ry="117.8"/>
<ellipse fill="#383537" cx="2757.8" cy="2325.4" rx="106.4" ry="111"/>
<ellipse fill="#1B1A1B" cx="2757.8" cy="2325.4" rx="104.3" ry="108.7"/>
<ellipse fill="#383537" cx="2757.8" cy="2325.4" rx="101.7" ry="106"/>
<ellipse fill="none" stroke="#302D2E" stroke-miterlimit="10" cx="2757.8" cy="2325.4" rx="94.2" ry="98.2"/>
<ellipse fill="none" stroke="#302D2E" stroke-miterlimit="10" cx="2757.8" cy="2325.4" rx="89" ry="92.8"/>
<ellipse fill="#131313" cx="2757.8" cy="2325.4" rx="82.4" ry="85.9"/>
<ellipse fill="none" stroke="#545554" stroke-miterlimit="10" cx="2757.8" cy="2325.4" rx="57.7" ry="60.1"/>
<ellipse cx="2757.8" cy="2325.4" rx="56.9" ry="59.3"/>
<ellipse fill="#121212" cx="2757.8" cy="2325.4" rx="46.3" ry="48.2"/>
<ellipse fill="#0C0D0D" cx="2757.8" cy="2325.4" rx="42.7" ry="44.5"/>
<ellipse fill="none" stroke="#0C0D0D" stroke-miterlimit="10" cx="2757.8" cy="2325.4" rx="38.8" ry="40.4"/>
<ellipse fill="none" stroke="#0C0D0D" stroke-miterlimit="10" cx="2757.8" cy="2325.4" rx="35.2" ry="36.7"/>
<ellipse fill="none" stroke="#0C0D0D" stroke-miterlimit="10" cx="2757.8" cy="2325.4" rx="30.6" ry="31.9"/>
<ellipse fill="none" stroke="#0C0D0D" stroke-miterlimit="10" cx="2757.8" cy="2325.4" rx="25.7" ry="26.8"/>
<ellipse fill="none" stroke="#0C0D0D" stroke-miterlimit="10" cx="2757.8" cy="2325.4" rx="21.4" ry="22.3"/>
<ellipse fill="none" stroke="#161616" stroke-miterlimit="10" cx="2757.8" cy="2325.4" rx="18.6" ry="19.4"/>
<ellipse cx="2757.8" cy="2325.4" rx="17.7" ry="18.5"/>
<ellipse fill="#4C4B4C" cx="2757.8" cy="2325.4" rx="14.8" ry="16.1"/>
<ellipse fill="none" stroke="#3F4040" stroke-miterlimit="10" cx="2757.8" cy="2325.4" rx="12.2" ry="13.3"/>
<ellipse fill="none" stroke="#3F4040" stroke-miterlimit="10" cx="2757.8" cy="2325.4" rx="9.3" ry="10.2"/>
<ellipse fill="#2C421D" cx="2757.8" cy="2325.4" rx="8.1" ry="8.5"/>
<ellipse fill="#91A987" cx="2757.8" cy="2310.7" rx="2" ry="1.5"/>
<ellipse fill="#91A987" cx="2757.8" cy="2315.3" rx="1.1" ry="0.8"/>
<path fill="#5D724C" d="M2753.7,2318.1c0,0-4.9,4.3-2.7,12C2750.9,2330,2746.3,2323.6,2753.7,2318.1z"/>
<path fill="#5D724C" d="M2764.5,2320.7c0,0,2.6,6.1-2.7,12C2761.9,2332.6,2768.8,2329,2764.5,2320.7z"/>
<ellipse opacity="0.21" fill="#61345A" cx="2757.8" cy="2325.4" rx="82.4" ry="85.9"/>
<g>
	<path opacity="0.18" fill="#A54248" d="M2834.6,2294.3c-12-32.1-41.8-54.8-76.8-54.8c-34.8,0-64.6,22.6-76.7,54.4
		C2709.8,2281.1,2770.1,2262.5,2834.6,2294.3z"/>
</g>
<g>
	<g>
		<g opacity="0.14">
			<path fill="#934A85" d="M2812.8,2389.4c-27.6,9.5-68.9,16.6-111.7-1.6c14.8,14.6,34.7,23.6,56.6,23.6
				C2778.9,2411.3,2798.2,2403,2812.8,2389.4z"/>
		</g>
	</g>
</g>
<path opacity="0.1" fill="#EE962C" d="M2675.8,2316.9c0,0,13-5.6,31.1-10.9c28.7-8.4,58.8-9.7,88.2-4.4c15.8,2.8,33.2,7,44.3,12.9
	c0,0,0-15.9-4.9-20.1c0,0-39.3-20.3-77.9-17.6c0,0-40.1,0.1-75.5,17.2C2681.1,2294,2676.2,2308.4,2675.8,2316.9z"/>
<path opacity="0.28" fill="#CD414B" d="M2700.1,2271.1c0,0-20.6,10.2-20.2,44.2C2679.9,2315.3,2681.1,2285,2700.1,2271.1z"/>
<path opacity="0.28" fill="#CD414B" d="M2743.9,2252.5l10.1,4.6c2.4,1.1,5.2,1.1,7.6,0.1l10.6-4.7c1.6-0.7,1.6-3.2,0-3.8
	c-5.9-2.3-17-5.3-28.3-0.1C2742.3,2249.3,2742.3,2251.7,2743.9,2252.5z"/>
<path opacity="0.27" fill="#DB94A0" d="M2748.9,2251.3l6.5,3.8c1.6,0.9,3.3,0.9,4.9,0.1l6.9-3.8c1.1-0.6,1.1-2.6,0-3.2
	c-3.8-1.9-11-4.3-18.4-0.1C2747.8,2248.7,2747.9,2250.7,2748.9,2251.3z"/>
<path fill="#E8E7E5" d="M2477.7,2441.7h-134.8c-8.9,0-16-7.5-16-16.7v-172.5c0-9.2,7.2-16.7,16-16.7h134.8c8.9,0,16,7.5,16,16.7
	V2425C2493.7,2434.2,2486.5,2441.7,2477.7,2441.7z"/>
<path fill="#4E5D50" d="M2474.8,2437.3h-129c-8.5,0-15.3-7.2-15.3-16v-165.2c0-8.8,6.9-16,15.3-16h129c8.5,0,15.3,7.2,15.3,16v165.2
	C2490.1,2430.2,2483.3,2437.3,2474.8,2437.3z"/>
<ellipse fill="none" stroke="#5A5B5B" stroke-miterlimit="10" cx="2405.1" cy="2549.4" rx="64.7" ry="67.4"/>
<path opacity="0.62" d="M2404.9,2533.6L2404.9,2533.6c-1.6,0-2.8-1.2-2.8-2.6v-20.1c0-1.4,1.2-2.6,2.8-2.6h0.1
	c1.5,0,2.8,1.2,2.8,2.6v20.1C2407.7,2532.4,2406.5,2533.6,2404.9,2533.6z"/>
<path opacity="0.62" d="M2395.4,2523.5c0,0-11.9,7.7-8.9,22.2c0,0,0.7,7.5,8.5,12c6.1,3.5,13.8,3.4,19.8-0.5
	c0.4-0.3,0.8-0.5,1.2-0.8c7.2-5.4,9.3-15.6,5.4-23.9c-1.5-3.2-2.7-5.7-6.7-8.2c0-0.1-0.2-0.3-0.4-0.5c-2-2.1-0.6-5.6,2.1-5.8
	c0.9-0.1,2,0.2,3,1c0,0,8.9,6.1,10.5,18.3c0.7,5.5-0.3,11.1-2.8,15.9c-2.5,5-7.1,10.9-15.5,13.1c-4.3,1.1-8.8,1.1-13-0.1
	c-5.6-1.5-13.2-5.3-16.9-14.9c-1.5-3.8-2-7.9-1.7-12c0.5-5.8,2.8-14.3,11.2-20.1c0,0,2.4-1.6,4.3,0.2
	C2395.4,2519.4,2397.5,2521.8,2395.4,2523.5z"/>
<path opacity="0.42" d="M2380.4,2578.9c-1.4,0.4-2.3,1.8-2.3,3.3v7.9h-2.5v-13.8h2.5v1.7c0,0,1.4-1.7,3.8-1.7c0,0,1.8,0.2,3,1.6
	c0.3,0.4,0.9,0.4,1.3,0c0.7-0.7,1.9-1.6,3.7-1.6c0,0,0.1,0,0.3,0c2.2,0,4.2,1.7,4.2,4v9.8h-2.4l-0.1-9.5c-0.1-0.1-0.1-1.7-2.1-1.8
	c0,0-2.8-0.6-3.1,2.1l0,9.2h-2.4l-0.2-9.3c0,0-0.2-1.9-2.4-2.2C2381.7,2578.6,2381.1,2578.7,2380.4,2578.9z"/>
<g>
	<path opacity="0.42" d="M2415.8,2576c-3,0-5.5,3.2-5.5,7.2s2.5,7.2,5.5,7.2c1.2,0,2.3-0.6,3.2-1.5l0-11.6
		C2418.1,2576.5,2417,2576,2415.8,2576z"/>
</g>
<ellipse opacity="0.42" cx="2402.8" cy="2583.3" rx="5.5" ry="7.2"/>
<ellipse fill="#CBC9C5" cx="2402.8" cy="2583.3" rx="3.3" ry="5.2"/>
<path fill="#CBC9C5" d="M2418.6,2583.1c0,2.8-1.4,5.1-3.1,5.2c-1.7,0-3.1-2.3-3.1-5.2c0-2.8,1.4-5.2,3.1-5.2
	C2417.2,2578,2418.6,2580.3,2418.6,2583.1z"/>
<path opacity="0.42" d="M2419,2577.3v-7.3h2.3v20h-2.3c0,0,0-6,0-9L2419,2577.3z"/>
<path opacity="0.42" d="M2426.1,2584h8.8c0,0,1.2-5.4-3-7.5c-1.8-0.9-3.9-0.8-5.5,0.4c-1.4,1.1-2.8,3.1-2.7,7.1c0,0,0.2,6.6,6.4,6.3
	c0,0,3.2-0.5,4.2-2l-1.5-1.6c0,0-2.1,1.4-2.9,1.4C2429.9,2588.1,2426,2588.1,2426.1,2584z"/>
<path fill="#CBC9C5" d="M2426,2582.1h7.3c0,0,0-1.1-0.4-2.3c-1.2-3-5.3-2.9-6.4,0.1C2426.2,2580.4,2426,2581.2,2426,2582.1z"/>
<ellipse fill="#F2F2F2" cx="2519.4" cy="2508.3" rx="29.3" ry="30.5"/>
<ellipse fill="#DCDBD7" cx="2519.4" cy="2508.3" rx="28.1" ry="29.3"/>
<ellipse fill="#E7E6E2" cx="2519.4" cy="2508.3" rx="26" ry="27.1"/>
<ellipse fill="#DCDBD7" cx="2519.4" cy="2508.3" rx="23.9" ry="24.9"/>
<ellipse fill="#ECEBE8" cx="2519.4" cy="2508.3" rx="21.5" ry="22.4"/>
<g>
	<path fill="#DDDDDA" d="M2519.4,2485.9c-7.7,0-14.4,4.2-18.2,10.6h36.5C2533.9,2490.1,2527.1,2485.9,2519.4,2485.9z"/>
</g>
<path fill="#DDDDDA" d="M2533,2514.5h-27.3c-1.5,0-2.8-1.3-2.8-2.9v-6.6c0-1.6,1.3-2.9,2.8-2.9h27.3c1.5,0,2.8,1.3,2.8,2.9v6.6
	C2535.8,2513.2,2534.6,2514.5,2533,2514.5z"/>
<path fill="#F4F4F4" d="M2529.4,2512.9h-20c-1.1,0-2.1-1-2.1-2.1v-4.8c0-1.2,0.9-2.1,2.1-2.1h20c1.1,0,2.1,1,2.1,2.1v4.8
	C2531.5,2511.9,2530.6,2512.9,2529.4,2512.9z"/>
<ellipse opacity="0.34" fill="#D8D8D7" cx="2519.4" cy="2508.3" rx="29.1" ry="30.3"/>
<ellipse fill="#FFFFFF" cx="2519.4" cy="2484.5" rx="5.2" ry="1.1"/>
<ellipse fill="#F9F8F7" cx="2519.4" cy="2590.5" rx="30.3" ry="31.6"/>
<ellipse fill="#A0A09F" cx="2519.4" cy="2590.5" rx="28.7" ry="29.9"/>
<ellipse fill="#A12D2C" cx="2519.4" cy="2590.5" rx="27.7" ry="28.9"/>
<ellipse fill="#D33735" cx="2519.4" cy="2590.5" rx="23.1" ry="24.1"/>
<ellipse fill="#D15942" cx="2519.4" cy="2593.2" rx="8.6" ry="8.9"/>
<polygon fill="#070706" points="2653.3,2597.4 2659.2,2597.4 2659.2,2612.3 2688.5,2612.3 2688.5,2597.4 2694.7,2597.4 
	2694.7,2632.7 2688.5,2632.7 2688.5,2617.8 2659.8,2617.4 2659.8,2632.7 2653.3,2632.7 "/>
<polygon fill="#070706" points="2702.2,2597.4 2702.2,2632.7 2736.7,2632.7 2736.7,2628 2707.7,2628.3 2707.7,2617.1 2736.7,2616.8 
	2736.7,2612 2708,2612.3 2708.4,2602.5 2736.7,2602.8 2736.7,2597.4 "/>
<path fill="#070706" d="M2748,2632.7h-6.2v-35.3h31.4c4.4,0,8.3,3.4,8.6,8c0.1,0.9,0.1,2,0,3.2c0,0,0.3,6.8-4.2,8.2
	c0,0,4.3,2.7,4.3,8.8l0,7.1h-5.9v-8.8c0,0-1-4.1-4.6-4.4H2748V2632.7z"/>
<path fill="#BFBFB9" d="M2747.7,2601.1v11.6h23.1c0,0,5.2,0.5,5.2-5.8c0,0,0.7-5.4-4.9-5.8H2747.7z"/>
<path fill="#070706" d="M2788,2606.1v15.7c0,2.1,0.6,4.2,1.9,5.8c1.6,2,4.5,4.1,9.9,4.3h20.9c0,0,6.6,0.2,10-4.4
	c1.1-1.5,1.5-3.5,1.5-5.4v-15.2c0-0.9-0.1-1.8-0.3-2.6c-0.6-2.4-2.8-7.8-8.4-7.8H2798c-2.6,0-5.1,0.9-7,2.7
	C2789.6,2600.7,2788.3,2602.8,2788,2606.1z"/>
<path fill="#BFBFB9" d="M2793.5,2608.1v11.8c0,1.6,0.4,3.2,1.4,4.4c1.2,1.5,3.4,3.1,7.4,3.2h15.6c0,0,5,0.2,7.5-3.3
	c0.8-1.1,1.1-2.6,1.1-4v-11.4c0-0.7-0.1-1.3-0.2-1.9c-0.5-1.8-2.1-5.8-6.3-5.8h-19c-1.9,0-3.8,0.7-5.2,2
	C2794.7,2604.1,2793.7,2605.7,2793.5,2608.1z"/>
<polygon fill="#20201F" points="2863.7,2584.3 2883.9,2584.3 2883.9,2611.8 2889.5,2611.8 2889.5,2619.3 2884.3,2619.3 
	2884.3,2629.5 2867.6,2629.5 2867.6,2619.3 2839,2619 2839,2613.2 "/>
<polygon fill="#BFBEBA" points="2856.2,2610.5 2867.6,2610.5 2867.6,2597.9 "/>
<path fill="#A3A29F" d="M2366.8,2170.5h-57.4v0c0-2.2,3.4-4,7.6-4h42.8c3.8,0,7,1.6,7,3.6V2170.5z"/>
</svg>
