<?xml version="1.0" encoding="utf-8"?>
<!-- Generator: Adobe Illustrator 17.1.0, SVG Export Plug-In . SVG Version: 6.00 Build 0)  -->
<!DOCTYPE svg PUBLIC "-//W3C//DTD SVG 1.1//EN" "http://www.w3.org/Graphics/SVG/1.1/DTD/svg11.dtd">
<svg version="1.1" id="Layer_3" xmlns="http://www.w3.org/2000/svg" xmlns:xlink="http://www.w3.org/1999/xlink" x="0px" y="0px"
	 viewBox="0 0 5000 5000" enable-background="new 0 0 5000 5000" xml:space="preserve">
<g>
	<g opacity="0.4">
		<path d="M2517.1,1898.6c0,0-12.8,132.8-12.1,290.4l2.2,321c0,0-4.6,412,2.2,484.1c0.6,6.4,1.3,10.1,2.1,10.7
			c9.7,6.5,35.2,14.9,56.9-0.7l-4.3-494.8c0,0,10-521.3-14.4-611.2L2517.1,1898.6z"/>
	</g>
	<g>
		<path d="M2530.1,1895.6c0,0-12.8,132.8-12.1,290.4l2.2,321c0,0-4.6,412,2.2,484.1c0.6,6.4,1.3,10.1,2.1,10.7
			c9.7,6.5,35.2,14.9,56.9-0.7l-4.3-494.8c0,0,10-521.3-14.4-611.2L2530.1,1895.6z"/>
	</g>
</g>
<g>
	<g opacity="0.4">
		<path d="M2525.7,1795.8c0,0-0.4-22.3,5-30.3c0.8-1.2,2-1,2.9,0.1c2,2.4,6.8,9.6,7.2,30.3L2525.7,1795.8z"/>
	</g>
	<g>
		<path d="M2538.7,1792.8c0,0-0.4-22.3,5-30.3c0.8-1.2,2-1,2.9,0.1c2,2.4,6.8,9.6,7.2,30.3L2538.7,1792.8z"/>
	</g>
</g>
<g>
	<g opacity="0.4">
		<path d="M2517.1,1898.6l37.4-0.7l-11.2-103.7c0,0-2.7,1.6-17.7,1.5L2517.1,1898.6z"/>
	</g>
	<g>
		<path d="M2530.1,1895.6l37.4-0.7l-11.2-103.7c0,0-2.7,1.6-17.7,1.5L2530.1,1895.6z"/>
	</g>
</g>
<path fill="#757570" d="M2527.8,1887.6c0,0-14.8,132.8-14.1,290.4l2.5,321c0,0-5.3,412,2.5,484.1c0.7,6.4,1.5,10.1,2.4,10.7
	c11.3,6.5,40.9,14.9,66.1-0.7l-5-494.8c0,0,11.7-521.3-16.7-611.2L2527.8,1887.6z"/>
<path fill="#D0CECD" d="M2531.2,1887.6c0,0-10.9,220-6.9,290.4l2.7,321c0,0-3.3,411.9,3,484.1c0.6,6.4,1.8,15.3,1.8,15.3
	c8.8,6.5,30.9,13.1,50.4-2.5l-3.9-497.5c0,0,7.9-521.3-14.3-611.2L2531.2,1887.6z"/>
<path fill="#757570" d="M2543.7,1887.4c0,0-0.2,222.1,1.1,293.1l3.1,324.2c0,0,2.8,415.9,4.6,488.9c0.2,6.5,0.3,10.2,0.4,10.8
	c1.7,6.6,6.1,15.5,9.6-0.1l-5-499.6c0,0-2.8-526.3-7.7-617.3L2543.7,1887.4z"/>
<path fill="#EAEAEA" d="M2551.5,1892.2c0,0,1.5,215,3.2,285.4l3.1,321c0,0,1.9,411.9,4.3,484.1c0.2,6.4,0.6,10.1,0.6,10.7
	c0,7.8-3.1,22,2.7,6.6l-0.5-497.4c0,0-5.4-521.3-12.7-611.4L2551.5,1892.2z"/>
<polygon fill="#F9E280" stroke="#757570" stroke-miterlimit="10" points="2580.9,2532.1 2518,2532.7 2517.7,2499.1 2580.6,2498.4 
	"/>
<path fill="none" stroke="#987C53" stroke-miterlimit="10" d="M2569.9,2526.9l-41,0.4c-2.6,0-4.7-2.1-4.7-4.8l-0.1-13.3
	c0-2.7,2-4.9,4.6-4.9l41-0.4c2.6,0,4.7,2.1,4.7,4.8l0.1,13.3C2574.6,2524.7,2572.5,2526.9,2569.9,2526.9z"/>
<polygon fill="#84847F" points="2557.5,2532.3 2548.6,2532.4 2548.2,2498.8 2557.2,2498.7 "/>
<path fill="#AFB1B2" d="M2537.7,1784.8c0,0-0.5-22.3,5.7-30.3c0.9-1.2,2.3-1,3.4,0.1c2.3,2.4,7.9,9.6,8.3,30.3L2537.7,1784.8z"/>
<path fill="#C7C8C9" d="M2539.9,1784.6c0,0-0.7-22.3,3.8-30.2c0.7-1.1,1.7-1,2.5,0.1c1.7,2.4,6,9.7,6.7,30.4L2539.9,1784.6z"/>
<path fill="#E8E8E8" d="M2545.1,1781.8c-0.6,2.4-2.2-13.4,0.3-27.3c0.2-1.1-0.1-1.1,0,0c0.3,2.5,3,5.9,3.3,27.3L2545.1,1781.8z"/>
<path fill="#939596" d="M2544.6,1781.8c-0.6,2.4-2.7-13.5-0.2-27.4c0.2-1.1,0.8-1.1,1,0.1c0.3,2.5,2.6,5.9,2.8,27.3L2544.6,1781.8z"
	/>
<path fill="#EAEAEA" d="M2537.7,1781.3c0,0,7.8-4.6,17.4-0.4l0,3.9l-17.4,0.2L2537.7,1781.3"/>
<path fill="#A5876D" d="M2525,1916.2l46.6-0.5l-13.3-131.6c0,0-11-8.7-23,0.3L2525,1916.2z"/>
<path fill="#FDEB9F" d="M2529.7,1916.1l36-0.4l-10.1-133.2c0,0-8.8-5.1-18.2,0.3L2529.7,1916.1z"/>
<path fill="#A5876D" d="M2525.1,1905.8c0,0,21.3,0.9,45-0.5"/>
<path fill="#A5876D" d="M2526.6,1897.6c0,0,20.3,0.9,42.9-0.5"/>
<path fill="#A5876D" d="M2525.5,1909.2c0,0,21.3,0.9,45-0.5"/>
<path fill="#AA9B8F" d="M2543.7,1916l7.2-0.1l-2.7-135.5c0,0-1.3-0.6-4.3,0.2L2543.7,1916z"/>
<path fill="#987C53" d="M2519.7,2990.1c0,0,39.3,14.6,67.4-0.7c0,0,3.8,29.4-34.8,27.9C2552.4,3017.3,2521.6,3019.3,2519.7,2990.1z"
	/>
<path fill="#F4E298" d="M2523.6,2992.7c0,0,14,4.3,29.9,5c10.4,0.5,21.1-0.7,31.2-6.1c0,0,4.4,25.4-31.6,24.3
	C2553.1,3015.9,2525.3,3019,2523.6,2992.7z"/>
<path fill="#FFF7D4" d="M2561.6,2997.8l1.7-0.1c0,0,2.3,14.7,7.4,16c0,0-4.5,1.5-7.2,1.7c-2.7,0.3,0,0,0,0
	S2559,3001.7,2561.6,2997.8"/>
<path fill="#987C53" d="M2552.6,2997c0,0,1,19.3-8.2,19c0,0,11.1,3.3,23.9-1.1c0,0-7.2-6.1-6.7-18c0.2-3.5,0,0,0,0L2552.6,2997"/>
<path fill="#987C53" d="M2553.1,2594.2c-3,9.2-11.3,35.6-13.4,49.3c-0.3,2,0,4.1,0.9,6l4.5,8.7c1.4,2.6,2,5.6,2,8.6l-2.4,157.3
	c0,2.5-0.4,5.1-1.2,7.5l-10.1,32.1c-0.7,2.2-1,4.4-1,6.7l1.1,108.7c0,2.4,0.5,4.8,1.4,7.1l3.9,9.7c1.6,3.9,5.3,6.5,9.4,6.4l15.8-0.2
	c3.4,0,6.5-2.1,7.9-5.3l5.3-11.7c0.8-1.8,1.2-3.8,1.2-5.8l-1.1-109.7c0-1.6-0.3-3.1-0.7-4.6l-10.7-34.3c-0.6-1.9-0.9-3.9-1-6
	l-2.9-157.1c-0.1-3.6,0.8-7.1,2.4-10.3l4.9-9.3c1-1.8,1.2-4,0.5-5.9l-14.7-47.7C2554.8,2593.2,2553.4,2593.2,2553.1,2594.2z"/>
<path fill="#F8ECAE" d="M2552.9,2594.2c-2.3,9.2-8.7,35.6-10.4,49.2c-0.2,2,0,4.1,0.7,6l3.5,8.7c1.1,2.6,1.6,5.6,1.6,8.6l-1.5,157.3
	c0,2.5-0.3,5.1-0.9,7.5l-10.1,34.1c-0.5,2.2-0.1,3.8,0,6l0.9,107.2c0,1.5,0.2,3.3,0.5,5c0.3,1.7,0.9,3.3,1.7,4.8l3.9,7.1
	c1.3,3.9,4.2,6.5,7.3,6.5l12.3-0.1c2.6,0,5-2.1,6.2-5.3l4.6-9.1c0.3-0.5,0.5-1.1,0.6-1.6c0.6-2.1,1.4-5.6,1.4-7.3l0.1-107.2
	c0-1.6-1-5.4-1.4-6.9l-10.3-34c-0.5-1.9-0.7-3.9-0.8-6l-2.6-157.1c-0.1-3.6,0.6-7.1,1.9-10.3l3.8-9.3c0.7-1.8,0.9-4,0.4-5.9
	l-11.6-47.7C2554.3,2593.4,2553.1,2593.4,2552.9,2594.2z"/>
<path fill="#776042" d="M2552.2,2594.2c-0.4,9.2-1.4,35.5-1.7,49.2c0,2,0,4.1,0.2,6l0.8,8.7c0.2,2.6,0.4,5.6,0.4,8.6l1,157.3
	c0,2.5,0,5.1-0.1,7.5l-1.3,32c-0.1,2.2-0.1,4.4-0.1,6.7l1.1,108.7c0,2.4,0.1,4.8,0.3,7.1l0.7,9.7c0.3,3.9,0.9,6.5,1.5,6.5l2.4,0
	c0.5,0,1-2,1.2-5.2l0.7-11.7c0.1-1.8,0.2-3.8,0.1-5.8l-1.1-109.7c0-1.6-0.1-3.1-0.1-4.6l-1.9-34.4c-0.1-1.9-0.2-3.9-0.2-6
	l-1.8-157.1c0-3.6,0.1-7.1,0.3-10.2l0.7-9.3c0.1-1.8,0.1-3.9,0-5.9l-2.7-47.8C2552.5,2593.2,2552.3,2593.2,2552.2,2594.2z"/>
<path fill="#776042" d="M2559.1,2946.1c0,0-0.7,51.9,12.7,44c0,0-2.5,11.4-6,11.7l-8.4,0.3C2557.4,3002,2555.2,2948.7,2559.1,2946.1
	z"/>
<path fill="#776042" d="M2554.1,2944.7c0,0-0.8,53.4-14.4,45.7c0,0,2.8,11.4,6.2,11.5l8.4,0.1
	C2554.3,3002.1,2558,2947.2,2554.1,2944.7z"/>
<g>
	<path fill="#987C53" d="M2564.1,2857.8c0,0,0.2,0.5,0.7,1.5c0.4,0.9,1,2.3,1.6,3.9c0.7,1.6,1.4,3.5,2.2,5.5c0.8,2,1.6,4.2,2.5,6.4
		c0.8,2.2,1.6,4.3,2.3,6.4c0.7,2,1.4,4,1.9,5.6c0.6,1.6,1,3,1.3,4c0.3,1,0.5,1.5,0.5,1.5s-0.2-0.5-0.7-1.5c-0.4-0.9-1-2.3-1.6-3.9
		c-0.7-1.6-1.4-3.5-2.2-5.5c-0.8-2-1.6-4.2-2.4-6.4c-0.8-2.2-1.6-4.3-2.3-6.4c-0.7-2-1.4-4-1.9-5.6c-0.6-1.6-1-3-1.3-4
		C2564.2,2858.4,2564.1,2857.8,2564.1,2857.8z"/>
</g>
<g>
	<path fill="#987C53" d="M2563.2,2875.3c0,0,0.2,0.5,0.7,1.5c0.4,0.9,1,2.3,1.6,3.9c0.7,1.6,1.4,3.5,2.2,5.5c0.8,2,1.6,4.2,2.5,6.4
		c0.8,2.2,1.6,4.3,2.3,6.4c0.7,2,1.4,4,1.9,5.6c0.6,1.6,1,3,1.3,4c0.3,1,0.5,1.5,0.5,1.5s-0.2-0.5-0.7-1.5c-0.4-0.9-1-2.3-1.6-3.9
		c-0.7-1.6-1.4-3.5-2.2-5.5c-0.8-2-1.6-4.2-2.4-6.4c-0.8-2.2-1.6-4.3-2.3-6.4c-0.7-2-1.4-4-1.9-5.6c-0.6-1.6-1-3-1.3-4
		C2563.3,2875.8,2563.2,2875.3,2563.2,2875.3z"/>
</g>
<g>
	<path fill="#987C53" d="M2563.4,2895.9c0,0,0.2,0.5,0.7,1.5c0.4,0.9,1,2.3,1.6,3.9c0.7,1.6,1.4,3.5,2.2,5.5c0.8,2,1.6,4.2,2.5,6.4
		c0.8,2.2,1.6,4.3,2.3,6.4c0.7,2,1.4,4,1.9,5.6c0.6,1.6,1,3,1.3,4c0.3,1,0.5,1.5,0.5,1.5s-0.2-0.5-0.7-1.5c-0.4-0.9-1-2.3-1.6-3.9
		c-0.7-1.6-1.4-3.5-2.2-5.5c-0.8-2-1.6-4.2-2.4-6.4c-0.8-2.2-1.6-4.3-2.3-6.4c-0.7-2-1.4-4-1.9-5.6c-0.6-1.6-1-3-1.3-4
		C2563.5,2896.5,2563.4,2895.9,2563.4,2895.9z"/>
</g>
<g>
	<path fill="#987C53" d="M2563.6,2915.7c0,0,0.2,0.5,0.7,1.5c0.4,0.9,1,2.3,1.6,3.9c0.7,1.6,1.4,3.5,2.2,5.5c0.8,2,1.6,4.2,2.5,6.4
		c0.8,2.2,1.6,4.3,2.3,6.4c0.7,2,1.4,4,1.9,5.6c0.6,1.6,1,3,1.3,4c0.3,1,0.5,1.5,0.5,1.5s-0.2-0.5-0.7-1.5c-0.4-0.9-1-2.3-1.6-3.9
		c-0.7-1.6-1.4-3.5-2.2-5.5c-0.8-2-1.6-4.2-2.4-6.4c-0.8-2.2-1.6-4.3-2.3-6.4c-0.7-2-1.4-4-1.9-5.6c-0.6-1.6-1-3-1.3-4
		C2563.7,2916.3,2563.6,2915.7,2563.6,2915.7z"/>
</g>
<g>
	<path fill="#987C53" d="M2563.8,2936.7c0,0,0.2,0.5,0.7,1.5c0.4,0.9,1,2.3,1.6,3.9c0.7,1.6,1.4,3.5,2.2,5.5c0.8,2,1.6,4.2,2.5,6.4
		c0.8,2.2,1.6,4.3,2.3,6.4c0.7,2,1.4,4,1.9,5.6c0.6,1.6,1,3,1.3,4c0.3,1,0.5,1.5,0.5,1.5s-0.2-0.5-0.7-1.5c-0.4-0.9-1-2.3-1.6-3.9
		c-0.7-1.6-1.4-3.5-2.2-5.5c-0.8-2-1.6-4.2-2.4-6.4c-0.8-2.2-1.6-4.3-2.3-6.4c-0.7-2-1.4-4-1.9-5.6c-0.6-1.6-1-3-1.3-4
		C2564,2937.2,2563.8,2936.7,2563.8,2936.7z"/>
</g>
<g>
	<path fill="#987C53" d="M2561.7,2954.1c0,0,0.2,0.5,0.7,1.5c0.4,0.9,1,2.3,1.6,3.9c0.7,1.6,1.4,3.5,2.2,5.5c0.8,2,1.6,4.2,2.5,6.4
		c0.8,2.2,1.6,4.3,2.3,6.4c0.7,2,1.4,4,1.9,5.6c0.6,1.6,1,3,1.3,4c0.3,1,0.5,1.5,0.5,1.5s-0.2-0.5-0.7-1.5c-0.4-0.9-1-2.3-1.6-3.9
		c-0.7-1.6-1.4-3.5-2.2-5.5c-0.8-2-1.6-4.2-2.4-6.4c-0.8-2.2-1.6-4.3-2.3-6.4c-0.7-2-1.4-4-1.9-5.6c-0.6-1.6-1-3-1.3-4
		C2561.9,2954.7,2561.7,2954.1,2561.7,2954.1z"/>
</g>
<g>
	<path fill="#987C53" d="M2545.2,2858.1c0,0-0.2,0.6-0.4,1.5c-0.3,1-0.7,2.4-1.2,4c-0.5,1.7-1.1,3.6-1.8,5.7
		c-0.7,2.1-1.4,4.3-2.2,6.4c-0.8,2.2-1.6,4.4-2.3,6.4c-0.8,2-1.5,3.9-2.1,5.6c-0.6,1.6-1.2,3-1.6,3.9c-0.4,0.9-0.6,1.5-0.6,1.5
		s0.2-0.6,0.4-1.5c0.3-1,0.7-2.4,1.2-4c0.5-1.7,1.1-3.6,1.8-5.7c0.7-2.1,1.4-4.3,2.2-6.4c0.8-2.2,1.6-4.4,2.3-6.4
		c0.8-2,1.5-3.9,2.1-5.6c0.6-1.6,1.2-3,1.6-3.9C2544.9,2858.6,2545.2,2858.1,2545.2,2858.1z"/>
</g>
<g>
	<path fill="#987C53" d="M2546.4,2875.5c0,0-0.2,0.6-0.4,1.5c-0.3,1-0.7,2.4-1.2,4c-0.5,1.7-1.1,3.6-1.8,5.7
		c-0.7,2.1-1.4,4.3-2.2,6.4c-0.8,2.2-1.6,4.4-2.3,6.4c-0.8,2-1.5,3.9-2.1,5.6c-0.6,1.6-1.2,3-1.6,3.9c-0.4,0.9-0.6,1.5-0.6,1.5
		s0.2-0.6,0.4-1.5c0.3-1,0.7-2.4,1.2-4c0.5-1.7,1.1-3.6,1.8-5.7c0.7-2.1,1.4-4.3,2.2-6.4c0.8-2.2,1.6-4.4,2.3-6.4
		c0.8-2,1.5-3.9,2.1-5.6c0.6-1.6,1.2-3,1.6-3.9C2546.2,2876,2546.4,2875.5,2546.4,2875.5z"/>
</g>
<g>
	<path fill="#987C53" d="M2546.6,2896.1c0,0-0.2,0.6-0.4,1.5c-0.3,1-0.7,2.4-1.2,4c-0.5,1.7-1.1,3.6-1.8,5.7
		c-0.7,2.1-1.4,4.3-2.2,6.4c-0.8,2.2-1.6,4.4-2.3,6.4c-0.8,2-1.5,3.9-2.1,5.6c-0.6,1.6-1.2,3-1.6,3.9c-0.4,0.9-0.6,1.5-0.6,1.5
		s0.2-0.6,0.4-1.5c0.3-1,0.7-2.4,1.2-4c0.5-1.7,1.1-3.6,1.8-5.7c0.7-2.1,1.4-4.3,2.2-6.4c0.8-2.2,1.6-4.4,2.3-6.4
		c0.8-2,1.5-3.9,2.1-5.6c0.6-1.6,1.2-3,1.6-3.9C2546.4,2896.6,2546.6,2896.1,2546.6,2896.1z"/>
</g>
<g>
	<path fill="#987C53" d="M2546.8,2915.9c0,0-0.2,0.6-0.4,1.5c-0.3,1-0.7,2.4-1.2,4c-0.5,1.7-1.1,3.6-1.8,5.7
		c-0.7,2.1-1.4,4.3-2.2,6.4c-0.8,2.2-1.6,4.4-2.3,6.4c-0.8,2-1.5,3.9-2.1,5.6c-0.6,1.6-1.2,3-1.6,3.9c-0.4,0.9-0.6,1.5-0.6,1.5
		s0.2-0.6,0.4-1.5c0.3-1,0.7-2.4,1.2-4c0.5-1.7,1.1-3.6,1.8-5.7c0.7-2.1,1.4-4.3,2.2-6.4c0.8-2.2,1.6-4.4,2.3-6.4
		c0.8-2,1.5-3.9,2.1-5.6c0.6-1.6,1.2-3,1.6-3.9C2546.6,2916.5,2546.8,2915.9,2546.8,2915.9z"/>
</g>
<g>
	<path fill="#987C53" d="M2547,2936.9c0,0-0.2,0.6-0.4,1.5c-0.3,1-0.7,2.4-1.2,4c-0.5,1.7-1.1,3.6-1.8,5.7c-0.7,2.1-1.4,4.3-2.2,6.4
		c-0.8,2.2-1.6,4.4-2.3,6.4c-0.8,2-1.5,3.9-2.1,5.6c-0.6,1.6-1.2,3-1.6,3.9c-0.4,0.9-0.6,1.5-0.6,1.5s0.2-0.6,0.4-1.5
		c0.3-1,0.7-2.4,1.2-4c0.5-1.7,1.1-3.6,1.8-5.7c0.7-2.1,1.4-4.3,2.2-6.4c0.8-2.2,1.6-4.4,2.3-6.4c0.8-2,1.5-3.9,2.1-5.6
		c0.6-1.6,1.2-3,1.6-3.9C2546.8,2937.4,2547,2936.9,2547,2936.9z"/>
</g>
<g>
	<path fill="#987C53" d="M2549.4,2954.3c0,0-0.2,0.6-0.4,1.5c-0.3,1-0.7,2.4-1.2,4c-0.5,1.7-1.1,3.6-1.8,5.7
		c-0.7,2.1-1.4,4.3-2.2,6.4c-0.8,2.2-1.6,4.4-2.3,6.4c-0.8,2-1.5,3.9-2.1,5.6c-0.6,1.6-1.2,3-1.6,3.9c-0.4,0.9-0.6,1.5-0.6,1.5
		s0.2-0.6,0.4-1.5c0.3-1,0.7-2.4,1.2-4c0.5-1.7,1.1-3.6,1.8-5.7c0.7-2.1,1.4-4.3,2.2-6.4c0.8-2.2,1.6-4.4,2.3-6.4
		c0.8-2,1.5-3.9,2.1-5.6c0.6-1.6,1.2-3,1.6-3.9C2549.2,2954.8,2549.4,2954.3,2549.4,2954.3z"/>
</g>
</svg>
