<?xml version="1.0" encoding="utf-8"?>
<!-- Generator: Adobe Illustrator 17.1.0, SVG Export Plug-In . SVG Version: 6.00 Build 0)  -->
<!DOCTYPE svg PUBLIC "-//W3C//DTD SVG 1.1//EN" "http://www.w3.org/Graphics/SVG/1.1/DTD/svg11.dtd">
<svg version="1.1" id="Layer_3" xmlns="http://www.w3.org/2000/svg" xmlns:xlink="http://www.w3.org/1999/xlink" x="0px" y="0px"
	 viewBox="0 0 5000 5000" enable-background="new 0 0 5000 5000" xml:space="preserve">
<path fill="#CEC8C4" d="M2731,2220L2731,2220l0.1-68.9l0.1,0c5,0,9.1,3.6,9,8l-0.2,53.1C2740.1,2216.5,2736,2220,2731,2220z"/>
<g>
	<g opacity="0.35">
		<path d="M2637.3,3050.4l-381.9-1.3c-44.4-0.1-80.2-36.2-80.1-80.6l3.1-940.7c0.1-44.4,36.2-80.2,80.6-80.1l377.9,1.2
			c44.4,0.1,80.2,36.2,80.1,80.6l-3.1,944.7C2713.8,3016.4,2679.5,3050.5,2637.3,3050.4z"/>
	</g>
	<g>
		<path fill="#E5B893" d="M2655.3,3042.4l-381.9-1.3c-44.4-0.1-80.2-36.2-80.1-80.6l3.1-940.7c0.1-44.4,36.2-80.2,80.6-80.1
			l377.9,1.2c44.4,0.1,80.2,36.2,80.1,80.6l-3.1,944.7C2731.8,3008.4,2697.5,3042.5,2655.3,3042.4z"/>
	</g>
</g>
<rect x="2196" y="2024.9" transform="matrix(1 3.294209e-003 -3.294209e-003 1 6.7112 -7.2436)" fill="#E0E0E2" width="12.4" height="17.6"/>
<rect x="2722.2" y="2026.6" transform="matrix(-1 -3.294136e-003 3.294136e-003 -1 5450.0859 4079.7544)" fill="#E0E0E2" width="12.4" height="17.6"/>
<rect x="2193" y="2932.1" transform="matrix(1 3.294209e-003 -3.294209e-003 1 9.6998 -7.2288)" fill="#E0E0E2" width="12.4" height="17.6"/>
<rect x="2719.2" y="2933.8" transform="matrix(-1 -3.294136e-003 3.294136e-003 -1 5441.1167 5894.1592)" fill="#E0E0E2" width="12.4" height="17.6"/>
<path fill="#EEEFF6" d="M2633.6,3031.6l-343.1-1.1c-63.8,2-91.4-42.1-89.2-91.5l3-905.5c-1.8-66.8,32.2-92,89.8-90.9l343.1,1.1
	c71.5,0,89.4,41.1,89.2,91.5l-3,905.5C2725.3,2992.4,2703.4,3031.7,2633.6,3031.6z"/>
<rect x="2235.2" y="2057.2" transform="matrix(1 3.294209e-003 -3.294209e-003 1 8.1772 -8.103)" fill="#2F3239" width="457.3" height="842"/>
<g>
	<polygon fill="#222428" points="2693.6,2804.8 2693.9,2898.5 2236.6,2900 2233.8,2058 2260.4,2057.9 	"/>
</g>
<circle fill="#D1D1D3" cx="2463.4" cy="2963" r="44"/>
<circle fill="#F5F5F7" cx="2463.4" cy="2963" r="40.6"/>
<circle fill="#DB9B63" cx="2463.4" cy="2963" r="38.3"/>
<circle fill="#EEEFF6" cx="2463.4" cy="2963" r="33.3"/>
<path fill="#2F3239" d="M2502.9,2000.7l-75-0.2c-2.4,0-4.3-1.2-4.3-2.7v-0.1c0-1.5,1.9-2.7,4.3-2.7l75,0.2c2.4,0,4.3,1.2,4.3,2.7
	l0,0.1C2507.2,1999.5,2505.3,2000.7,2502.9,2000.7z"/>
<circle fill="#2F3239" cx="2465.5" cy="1967.4" r="7.4"/>
<circle fill="#2F3239" cx="2403.5" cy="2003.1" r="2.7"/>
<g>
	<g opacity="0.35">
		<path d="M2177.3,2218.8L2177.3,2218.8l0.3-68.9l-0.1,0c-3.9,0-7,3.5-7,7.9l-0.2,53.1C2170.3,2215.3,2173.4,2218.8,2177.3,2218.8z"
			/>
	</g>
	<g>
		<path fill="#CEC8C4" d="M2195.3,2210.8L2195.3,2210.8l0.3-68.9l-0.1,0c-3.9,0-7,3.5-7,7.9l-0.2,53.1
			C2188.3,2207.3,2191.4,2210.8,2195.3,2210.8z"/>
	</g>
</g>
<g>
	<g opacity="0.35">
		<path d="M2177.1,2308.5L2177.1,2308.5l0.3-68.9l-0.1,0c-2.9,0-5.2,3.5-5.2,7.9l-0.2,53.1
			C2171.9,2304.9,2174.2,2308.5,2177.1,2308.5z"/>
	</g>
	<g>
		<path fill="#CEC8C4" d="M2195.1,2300.5L2195.1,2300.5l0.3-68.9l-0.1,0c-2.9,0-5.2,3.5-5.2,7.9l-0.2,53.1
			C2189.9,2296.9,2192.2,2300.5,2195.1,2300.5z"/>
	</g>
</g>
<g>
	<g opacity="0.35">
		<path d="M2177.5,2139.5L2177.5,2139.5l0.2-46.2h0c-2.2,0-4,2.4-4,5.3l-0.1,35.6C2173.5,2137.1,2175.3,2139.5,2177.5,2139.5z"/>
	</g>
	<g>
		<path fill="#CEC8C4" d="M2195.5,2131.5L2195.5,2131.5l0.2-46.2h0c-2.2,0-4,2.4-4,5.3l-0.1,35.6
			C2191.5,2129.1,2193.3,2131.5,2195.5,2131.5z"/>
	</g>
</g>
</svg>
