<?xml version="1.0" encoding="utf-8"?>
<!-- Generator: Adobe Illustrator 17.1.0, SVG Export Plug-In . SVG Version: 6.00 Build 0)  -->
<!DOCTYPE svg PUBLIC "-//W3C//DTD SVG 1.1//EN" "http://www.w3.org/Graphics/SVG/1.1/DTD/svg11.dtd">
<svg version="1.1" id="Layer_3" xmlns="http://www.w3.org/2000/svg" xmlns:xlink="http://www.w3.org/1999/xlink" x="0px" y="0px"
	 viewBox="0 0 5000 5000" enable-background="new 0 0 5000 5000" xml:space="preserve">
<path fill="#191937" d="M2739.6,2265.2L2739.6,2265.2l0.1-61.4l0.1,0c4.7,0,8.5,3.2,8.5,7.1l-0.1,47.3
	C2748.1,2262,2744.3,2265.2,2739.6,2265.2z"/>
<path fill="#4A4848" d="M2760.5,2259.1L2760.5,2259.1l0.1-61.4l0.1,0c4.5,0,8.2,3.2,8.2,7.1l-0.1,47.3
	C2768.7,2255.9,2765,2259.1,2760.5,2259.1z"/>
<g>
	<g opacity="0.35">
		<path d="M2259,2258.8L2259,2258.8l0.3-61.4l-0.1,0c-3.4,0-6.2,3.1-6.2,7l-0.2,47.3C2252.8,2255.7,2255.5,2258.8,2259,2258.8z"/>
	</g>
	<g>
		<path fill="#4A4848" d="M2277,2250.8L2277,2250.8l0.3-61.4l-0.1,0c-3.4,0-6.2,3.1-6.2,7l-0.2,47.3
			C2270.8,2247.7,2273.5,2250.8,2277,2250.8z"/>
	</g>
</g>
<g>
	<g opacity="0.35">
		<path d="M2258.7,2337.8L2258.7,2337.8l0.3-61.4l-0.1,0c-3.6,0-6.5,3.1-6.5,7l-0.2,47.3C2252.2,2334.6,2255.1,2337.8,2258.7,2337.8
			z"/>
	</g>
	<g>
		<path fill="#4A4848" d="M2276.7,2329.8L2276.7,2329.8l0.3-61.4l-0.1,0c-3.6,0-6.5,3.1-6.5,7l-0.2,47.3
			C2270.2,2326.6,2273.1,2329.8,2276.7,2329.8z"/>
	</g>
</g>
<g>
	<g opacity="0.35">
		<path d="M2258.9,2188.1L2258.9,2188.1l0.2-41.2l-0.1,0c-3.5,0-6.4,2.1-6.4,4.7l-0.1,31.7C2252.5,2186,2255.4,2188.1,2258.9,2188.1
			z"/>
	</g>
	<g>
		<path fill="#4A4848" d="M2276.9,2180.1L2276.9,2180.1l0.2-41.2l-0.1,0c-3.5,0-6.4,2.1-6.4,4.7l-0.1,31.7
			C2270.5,2178,2273.4,2180.1,2276.9,2180.1z"/>
	</g>
</g>
<g>
	<g opacity="0.35">
		<path d="M2673.9,2996.2l-345.3-1.2c-40.1-0.1-72.5-32.3-72.4-71.8l2.6-838.1c0.1-39.5,32.7-71.5,72.9-71.3l341.6,1.2
			c40.1,0.1,72.5,32.3,72.4,71.8l-2.7,841.7C2743,2966,2712,2996.3,2673.9,2996.2z"/>
	</g>
	<g>
		<path fill="#383838" d="M2691.9,2988.2l-345.3-1.2c-40.1-0.1-72.5-32.3-72.4-71.8l2.6-838.1c0.1-39.5,32.7-71.5,72.9-71.3
			l341.6,1.2c40.1,0.1,72.5,32.3,72.4,71.8l-2.7,841.7C2761,2958,2730,2988.3,2691.9,2988.2z"/>
	</g>
</g>
<polygon fill="#101010" points="2288,2100.8 2276.8,2100.8 2276.8,2085.1 2288.1,2085.2 "/>
<polygon fill="#101010" points="2752.4,2102.4 2763.7,2102.5 2763.7,2086.8 2752.5,2086.8 "/>
<polygon fill="#0D0D0D" points="2285.5,2909.1 2274.2,2909.1 2274.3,2893.4 2285.5,2893.4 "/>
<polygon fill="#0D0D0D" points="2749.9,2910.7 2761.1,2910.7 2761.2,2895.1 2749.9,2895 "/>
<path d="M2672.5,2982.1l-310.2-1.1c-57.7,1.7-82.6-37.5-80.7-81.5l2.5-806.7c-1.7-59.5,29.1-81.9,81.2-81l310.2,1.1
	c64.6,0,80.8,36.7,80.7,81.5l-2.5,806.7C2755.4,2947.3,2735.7,2982.3,2672.5,2982.1z"/>
<polygon fill="#191819" points="2724.5,2864.9 2311.1,2863.5 2313.5,2113.3 2726.9,2114.8 "/>
<polygon fill="#121212" points="2726.6,2780 2726.9,2863.5 2313.5,2864.9 2311.1,2114.8 2335.2,2114.7 "/>
<path fill="#3F4040" d="M2558.4,2921.1c-0.1,21.6-17.9,39.1-39.9,39c-22-0.1-39.7-17.7-39.6-39.3s17.9-39.1,39.9-39
	C2540.7,2881.9,2558.5,2899.5,2558.4,2921.1z"/>
<path fill="#191819" d="M2555.3,2921.1c-0.1,20-16.5,36.1-36.8,36c-20.3-0.1-36.6-16.3-36.6-36.3c0.1-20,16.5-36.1,36.8-36
	C2539,2884.9,2555.4,2901.2,2555.3,2921.1z"/>
<path d="M2553.3,2921.1c-0.1,18.9-15.6,34.1-34.8,34c-19.1-0.1-34.6-15.4-34.5-34.3c0.1-18.9,15.6-34.1,34.8-34
	C2537.9,2886.9,2553.4,2902.3,2553.3,2921.1z"/>
<path fill="#2F3239" d="M2554.2,2063.7l-67.8-0.2c-2.1,0-3.9-1.1-3.9-2.4l0,0c0-1.3,1.7-2.4,3.9-2.4l67.8,0.2c2.1,0,3.9,1.1,3.9,2.4
	l0,0C2558.1,2062.6,2556.4,2063.7,2554.2,2063.7z"/>
<ellipse transform="matrix(1 3.434856e-003 -3.434856e-003 1 7.0013 -8.6454)" fill="#0B0B0B" cx="2520.4" cy="2034" rx="6.7" ry="6.6"/>
<ellipse transform="matrix(1 3.434856e-003 -3.434856e-003 1 7.0943 -8.4444)" fill="#2F3239" cx="2462" cy="2061.1" rx="3.4" ry="3.3"/>
</svg>
