<?xml version="1.0" encoding="utf-8"?>
<!-- Generator: Adobe Illustrator 17.1.0, SVG Export Plug-In . SVG Version: 6.00 Build 0)  -->
<!DOCTYPE svg PUBLIC "-//W3C//DTD SVG 1.1//EN" "http://www.w3.org/Graphics/SVG/1.1/DTD/svg11.dtd">
<svg version="1.1" id="Layer_2" xmlns="http://www.w3.org/2000/svg" xmlns:xlink="http://www.w3.org/1999/xlink" x="0px" y="0px"
	 viewBox="0 0 5000 5000" enable-background="new 0 0 5000 5000" xml:space="preserve">
<g>
	<g opacity="0.4">
		<path fill="none" stroke="#000000" stroke-width="10" stroke-miterlimit="10" d="M2120.1,3019.9c-12.3,9.2-48-16.3-52.9-21.1
			c-54.1-52.3-259.4-164.7-259.4-164.7c-54.2-26-93.6-58.7-113.9-91.4c-39.4-63.6-48.7-141.2-27.5-212.9
			c14.8-49.8,37.4-91.3,49.5-114.4c3.4-6.4,7.6-12.4,10.8-19c44.9-92,58.6-153.7,58.6-153.7"/>
	</g>
	<g>
		<path fill="none" stroke="#000000" stroke-width="10" stroke-miterlimit="10" d="M2137.1,3016.9c-12.3,9.2-48-16.3-52.9-21.1
			c-54.1-52.3-259.4-164.7-259.4-164.7c-54.2-26-93.6-58.7-113.9-91.4c-39.4-63.6-48.7-141.2-27.5-212.9
			c14.8-49.8,37.4-91.3,49.5-114.4c3.4-6.4,7.6-12.4,10.8-19c44.9-92,58.6-153.7,58.6-153.7"/>
	</g>
</g>
<g>
	<g opacity="0.4">
		<path d="M1805.7,2245.9l-26-0.2c-3.6,0-6.5-3-6.4-6.7l0.5-68.9c0-3.7,3-6.7,6.5-6.6l26,0.2c3.6,0,6.5,3,6.4,6.7l-0.5,68.9
			C1812.2,2242.9,1809.3,2245.9,1805.7,2245.9z"/>
	</g>
	<g>
		<path d="M1817.7,2244.9l-26-0.2c-3.6,0-6.5-3-6.4-6.7l0.5-68.9c0-3.7,3-6.7,6.5-6.6l26,0.2c3.6,0,6.5,3,6.4,6.7l-0.5,68.9
			C1824.2,2241.9,1821.3,2244.9,1817.7,2244.9z"/>
	</g>
</g>
<g>
	<g opacity="0.4">
		<path d="M1816.7,1958.2l-48.1-0.4c-2.7,0-4.9-2.2-4.9-4.9l0.4-52.6c0-2.7,2.3-4.8,5-4.8l48.1,0.4c2.7,0,4.9,2.2,4.9,4.9l-0.4,52.6
			C1821.7,1956.1,1819.4,1958.3,1816.7,1958.2z"/>
	</g>
	<g>
		<path d="M1828.7,1957.2l-48.1-0.4c-2.7,0-4.9-2.2-4.9-4.9l0.4-52.6c0-2.7,2.3-4.8,5-4.8l48.1,0.4c2.7,0,4.9,2.2,4.9,4.9l-0.4,52.6
			C1833.7,1955.1,1831.4,1957.3,1828.7,1957.2z"/>
	</g>
</g>
<g>
	<g opacity="0.4">
		<path d="M1818.7,2177.7l-56.8,0.4c-4.7,0-8.6-4.4-8.6-10l-1.4-196.1c0-5.5,3.8-10,8.5-10.1l56.8-0.4c4.7,0,8.6,4.4,8.6,10
			l1.4,196.1C1827.3,2173.1,1823.5,2177.7,1818.7,2177.7z"/>
	</g>
	<g>
		<path d="M1830.7,2176.7l-56.8,0.4c-4.7,0-8.6-4.4-8.6-10l-1.4-196.1c0-5.5,3.8-10,8.5-10.1l56.8-0.4c4.7,0,8.6,4.4,8.6,10
			l1.4,196.1C1839.3,2172.1,1835.5,2176.7,1830.7,2176.7z"/>
	</g>
</g>
<g>
	<g opacity="0.4">
		<path d="M2695.3,3059.3l-127.1-0.9l0-5.7l-9.2-0.1l-0.4,5.7l-225.3-1.6l0.1-5.4l-9.6-0.1l0,5.4l-134.1-1
			c-57.2-0.4-103.2-47.6-102.8-105.4l1.7-233.9l6-0.3l0.1-11.8l-6,0l1.6-221.8l6,0l-0.3-13.3l-5.7,0l1.6-225.1l4.6,0l-0.1-9.9
			l-4.4-0.2l1.7-235.5c0.3-40,30.9-83.4,64.6-91.5c7-1.7,14.1-2.4,20.6,0.6c3.2,1.5,7,3.3,10.3,5l11,5c2.5,1.9,5.6,3,8.8,3
			l485.9,3.6c5.2,0,10.3-1.4,14.7-4.1l12.4-7.7c16.7-12.1,40.2,6.2,40.2,6.2c19.9,15.6,27.4,21.5,35.6,34.4
			c11,17.4,17.9,37.3,17.8,57.9l-1.7,227.6l-3.7,0l-0.1,10.1l4.3,0.1l-2.2,227.3l-5.8,0l-0.3,12.6l6-0.1l-1.6,224l-5.8,0l-0.1,12.2
			l5.8,0l-1.6,221.1C2808.7,3008.7,2757.8,3059.8,2695.3,3059.3z"/>
	</g>
	<g>
		<path d="M2720.3,3049.3l-127.1-0.9l0-5.7l-9.2-0.1l-0.4,5.7l-225.3-1.6l0.1-5.4l-9.6-0.1l0,5.4l-134.1-1
			c-57.2-0.4-103.2-47.6-102.8-105.4l1.7-233.9l6-0.3l0.1-11.8l-6,0l1.6-221.8l6,0l-0.3-13.3l-5.7,0l1.6-225.1l4.6,0l-0.1-9.9
			l-4.4-0.2l1.7-235.5c0.3-40,30.9-83.4,64.6-91.5c7-1.7,14.1-2.4,20.6,0.6c3.2,1.5,7,3.3,10.3,5l11,5c2.5,1.9,5.6,3,8.8,3
			l485.9,3.6c5.2,0,10.3-1.4,14.7-4.1l12.4-7.7c16.7-12.1,40.2,6.2,40.2,6.2c19.9,15.6,27.4,21.5,35.6,34.4
			c11,17.4,17.9,37.3,17.8,57.9l-1.7,227.6l-3.7,0l-0.1,10.1l4.3,0.1l-2.2,227.3l-5.8,0l-0.3,12.6l6-0.1l-1.6,224l-5.8,0l-0.1,12.2
			l5.8,0l-1.6,221.1C2833.7,2998.7,2782.8,3049.8,2720.3,3049.3z"/>
	</g>
</g>
<path fill="none" stroke="#E86638" stroke-width="20" stroke-miterlimit="10" d="M2167.8,3032.6c-23.7,5.7-52.3-11.7-68-23.4
	c-5.5-4.1-10.6-8.6-15.5-13.3c-54.1-52.3-268.2-169.6-268.2-169.6c-54.2-26-84.9-59-105.1-91.7c-39.4-63.6-48.7-141.2-27.5-212.9
	c14.8-49.8,37.4-91.3,49.5-114.4c3.4-6.4,7-12.8,10.8-19c40-64.8,61.5-160.3,61.5-160.3"/>
<path fill="#EF622D" d="M1817.1,2249l-28.2-0.2c-3.9,0-7-3.2-7-7.1l0.5-72.6c0-3.9,3.2-7,7.1-7l28.2,0.2c3.9,0,7,3.2,7,7.1
	l-0.5,72.6C1824.2,2245.9,1821,2249,1817.1,2249z"/>
<rect x="1793.9" y="2162.2" transform="matrix(1 7.323172e-003 -7.323172e-003 1 16.1998 -13.1472)" fill="#F96E4E" width="19" height="86.7"/>
<path fill="#C3C2BD" d="M1830.9,1960.8l-52.6-0.4c-3,0-5.4-2.5-5.4-5.5l0.4-58.5c0-3,2.5-5.4,5.5-5.4l52.6,0.4c3,0,5.4,2.5,5.4,5.5
	l-0.4,58.5C1836.3,1958.4,1833.9,1960.8,1830.9,1960.8z"/>
<rect x="1778.6" y="1891.2" transform="matrix(1 7.323172e-003 -7.323172e-003 1 14.1522 -13.1658)" fill="#F7F5F4" width="52.6" height="69.4"/>
<path fill="#EF622D" d="M1838.1,2178.4l-68.3,0.1c-5.7,0-10.3-4.6-10.3-10.3l-0.3-201.6c0-5.7,4.6-10.3,10.3-10.3l68.3-0.1
	c5.7,0,10.3,4.6,10.3,10.3l0.3,201.6C1848.4,2173.8,1843.8,2178.4,1838.1,2178.4z"/>
<rect x="1769.7" y="1960.6" transform="matrix(1 7.323172e-003 -7.323172e-003 1 15.1839 -13.1544)" fill="#F96E4E" width="68.3" height="212.4"/>
<path fill="#EF5D23" d="M2724.1,3055.6l-129.3-0.9l0-5.8l-9.4-0.1l-0.4,5.8l-229.1-1.7l0.1-5.4l-9.8-0.1l0,5.4l-136.4-1
	c-58.2-0.4-105-47.9-104.5-106.1l1.7-235.4l6.1-0.3l0.1-11.9l-6.1,0l1.6-223.2l6.1,0l-0.3-13.4l-5.8,0l1.7-226.5l4.7,0l-0.1-9.9
	l-4.5-0.2l1.7-237c0.3-40.3,31.5-83.9,65.6-92c7.1-1.7,14.4-2.5,21,0.6c3.3,1.5,7.1,3.3,10.5,5.1l11.1,5c2.6,2,5.7,3,9,3.1
	l494.1,3.6c5.3,0,10.5-1.4,15-4.2l12.6-7.7c17-12.2,40.9,6.2,40.9,6.2c20.2,15.7,27.9,21.6,36.2,34.6c11.2,17.5,18.2,37.5,18.1,58.3
	l-1.7,229l-3.8,0l-0.1,10.1l4.3,0.1l-2.3,228.8l-5.9,0l-0.3,12.6l6.1-0.1l-1.7,225.4l-5.9,0l-0.1,12.3l5.9,0l-1.6,222.5
	C2839.5,3004.8,2787.7,3056.1,2724.1,3055.6z"/>
<path opacity="0.11" fill="#B52B00" d="M2703.7,2930.2l-455.1-3.3c-30.5-0.2-55.1-25.1-54.9-55.7l5.8-788.4
	c0.2-30.5,25.1-55.1,55.7-54.9l455.1,3.3c30.5,0.2,55.1,25.1,54.9,55.7l-5.8,788.4C2759.1,2905.9,2734.2,2930.4,2703.7,2930.2z"/>
<path fill="#C6C6C6" d="M2674.1,2897l-401.9-2.9c-20.1-0.1-36.3-17-36.1-37.7l5.6-767.4c0.2-20.7,16.6-37.3,36.7-37.1l401.9,2.9
	c20.1,0.1,36.3,17,36.1,37.7l-5.6,767.4C2710.6,2880.6,2694.2,2897.2,2674.1,2897z"/>
<ellipse transform="matrix(1 7.323172e-003 -7.323172e-003 1 18.1876 -18.0676)" fill="#A7A7A7" cx="2476.2" cy="2474.5" rx="92.7" ry="34.3"/>
<rect x="2115.1" y="2225.6" transform="matrix(1 7.323172e-003 -7.323172e-003 1 16.3967 -15.8893)" fill="#DD4F1D" width="125.5" height="10.9"/>
<rect x="2114.7" y="2462.1" transform="matrix(1 7.323172e-003 -7.323172e-003 1 18.1381 -15.8748)" fill="#DD4F1D" width="124.2" height="13.6"/>
<rect x="2113.3" y="2698.7" transform="matrix(1 7.323172e-003 -7.323172e-003 1 19.8668 -15.8571)" fill="#DD4F1D" width="123.9" height="12.5"/>
<rect x="2347" y="2894.7" transform="matrix(1 7.323172e-003 -7.323172e-003 1 21.8209 -17.1429)" fill="#DD4F1D" width="9.6" height="152.8"/>
<rect x="2586" y="2896.4" transform="matrix(1 7.323172e-003 -7.323172e-003 1 21.8387 -18.8912)" fill="#DD4F1D" width="9" height="152.4"/>
<rect x="2711.9" y="2705.9" transform="matrix(-1 -7.323112e-003 7.323112e-003 -1 5527.3662 5443.8809)" fill="#DD4F1D" width="123.5" height="11.8"/>
<rect x="2713.6" y="2468.1" transform="matrix(-1 -7.323112e-003 7.323112e-003 -1 5532.5801 4969.2241)" fill="#DD4F1D" width="123.5" height="12.8"/>
<rect x="2715.4" y="2229.1" transform="matrix(-1 -7.323112e-003 7.323112e-003 -1 5540.0273 4488.6299)" fill="#DD4F1D" width="125.7" height="10.1"/>
<rect x="2350.2" y="1910.3" transform="matrix(1 7.323172e-003 -7.323172e-003 1 14.5736 -17.201)" fill="#DD4F1D" width="11.9" height="142.2"/>
<rect x="2596.8" y="1912.2" transform="matrix(1 7.323172e-003 -7.323172e-003 1 14.5934 -19.0105)" fill="#DD4F1D" width="12.7" height="142.2"/>
</svg>
