<?xml version="1.0" encoding="utf-8"?>
<!-- Generator: Adobe Illustrator 17.1.0, SVG Export Plug-In . SVG Version: 6.00 Build 0)  -->
<!DOCTYPE svg PUBLIC "-//W3C//DTD SVG 1.1//EN" "http://www.w3.org/Graphics/SVG/1.1/DTD/svg11.dtd">
<svg version="1.1" id="Layer_2" xmlns="http://www.w3.org/2000/svg" xmlns:xlink="http://www.w3.org/1999/xlink" x="0px" y="0px"
	 viewBox="0 0 5000 5000" enable-background="new 0 0 5000 5000" xml:space="preserve">
<path fill="none" stroke="#E86638" stroke-width="20" stroke-miterlimit="10" d="M2283,2996.1c-23.7,5.7-52.3-11.7-68-23.4
	c-5.5-4.1-10.6-8.6-15.5-13.3c-54.1-52.3-268.2-169.6-268.2-169.6c-54.2-26-84.9-59-105.1-91.7c-39.4-63.6-48.7-141.2-27.5-212.9
	c14.8-49.8,37.4-91.3,49.5-114.4c3.4-6.4,7-12.8,10.8-19c40-64.8,61.5-160.3,61.5-160.3"/>
<path fill="#EF622D" d="M1932.4,2212.4l-28.2-0.2c-3.9,0-7-3.2-7-7.1l0.5-72.6c0-3.9,3.2-7,7.1-7l28.2,0.2c3.9,0,7,3.2,7,7.1
	l-0.5,72.6C1939.4,2209.3,1936.3,2212.5,1932.4,2212.4z"/>
<rect x="1909.1" y="2125.6" transform="matrix(1 7.323172e-003 -7.323172e-003 1 15.9352 -13.992)" fill="#F96E4E" width="19" height="86.7"/>
<path fill="#C3C2BD" d="M1946.1,1924.2l-52.6-0.4c-3,0-5.4-2.5-5.4-5.5l0.4-58.5c0-3,2.5-5.4,5.5-5.4l52.6,0.4c3,0,5.4,2.5,5.4,5.5
	l-0.4,58.5C1951.6,1921.9,1949.1,1924.3,1946.1,1924.2z"/>
<rect x="1893.8" y="1854.7" transform="matrix(1 7.323172e-003 -7.323172e-003 1 13.8877 -14.0105)" fill="#F7F5F4" width="52.6" height="69.4"/>
<path fill="#EF622D" d="M1952.4,2142.1l-68.3-0.5c-5.7,0-10.3-4.7-10.2-10.4l1.5-201.6c0-5.7,4.7-10.3,10.4-10.2l68.3,0.5
	c5.7,0,10.3,4.7,10.2,10.4l-1.5,201.6C1962.7,2137.6,1958.1,2142.2,1952.4,2142.1z"/>
<rect x="1884.9" y="1924" transform="matrix(1 7.323172e-003 -7.323172e-003 1 14.9194 -13.9992)" fill="#F96E4E" width="68.3" height="212.4"/>
<path fill="#EF5D23" d="M2839.3,3019.1l-129.3-0.9l0-5.8l-9.4-0.1l-0.4,5.8l-229.1-1.7l0.1-5.4l-9.8-0.1l0,5.4l-136.4-1
	c-58.2-0.4-105-47.9-104.5-106.1l1.7-235.4l6.1-0.3l0.1-11.9l-6.1,0l1.6-223.2l6.1,0l-0.3-13.4l-5.8,0l1.7-226.5l4.7,0l-0.1-9.9
	l-4.5-0.2l1.7-237c0.3-40.3,31.5-83.9,65.6-92c7.1-1.7,14.4-2.5,21,0.6c3.3,1.5,7.1,3.3,10.5,5.1l11.1,5c2.6,2,5.7,3,9,3.1
	l494.1,3.6c5.3,0,10.5-1.4,15-4.2l12.6-7.7c17-12.2,40.9,6.2,40.9,6.2c20.2,15.7,27.9,21.6,36.2,34.6c11.2,17.5,18.2,37.5,18.1,58.3
	l-1.7,229l-3.8,0l-0.1,10.1l4.3,0.1l-2.3,228.8l-5.9,0l-0.3,12.6l6.1-0.1l-1.7,225.4l-5.9,0l-0.1,12.3l5.9,0l-1.6,222.5
	C2954.7,2968.2,2902.9,3019.6,2839.3,3019.1z"/>
<path opacity="0.11" fill="#B52B00" d="M2818.9,2893.7l-455.1-3.3c-30.5-0.2-55.1-25.1-54.9-55.7l5.8-788.4
	c0.2-30.5,25.1-55.1,55.7-54.9l455.1,3.3c30.5,0.2,55.1,25.1,54.9,55.7l-5.8,788.4C2874.3,2869.3,2849.4,2893.9,2818.9,2893.7z"/>
<path fill="#C6C6C6" d="M2789.4,2860.5l-401.9-2.9c-20.1-0.1-36.3-17-36.1-37.7l5.6-767.4c0.2-20.7,16.6-37.3,36.7-37.1l401.9,2.9
	c20.1,0.1,36.3,17,36.1,37.7l-5.6,767.4C2825.9,2844,2809.5,2860.6,2789.4,2860.5z"/>
<ellipse transform="matrix(1 7.323172e-003 -7.323172e-003 1 17.923 -18.9124)" fill="#A7A7A7" cx="2591.5" cy="2437.9" rx="92.7" ry="34.3"/>
<rect x="2230.4" y="2189.1" transform="matrix(1 7.323172e-003 -7.323172e-003 1 16.1321 -16.7341)" fill="#DD4F1D" width="125.5" height="10.9"/>
<rect x="2229.9" y="2425.5" transform="matrix(1 7.323172e-003 -7.323172e-003 1 17.8735 -16.7196)" fill="#DD4F1D" width="124.2" height="13.6"/>
<rect x="2228.5" y="2662.1" transform="matrix(1 7.323172e-003 -7.323172e-003 1 19.6023 -16.7019)" fill="#DD4F1D" width="123.9" height="12.5"/>
<rect x="2462.2" y="2858.1" transform="matrix(1 7.323172e-003 -7.323172e-003 1 21.5563 -17.9877)" fill="#DD4F1D" width="9.6" height="152.8"/>
<rect x="2701.3" y="2859.9" transform="matrix(1 7.323172e-003 -7.323172e-003 1 21.5742 -19.7359)" fill="#DD4F1D" width="9" height="152.4"/>
<rect x="2827.1" y="2669.4" transform="matrix(-1 -7.323112e-003 7.323112e-003 -1 5758.0703 5371.624)" fill="#DD4F1D" width="123.5" height="11.8"/>
<rect x="2828.8" y="2431.5" transform="matrix(-1 -7.323112e-003 7.323112e-003 -1 5763.2852 4896.9668)" fill="#DD4F1D" width="123.5" height="12.8"/>
<rect x="2830.6" y="2192.6" transform="matrix(-1 -7.323112e-003 7.323112e-003 -1 5770.7319 4416.3735)" fill="#DD4F1D" width="125.7" height="10.1"/>
<rect x="2465.4" y="1873.8" transform="matrix(1 7.323172e-003 -7.323172e-003 1 14.309 -18.0458)" fill="#DD4F1D" width="11.9" height="142.2"/>
<rect x="2712.1" y="1875.6" transform="matrix(1 7.323172e-003 -7.323172e-003 1 14.3289 -19.8552)" fill="#DD4F1D" width="12.7" height="142.2"/>
</svg>
