<?xml version="1.0" encoding="utf-8"?>
<!-- Generator: Adobe Illustrator 17.1.0, SVG Export Plug-In . SVG Version: 6.00 Build 0)  -->
<!DOCTYPE svg PUBLIC "-//W3C//DTD SVG 1.1//EN" "http://www.w3.org/Graphics/SVG/1.1/DTD/svg11.dtd">
<svg version="1.1" id="Layer_2" xmlns="http://www.w3.org/2000/svg" xmlns:xlink="http://www.w3.org/1999/xlink" x="0px" y="0px"
	 viewBox="0 0 5000 5000" enable-background="new 0 0 5000 5000" xml:space="preserve">
<g>
	<g opacity="0.35">
		<path d="M3239.6,2446.9v226.6c0,9.1-7.5,16.5-16.8,16.5h-740.8c-9.3,0-16.8-7.4-16.8-16.5v-226.6c0-9.1,7.5-16.5,16.8-16.5h740.8
			C3232.1,2430.4,3239.6,2437.8,3239.6,2446.9z"/>
	</g>
	<g>
		<path d="M3251.6,2440.9v226.6c0,9.1-7.5,16.5-16.8,16.5h-740.8c-9.3,0-16.8-7.4-16.8-16.5v-226.6c0-9.1,7.5-16.5,16.8-16.5h740.8
			C3244.1,2424.4,3251.6,2431.8,3251.6,2440.9z"/>
	</g>
</g>
<g>
	<g opacity="0.35">
		<path d="M2465.1,2666.4l-41-44.1c-3.9-4.1-8.9-7.1-14.5-8.6l-78.2-21c-10.3-2.8-20.9-4.2-31.5-4.2h-33.2c-5.3,0-9.6-4.1-9.6-9.2
			v-56.2c0-3.8,3.2-6.9,7.2-6.9h35.6c8.3,0,16.6-1,24.7-2.9l86.9-20.9c3.7-0.9,7-2.8,9.5-5.4l47.1-49.5v228.9"/>
	</g>
	<g>
		<path d="M2477.1,2660.4l-41-44.1c-3.9-4.1-8.9-7.1-14.5-8.6l-78.2-21c-10.3-2.8-20.9-4.2-31.5-4.2h-33.2c-5.3,0-9.6-4.1-9.6-9.2
			v-56.2c0-3.8,3.2-6.9,7.2-6.9h35.6c8.3,0,16.6-1,24.7-2.9l86.9-20.9c3.7-0.9,7-2.8,9.5-5.4l47.1-49.5v228.9"/>
	</g>
</g>
<g>
	<g opacity="0.35">
		<path d="M2257,2571.1h-42c-2.9,0-5.7-1.4-7.2-3.6l-18.9-28.2c-1.3-1.9-0.1-4.4,2.4-4.9l20-3.9c0.8-0.2,1.6-0.2,2.4-0.2h43.2
			V2571.1z"/>
	</g>
	<g>
		<path d="M2269,2565.1h-42c-2.9,0-5.7-1.4-7.2-3.6l-18.9-28.2c-1.3-1.9-0.1-4.4,2.4-4.9l20-3.9c0.8-0.2,1.6-0.2,2.4-0.2h43.2
			V2565.1z"/>
	</g>
</g>
<g>
	<g opacity="0.35">
		<path d="M3239.6,2673.1h61.1c3.8,0,7.2-2.3,8.6-5.7l29-72.2c0,0,8.4-27.2,0-62.6l-18.2-71c-2.2-8.5-9.9-14.5-18.8-14.6l-61.6-0.7
			V2673.1z"/>
	</g>
	<g>
		<path d="M3251.6,2667.1h61.1c3.8,0,7.2-2.3,8.6-5.7l29-72.2c0,0,8.4-27.2,0-62.6l-18.2-71c-2.2-8.5-9.9-14.5-18.8-14.6l-61.6-0.7
			V2667.1z"/>
	</g>
</g>
<g>
	<g opacity="0.35">
		<path d="M1982.2,2662.7v29.2l-311-5.7c-3.2-0.1-6.1-1.6-7.9-4.2l-6.8-9.6c-4-5.6-6.2-12.2-6.5-19.1c-0.3-7.4-1.9-18.8-7.4-33.4
			c-1.7-4.5-2.9-9.1-3.5-13.8c-2.6-22.4-8.7-87.5,6.9-112.5l3.8-29.3c0.5-3.9,3.9-6.9,7.9-6.9h0.1l4-11.2c1.9-5.2,6.8-8.6,12.4-8.6
			h307.9v75.8l108.6,1.1c2.4,0,4.7,1.4,5.8,3.5c2,3.7,5.3,10.3,8.6,18.8c10.5,26.8,12.3,56.1,6,84.1c-3.1,13.7-7.6,29.7-13.2,38
			c-1.7,2.5-4.5,3.9-7.5,3.9H1982.2z"/>
	</g>
	<g>
		<path d="M1994.2,2656.7v29.2l-311-5.7c-3.2-0.1-6.1-1.6-7.9-4.2l-6.8-9.6c-4-5.6-6.2-12.2-6.5-19.1c-0.3-7.4-1.9-18.8-7.4-33.4
			c-1.7-4.5-2.9-9.1-3.5-13.8c-2.6-22.4-8.7-87.5,6.9-112.5l3.8-29.3c0.5-3.9,3.9-6.9,7.9-6.9h0.1l4-11.2c1.9-5.2,6.8-8.6,12.4-8.6
			h307.9v75.8l108.6,1.1c2.4,0,4.7,1.4,5.8,3.5c2,3.7,5.3,10.3,8.6,18.8c10.5,26.8,12.3,56.1,6,84.1c-3.1,13.7-7.6,29.7-13.2,38
			c-1.7,2.5-4.5,3.9-7.5,3.9H1994.2z"/>
	</g>
</g>
<path fill="#4E5151" d="M3251.6,2436.2v230.9c0,9.3-7.5,16.8-16.8,16.8h-740.8c-9.3,0-16.8-7.5-16.8-16.8v-230.9
	c0-9.3,7.5-16.8,16.8-16.8h740.8C3244.1,2419.4,3251.6,2426.9,3251.6,2436.2z"/>
<path fill="#5B5E5E" d="M2477.1,2667.1l-41-46.3c-3.9-4.3-8.9-7.5-14.5-9.1l-78.2-22.1c-10.3-2.9-20.9-4.4-31.5-4.4h-33.2
	c-5.3,0-9.6-4.3-9.6-9.6v-58.9c0-4,3.2-7.2,7.2-7.2h35.6c8.3,0,16.6-1,24.7-3.1l86.9-22c3.7-0.9,7-2.9,9.5-5.7l47.1-52v240.3"/>
<g>
	<g>
		<line fill="#4F5151" x1="2479.9" y1="2483.4" x2="2479.9" y2="2470.3"/>
	</g>
</g>
<path fill="#81C6B9" d="M2269,2569.7h-44.3c-3.1,0-6-1.6-7.6-4.3l-19.9-33.2c-1.4-2.3-0.1-5.2,2.5-5.8l21.1-4.6
	c0.8-0.2,1.7-0.3,2.6-0.3h45.6V2569.7z"/>
<path fill="#92D6C9" d="M2269,2567.1h-42c-2.9,0-5.7-1.4-7.2-3.8l-18.9-29.5c-1.3-2-0.1-4.6,2.4-5.1l20-4.1c0.8-0.2,1.6-0.2,2.4-0.2
	h43.2V2567.1z"/>
<path fill="#92D6C9" d="M3251.6,2667.1h61.1c3.8,0,7.2-2.3,8.6-5.9l29-73.5c0,0,8.4-27.7,0-63.7l-18.2-72.3
	c-2.2-8.7-9.9-14.8-18.8-14.9l-61.6-0.7V2667.1z"/>
<g>
	<g>
		<line fill="#404242" x1="2477.1" y1="2487.9" x2="2477.1" y2="2454.2"/>
		<line fill="#404242" x1="3251.6" y1="2487.9" x2="3251.6" y2="2642.4"/>
		<g>
			<path fill="#383838" d="M2477,2667.1c0,9.3,7.5,16.8,16.8,16.8h740.9c9.3,0,16.8-7.5,16.8-16.8v-24.7H2477V2667.1z"/>
		</g>
		<g>
			<rect x="2477.1" y="2454.2" fill="#404242" width="774.5" height="33.7"/>
		</g>
	</g>
</g>
<g>
	<path fill="none" d="M3251.6,2437.1h51.2v-10.2h-54c1.8,2.7,2.8,5.9,2.8,9.4V2437.1z"/>
	<path fill="#707575" d="M2477.1,2436.2v0.8h774.5v-0.8c0-3.5-1-6.7-2.8-9.4h-768.8C2478.1,2429.5,2477.1,2432.8,2477.1,2436.2z"/>
</g>
<g>
	<path fill="#81CCBE" d="M3344.1,2542.6c2.4,14.8,0.9,29.9-4.4,43.9l-30.5,80.6h3.5c3.8,0,7.2-2.3,8.6-5.9l29-73.5
		c0,0,8.4-27.7,0-63.7l-18.2-72.3c-0.8-3-2.2-5.7-4.1-8L3344.1,2542.6z"/>
</g>
<g>
	<path fill="#74B7AA" d="M3267.6,2436.4l-16-0.2v230.9h61.1c3.8,0,7.2-2.3,8.6-5.9l3.9-9.8h-57.5V2436.4z"/>
</g>
<g>
	<path fill="#3D3F3F" d="M2469.1,2629c0,1.7-2.1,2.6-3.3,1.3l-14.3-15c-11.5-12-26.3-20.3-42.5-23.9l-91.5-20.2
		c-4.7-1-9.6-1.6-14.4-1.6h-34v6c0,5.3,4.3,9.6,9.6,9.6h33.2c10.7,0,21.3,1.5,31.5,4.4l78.2,22.1c5.6,1.6,10.6,4.7,14.5,9.1l41,46.3
		h2.8v-240.3l-10.9,12V2629z"/>
</g>
<path fill="#707575" d="M2479.9,2426.9v249.6l-0.5-0.8c-1.5-2.1-2.3-4.6-2.3-7.1v-1.5l-0.1-237L2479.9,2426.9z"/>
<g>
	<g>
		<g>
			<path fill="#4F5151" d="M2318.4,2527.3l56.1-12.7l53.7-12.2v-9.6l-111.1,24.4c-1.3,0.3-2.7,0.4-4,0.4l-44.1-0.6v11h42.7
				C2314,2528,2316.2,2527.8,2318.4,2527.3z"/>
		</g>
	</g>
</g>
<g>
	<g>
		<g>
			<path fill="#4F5151" d="M2318.4,2542.9l56.1-12.7l66.9-16.3l27.7-10v-11.1l-28.2,11.4l-123.7,28.7c-1.3,0.3-2.7,0.4-4,0.4
				l-44.1-0.6v11h42.7C2314,2543.7,2316.2,2543.4,2318.4,2542.9z"/>
		</g>
	</g>
</g>
<g>
	<g>
		<g>
			<polygon fill="#707575" points="2374.5,2519.6 2435,2505.5 2435,2500.6 2435,2490.6 2428.2,2492.7 2428.2,2502.4 2315,2528.5 
				2269,2528 2269,2533.1 2315.1,2533.1 			"/>
		</g>
	</g>
</g>
<path fill="#92D6C9" d="M1998.6,2656.5v30.1l-316-5.9c-3.2-0.1-6.2-1.7-8.1-4.3l-6.9-9.9c-4.1-5.8-6.3-12.6-6.6-19.7
	c-0.3-7.6-1.9-19.4-7.5-34.5c-1.7-4.6-2.9-9.4-3.5-14.2c-2.7-23.1-8.8-90.2,7-115.9l3.9-30.2c0.5-4.1,4-7.1,8.1-7.1h0.1l4.1-11.5
	c1.9-5.3,6.9-8.9,12.6-8.9h312.9v78.2l110.3,1.2c2.5,0,4.7,1.4,5.9,3.6c2,3.8,5.4,10.6,8.8,19.3c10.6,27.6,12.5,57.8,6.1,86.7
	c-3.1,14.2-7.7,30.6-13.4,39.1c-1.7,2.6-4.6,4-7.7,4H1998.6z"/>
<g>
	<line fill="none" x1="1998.6" y1="2485.7" x2="1998.6" y2="2502.5"/>
	<path fill="none" d="M1653.5,2612.3c-1.7-4.6-2.9-9.4-3.5-14.2c-2.1-17.9-6.2-62.3-0.6-93.3l13.3,151.8c-1-3.1-1.6-6.4-1.7-9.7
		C1660.7,2639.1,1659.1,2627.3,1653.5,2612.3z"/>
	<path fill="#72B7AA" d="M1667.6,2666.4l6.9,9.9c1.8,2.6,10.1,10.2,13.4,10.2h310.7v-30.1h-335.8
		C1663.9,2660,1665.5,2663.4,1667.6,2666.4z"/>
	<path fill="#7EC4B7" d="M1649.4,2504.7l349.2-2.2v-16.8h-343.5C1652.6,2491,1650.7,2497.5,1649.4,2504.7z"/>
	<g>
		<path fill="#65AA9D" d="M1649.4,2504.7l349.2-2.2h-348.7C1649.7,2503.3,1649.6,2504,1649.4,2504.7z"/>
	</g>
</g>
<polygon fill="#61A396" points="2002.4,2659.5 2002.4,2653.5 1666.5,2653.5 1669,2659.5 "/>
<g>
	<path fill="none" d="M2125.1,2530.6l-5.9-14.4c1.4,3,2.9,6.5,4.4,10.4C2124.1,2527.9,2124.6,2529.3,2125.1,2530.6z"/>
	<line fill="none" x1="1998.6" y1="2437.6" x2="1998.6" y2="2452"/>
	<path fill="none" d="M1660.9,2452l-13.1,64.1c1.4-13.7,4.2-26,9.2-34.1L1660.9,2452z"/>
	<path fill="none" d="M1646.6,2538.8c0-2.7,0.1-5.5,0.2-8.2C1646.8,2530.6,1645.2,2537.8,1646.6,2538.8z"/>
	<path fill="#BCEDE4" d="M1663.6,2623.8c-0.6-1.5-1.2-2.9-1.7-4.4c-7.9-25.8-8.6-51.6-8.1-66.4c0.2-5.8-2.6-11.1-7.2-14.2
		c-0.3,23.6,2,47.3,3.4,59.2c0.6,4.9,1.8,9.6,3.5,14.2c5.6,15,7.2,26.9,7.5,34.5c0.1,1.6,0.2,3.2,0.5,4.8
		C1670.1,2641.6,1665.7,2628.5,1663.6,2623.8z"/>
	<path fill="#BCEDE4" d="M1646.8,2530.6h478.2c-0.5-1.3-0.9-2.7-1.4-4c-1.5-3.9-3-7.4-4.4-10.4h-471.4
		C1647.3,2520.8,1647,2525.7,1646.8,2530.6z"/>
	<path fill="#BCEDE4" d="M1669.1,2444.8L1669.1,2444.8c-4.2,0-7.6,3-8.1,7.1l0,0.1h337.7v-14.4h-327L1669.1,2444.8z"/>
</g>
</svg>
