<?xml version="1.0" encoding="utf-8"?>
<!-- Generator: Adobe Illustrator 17.1.0, SVG Export Plug-In . SVG Version: 6.00 Build 0)  -->
<!DOCTYPE svg PUBLIC "-//W3C//DTD SVG 1.1//EN" "http://www.w3.org/Graphics/SVG/1.1/DTD/svg11.dtd">
<svg version="1.1" id="Layer_2" xmlns="http://www.w3.org/2000/svg" xmlns:xlink="http://www.w3.org/1999/xlink" x="0px" y="0px"
	 viewBox="0 0 5000 5000" enable-background="new 0 0 5000 5000" xml:space="preserve">
<path fill="#3A3A37" d="M3080.6,2065.6h-32c-3.6,0-6.6-1.5-6.6-3.4v-6.4c0-1.9,2.9-3.4,6.6-3.4h32c3.6,0,6.6,1.5,6.6,3.4v6.4
	C3087.2,2064,3084.2,2065.6,3080.6,2065.6z"/>
<path fill="#7C7D7A" d="M3083.1,2052.3h-9.9v13.3h9.9c2.2,0,4.1-1.5,4.1-3.4v-6.4C3087.2,2053.8,3085.4,2052.3,3083.1,2052.3z"/>
<path fill="#504F4D" d="M3060.3,2317.9L3060.3,2317.9c-1.8,0-3.2-3.5-3.2-7.9v-29.5c0-4.4,1.4-7.9,3.1-7.9h0.1
	c1.7,0,3.1,3.5,3.1,7.9v29.5C3063.4,2314.3,3062,2317.9,3060.3,2317.9z"/>
<path fill="#35342B" d="M2875.7,2992.2H2176c-102,0-184.6-86.2-184.6-192.5v-723.6c0-106.3,82.7-192.5,184.6-192.5h699.7
	c102,0,184.6,86.2,184.6,192.5v723.6C3060.3,2906,2977.6,2992.2,2875.7,2992.2z"/>
<g>
	<g opacity="0.35">
		<path d="M2840.7,2992.5H2141c-102,0-184.6-86.2-184.6-192.5v-723.6c0-106.3,82.7-192.5,184.6-192.5h699.7
			c102,0,184.6,86.2,184.6,192.5v723.6C3025.3,2906.4,2942.6,2992.5,2840.7,2992.5z"/>
	</g>
	<g>
		<path fill="#A3A290" d="M2875.7,2980.5H2176c-102,0-184.6-86.2-184.6-192.5v-723.6c0-106.3,82.7-192.5,184.6-192.5h699.7
			c102,0,184.6,86.2,184.6,192.5v723.6C3060.3,2894.4,2977.6,2980.5,2875.7,2980.5z"/>
	</g>
</g>
<path fill="#DBD5BA" d="M3060.3,2064.5c0-106.3-82.7-192.5-184.6-192.5H2176c-102,0-184.6,86.2-184.6,192.5v723.6
	c0,34.5,15.9,78.1,15.9,78.1l2-575.4c0-9.2,7.2-16.6,16-16.6l996.2-4c10.5,0,19,8.8,19.1,19.7l3.9,576.5c10.2-23.9,16-50.4,16-78.3
	V2064.5z"/>
<path fill="#5C433E" d="M3060.3,2237.8H1991.4v-201.4c0-98.6,76.6-178.5,171.2-178.5h732.3c91.3,0,165.4,77.2,165.4,172.4V2237.8z"
	/>
<path fill="#34221F" d="M3060.3,2064.5c0-106.3-82.7-192.5-184.6-192.5H2176c-102,0-184.6,86.2-184.6,192.5v191.5h1068.9V2064.5z"/>
<rect x="1991.4" y="2234.2" fill="#1D1110" width="1068.9" height="21.7"/>
<path fill="#35342B" d="M2976.5,2877.2L2976.5,2877.2c-2.2,0-4-3.7-4-8.2v-73.7c0-4.5,1.7-8.2,3.9-8.2h0.1c2.1,0,3.9,3.7,3.9,8.2
	v73.7C2980.4,2873.5,2978.7,2877.2,2976.5,2877.2z"/>
<path fill="#35342B" d="M2872.8,2877.2L2872.8,2877.2c-2.2,0-4-3.7-4-8.2v-73.7c0-4.5,1.7-8.2,3.9-8.2h0.1c2.1,0,3.9,3.7,3.9,8.2
	v73.7C2876.6,2873.5,2874.9,2877.2,2872.8,2877.2z"/>
<path fill="#35342B" d="M2906.7,2877.2L2906.7,2877.2c-2.2,0-4-3.7-4-8.2v-73.7c0-4.5,1.7-8.2,3.9-8.2h0.1c2.1,0,3.9,3.7,3.9,8.2
	v73.7C2910.6,2873.5,2908.8,2877.2,2906.7,2877.2z"/>
<path fill="#35342B" d="M2940.6,2877.2L2940.6,2877.2c-2.2,0-4-3.7-4-8.2v-73.7c0-4.5,1.7-8.2,3.9-8.2h0.1c2.1,0,3.9,3.7,3.9,8.2
	v73.7C2944.5,2873.5,2942.7,2877.2,2940.6,2877.2z"/>
<path fill="#14190E" d="M2968.5,2205.2H2809c-26.6,0-48.1-22.5-48.1-50.2v-150.5c0-27.7,21.5-50.2,48.1-50.2h159.5
	c26.6,0,48.1,22.5,48.1,50.2V2155C3016.6,2182.7,2995.1,2205.2,2968.5,2205.2z"/>
<path fill="#AA9C8E" d="M2970.3,2205.2h-160.9c-26.8,0-48.5-21.3-48.5-47.5v-142.6c0-26.2,21.7-47.5,48.5-47.5h160.9
	c26.8,0,48.5,21.3,48.5,47.5v142.6C3018.8,2183.9,2997.1,2205.2,2970.3,2205.2z"/>
<path fill="#1D1D1A" d="M2959.2,2194.8h-140.9c-23.5,0-42.5-19.9-42.5-44.4v-141.4c0-24.5,19-44.4,42.5-44.4h140.9
	c23.5,0,42.5,19.9,42.5,44.4v141.4C3001.8,2175,2982.7,2194.8,2959.2,2194.8z"/>
<ellipse fill="#293D2F" cx="2889.9" cy="2079.8" rx="84.7" ry="88.4"/>
<path fill="#2C2533" d="M2915.4,1995.5c-4.1-0.6-12.5-4.1-25.6-4.1c-43.3,0.1-86.4,43.6-84.7,88.4c1.9,52.2,26.2,66.2,40.3,75.3
	C2829.3,2089.5,2832.3,2022.8,2915.4,1995.5z"/>
<path fill="#3F3135" d="M2816.7,2068.9c0,17.5,5.3,24,5.3,24c-3.8-38.3,31.9-79.4,53-100.1c-39.7,7.3-69.9,43.4-69.9,86.9
	c0,16.5,4.4,32,12,45.2C2807.7,2095.8,2816.7,2068.9,2816.7,2068.9z"/>
<ellipse fill="#324437" cx="2907.1" cy="2064.2" rx="23.9" ry="15.6"/>
<path fill="#2C2533" d="M2947.1,2014.6c2.2,3.6,11.2,12.8,12.9,16.8c19.3,44.4,15,95.2-27.6,115.3c-23.3,11-48.8,10-70.3-0.3
	C2929.8,2127.5,2941.5,2053.1,2947.1,2014.6z"/>
<path fill="#3F3135" d="M2940.1,2129.9c-15.3,7.2-23.2,4.9-23.2,4.9c35-12.2,42.6-78,36.7-112c38,46.2,19.8,104.7-18.2,122.6
	c-14.4,6.8-29.8,9-44.4,7.3C2920.4,2149.5,2940.1,2129.9,2940.1,2129.9z"/>
<rect x="2221.4" y="1872.3" fill="#2C5799" width="42.5" height="359.5"/>
<rect x="2178.9" y="1872.3" fill="#487A63" width="42.5" height="359.5"/>
<path fill="#9A1C1F" d="M2136.3,2231.8h-42.5l0.2-339.8l18.5-7.4c1.7-0.7,3.4-1.3,5.2-1.9l18.6-6.3V2231.8z"/>
<path fill="#987A2D" d="M2178.9,2231.8h-42.5v-355.4l8.2-1.4c6.5-1.1,13.1-1.8,19.7-2.1l14.6-0.6V2231.8z"/>
<path fill="#443D31" d="M2274,2267.6c0,22.1-18.2,40-40.7,40h-108.8c-22.5,0-40.7-17.9-40.7-40l0,0c0-22.1,18.2-40,40.7-40h108.8
	C2255.7,2227.6,2274,2245.5,2274,2267.6L2274,2267.6z"/>
<path fill="#1A1510" d="M2274,2272.5c0,22.1-18.2,40-40.7,40h-108.8c-22.5,0-40.7-17.9-40.7-40l0,0c0-22.1,18.2-40,40.7-40h108.8
	C2255.7,2232.5,2274,2250.4,2274,2272.5L2274,2272.5z"/>
<ellipse fill="#1A1510" cx="2708.6" cy="2120.3" rx="21.9" ry="22.9"/>
<ellipse fill="#55493D" cx="2715.6" cy="2120.3" rx="7" ry="7.3"/>
<path fill="#55493D" d="M2715.6,2106.8c0,0-23.9,3.1-13,27C2702.6,2133.9,2679.7,2103.7,2715.6,2106.8z"/>
<path fill="#B4B4AE" d="M2270.4,1868.4h-88c-4.3,0-7.8-3.7-7.8-8.2v-0.2c0-4.5,3.5-8.2,7.8-8.2h88c4.3,0,7.8,3.7,7.8,8.2v0.2
	C2278.2,1864.7,2274.7,1868.4,2270.4,1868.4z"/>
<path fill="#222220" d="M2269.6,1863.5h-85.7l-9-5.6c-0.2,0.7-0.3,1.3-0.3,2.1v0.2c0,4.5,3.5,8.2,7.8,8.2h88c4.3,0,7.8-3.7,7.8-8.2
	v-0.2c0-0.7-0.1-1.3-0.3-2L2269.6,1863.5z"/>
<rect x="2677.5" y="1861.2" fill="#222220" width="90.1" height="3.9"/>
<rect x="2812.2" y="1860.1" fill="#222220" width="90.1" height="3.9"/>
<ellipse fill="#252522" cx="2549.4" cy="2420" rx="270.3" ry="281.8"/>
<ellipse fill="#121112" cx="2549.4" cy="2420" rx="239" ry="249.2"/>
<ellipse fill="#5B5C5B" cx="2549.4" cy="2420" rx="225.4" ry="235.1"/>
<ellipse fill="#161615" cx="2549.4" cy="2420" rx="219.6" ry="230.4"/>
<ellipse fill="#5A5957" cx="2549.4" cy="2420" rx="160.5" ry="168.4"/>
<ellipse fill="#252624" cx="2549.4" cy="2420" rx="157.7" ry="166.1"/>
<ellipse fill="#121112" cx="2549.4" cy="2420" rx="150.4" ry="158.4"/>
<path fill="#171715" d="M2557.8,2138.2c0.9-0.8-255.9,23-276,321.5c0,0-15.4-104.8,60.8-210.1
	C2342.5,2249.6,2411.9,2141.4,2557.8,2138.2z"/>
<path fill="#7C7D7A" d="M2549.4,2138.2c-0.6,0.8-268.9,16.8-267.6,321.5c0,0-23.9-104.8,52.4-210.1
	C2334.1,2249.6,2403.5,2141.4,2549.4,2138.2z"/>
<ellipse fill="none" stroke="#0B0B0B" stroke-miterlimit="10" cx="2549.4" cy="2420" rx="202.4" ry="212.4"/>
<ellipse fill="none" stroke="#0B0B0B" stroke-miterlimit="10" cx="2549.4" cy="2420" rx="188.6" ry="197.9"/>
<ellipse fill="none" stroke="#0B0B0B" stroke-miterlimit="10" cx="2549.4" cy="2420" rx="171.6" ry="180"/>
<ellipse fill="#1B171C" cx="2549.4" cy="2420" rx="123.7" ry="129"/>
<ellipse fill="#1C231A" cx="2549.4" cy="2420" rx="78.8" ry="82.1"/>
<ellipse fill="#2D332C" cx="2580.3" cy="2420" rx="14" ry="14.6"/>
<path fill="#28252B" d="M2667.1,2459.7c0,0-51.2,102.5-160.7,81.3C2506.4,2541,2612.6,2580,2667.1,2459.7z"/>
<path fill="#283025" d="M2628.2,2420c0,0-19.9,90.5-110.7,75.1C2517.5,2495.1,2612.9,2529.5,2628.2,2420z"/>
<path fill="#28252B" d="M2501,2301.3c0,0-75.2,36.6-74.5,133.2C2426.5,2434.6,2412.6,2343.4,2501,2301.3z"/>
<path fill="#283025" d="M2549.4,2337.9c0,0-58.8,5.9-77.5,67.6C2471.9,2405.5,2477.9,2343.1,2549.4,2337.9z"/>
<path opacity="6.000000e-002" fill="#891F2A" d="M2667,2392c2.6,23.4-1.7,43.1-9.7,44.1c-7.9,1-16.5-17.2-19.1-40.6
	s1.7-43.1,9.7-44.1C2655.8,2350.4,2664.4,2368.6,2667,2392z"/>
<ellipse opacity="6.000000e-002" fill="#2D3A91" cx="2627.9" cy="2361.4" rx="20.8" ry="21.1"/>
<ellipse opacity="6.000000e-002" fill="#2D3A91" cx="2477.6" cy="2351.1" rx="14.2" ry="31.4"/>
<ellipse opacity="6.000000e-002" fill="#891F2A" cx="2470.6" cy="2458.9" rx="19.8" ry="42.6"/>
<ellipse opacity="0.14" fill="#2D3A91" cx="2479.8" cy="2436.8" rx="10.6" ry="31.4"/>
<ellipse opacity="6.000000e-002" fill="#2D3A91" cx="2597.9" cy="2500.2" rx="17.6" ry="31.4"/>
<ellipse opacity="6.000000e-002" fill="#891F2A" cx="2615.6" cy="2487.8" rx="8.5" ry="12.5"/>
<ellipse opacity="6.000000e-002" fill="#338741" cx="2541" cy="2420.4" rx="50.6" ry="123.4"/>
</svg>
