<?xml version="1.0" encoding="utf-8"?>
<!-- Generator: Adobe Illustrator 17.1.0, SVG Export Plug-In . SVG Version: 6.00 Build 0)  -->
<!DOCTYPE svg PUBLIC "-//W3C//DTD SVG 1.1//EN" "http://www.w3.org/Graphics/SVG/1.1/DTD/svg11.dtd">
<svg version="1.1" id="Layer_3" xmlns="http://www.w3.org/2000/svg" xmlns:xlink="http://www.w3.org/1999/xlink" x="0px" y="0px"
	 viewBox="0 0 5000 5000" enable-background="new 0 0 5000 5000" xml:space="preserve">
<path fill="#3A3A3A" d="M2884.4,2850.4h-730.5c-14.4,0-26.2-12.2-26.2-27.3v-690.2c0-15.1,11.7-27.3,26.2-27.3h730.5
	c14.4,0,26.2,12.2,26.2,27.3v690.2C2910.6,2838.2,2898.8,2850.4,2884.4,2850.4z"/>
<g>
	<path fill="#2D2D2D" d="M2884.4,2105.7h-138.1l-618.5,553v164.4c0,15.1,11.7,27.3,26.2,27.3h730.5c14.4,0,26.2-12.2,26.2-27.3
		v-690.2C2910.6,2117.9,2898.8,2105.7,2884.4,2105.7z"/>
</g>
<path fill="#191818" d="M2885.3,2850.4h-704.9c-26.5,0-25.2,6.3-25.2-27.3v-690.2c-0.4-32.3-1.3-27.3,25.2-27.3h704.9
	c13.9,0,25.2,12.2,25.2,27.3v690.2C2910.6,2838.2,2899.3,2850.4,2885.3,2850.4z"/>
<g>
	<path fill="#3F4040" d="M2885.3,2105.7h-670.8l667.1,13.5c8.4,0.2,15.3,7,15.8,15.8l13.1,212.1v-214.1
		C2910.6,2117.9,2899.3,2105.7,2885.3,2105.7z"/>
</g>
<path fill="#070707" d="M2847.4,2815.7L2847.4,2815.7c-2,0-3.6-3.3-3.6-7.4v-66.2c0-4.1,1.6-7.4,3.5-7.4h0.1c1.9,0,3.5,3.3,3.5,7.4
	v66.2C2850.9,2812.4,2849.3,2815.7,2847.4,2815.7z"/>
<path fill="#070707" d="M2754.2,2815.7L2754.2,2815.7c-2,0-3.6-3.3-3.6-7.4v-66.2c0-4.1,1.6-7.4,3.5-7.4h0.1c1.9,0,3.5,3.3,3.5,7.4
	v66.2C2757.7,2812.4,2756.1,2815.7,2754.2,2815.7z"/>
<path fill="#070707" d="M2784.6,2815.7L2784.6,2815.7c-2,0-3.6-3.3-3.6-7.4v-66.2c0-4.1,1.6-7.4,3.5-7.4h0.1c1.9,0,3.5,3.3,3.5,7.4
	v66.2C2788.1,2812.4,2786.6,2815.7,2784.6,2815.7z"/>
<path fill="#070707" d="M2815.1,2815.7L2815.1,2815.7c-2,0-3.6-3.3-3.6-7.4v-66.2c0-4.1,1.6-7.4,3.5-7.4h0.1c1.9,0,3.5,3.3,3.5,7.4
	v66.2C2818.6,2812.4,2817,2815.7,2815.1,2815.7z"/>
<path fill="#070707" d="M2278.8,2815.7L2278.8,2815.7c-2,0-3.6-3.3-3.6-7.4v-66.2c0-4.1,1.6-7.4,3.5-7.4h0.1c1.9,0,3.5,3.3,3.5,7.4
	v66.2C2282.3,2812.4,2280.7,2815.7,2278.8,2815.7z"/>
<path fill="#070707" d="M2185.6,2815.7L2185.6,2815.7c-2,0-3.6-3.3-3.6-7.4v-66.2c0-4.1,1.6-7.4,3.5-7.4h0.1c1.9,0,3.5,3.3,3.5,7.4
	v66.2C2189.1,2812.4,2187.5,2815.7,2185.6,2815.7z"/>
<path fill="#070707" d="M2216,2815.7L2216,2815.7c-2,0-3.6-3.3-3.6-7.4v-66.2c0-4.1,1.6-7.4,3.5-7.4h0.1c1.9,0,3.5,3.3,3.5,7.4v66.2
	C2219.5,2812.4,2218,2815.7,2216,2815.7z"/>
<path fill="#070707" d="M2246.5,2815.7L2246.5,2815.7c-2,0-3.6-3.3-3.6-7.4v-66.2c0-4.1,1.6-7.4,3.5-7.4h0.1c1.9,0,3.5,3.3,3.5,7.4
	v66.2C2250,2812.4,2248.4,2815.7,2246.5,2815.7z"/>
<polygon fill="#E0AE31" points="2263.8,2364.1 2242.9,2373.4 2242.9,2105.4 2263.8,2105.4 "/>
<rect x="2349" y="2105.4" fill="#49352E" width="20.9" height="258.7"/>
<rect x="2328.1" y="2105.4" fill="#AD3434" width="20.9" height="258.7"/>
<rect x="2307.2" y="2105.4" fill="#D58028" width="20.9" height="258.7"/>
<rect x="2263.8" y="2105.7" fill="#3A8941" width="22.5" height="258.7"/>
<rect x="2286.3" y="2105.4" fill="#296892" width="20.9" height="258.7"/>
<rect x="2253.4" y="2409.8" fill="#262626" width="135.5" height="11.4"/>
<rect x="2253.4" y="2478.1" fill="#262626" width="511.1" height="19.4"/>
<rect x="2253.4" y="2510.7" fill="#262626" width="135.5" height="11.4"/>
</svg>
