<?xml version="1.0" encoding="utf-8"?>
<!-- Generator: Adobe Illustrator 17.1.0, SVG Export Plug-In . SVG Version: 6.00 Build 0)  -->
<!DOCTYPE svg PUBLIC "-//W3C//DTD SVG 1.1//EN" "http://www.w3.org/Graphics/SVG/1.1/DTD/svg11.dtd">
<svg version="1.1" id="Layer_3" xmlns="http://www.w3.org/2000/svg" xmlns:xlink="http://www.w3.org/1999/xlink" x="0px" y="0px"
	 viewBox="0 0 5000 5000" enable-background="new 0 0 5000 5000" xml:space="preserve">
<ellipse fill="#DDCDAF" cx="2507.9" cy="2493.7" rx="228.9" ry="164.6"/>
<ellipse fill="#F2E8D1" cx="2512.6" cy="2493.7" rx="222.6" ry="153.8"/>
<circle fill="#DDCDAF" cx="2507.9" cy="2493.7" r="80.7"/>
<circle fill="#80BCAE" cx="2510.1" cy="2493.7" r="76.6"/>
<circle fill="#68A594" cx="2507.9" cy="2493.7" r="44.2"/>
<path fill="#B7E5D9" d="M2510.1,2417.1c0,0,57.9,3.9,76.6,76.6c0,0,1.8-28.2-20.9-52.8C2550.3,2423.9,2528.7,2416.3,2510.1,2417.1z"
	/>
<path fill="#FFFAF0" d="M2543,2341.3c0,0,209.4,36.6,181,200.8l10.5-25.1c0,0,11.3-38.3-13.4-77.6
	C2721,2439.5,2678.3,2351.8,2543,2341.3z"/>
</svg>
