<?xml version="1.0" encoding="utf-8"?>
<!-- Generator: Adobe Illustrator 17.1.0, SVG Export Plug-In . SVG Version: 6.00 Build 0)  -->
<!DOCTYPE svg PUBLIC "-//W3C//DTD SVG 1.1//EN" "http://www.w3.org/Graphics/SVG/1.1/DTD/svg11.dtd">
<svg version="1.1" id="Layer_2" xmlns="http://www.w3.org/2000/svg" xmlns:xlink="http://www.w3.org/1999/xlink" x="0px" y="0px"
	 viewBox="0 0 5000 5000" enable-background="new 0 0 5000 5000" xml:space="preserve">
<path fill="#161616" d="M2787.5,2281.5c0,0-143.6-168.1-315.3-129.3c0,0-41.2,14-49-8.1c0,0,204-89.8,367.6,100.9L2787.5,2281.5z"/>
<path fill="#E9CBB5" d="M2247.2,2724.8h-1.2c-32,0-58-26.7-58-59.6v-349.7c0-32.9,26-59.6,58-59.6h1.2c32,0,58,26.7,58,59.6v349.7
	C2305.3,2698.1,2279.3,2724.8,2247.2,2724.8z"/>
<g>
	<path fill="none" d="M2194.1,2691.9c-4.5-1.8-9.3-5.4-14.2-11.4l27.9,53.9c0,0,6.4-5.9,14.6-14.5
		C2210.1,2714.3,2200.1,2704.3,2194.1,2691.9z"/>
	<path fill="#877164" d="M2254.9,2656.8v-329c0-20.1-6.4-39.9-19.3-54.8c-4-4.6-8.5-8.8-13.5-11.9c-11.2,5.2-20.5,13.9-26.5,24.9
		c13.9-3.3,33-2.6,38.8,23.1c0.9,3.8,1.2,7.8,1.2,11.7v323c0,15.3-5.4,30.5-16.1,41c-6.9,6.7-15.6,11.2-25.4,7.2
		c6,12.4,16,22.4,28.2,28c6.9-7.3,14.9-16.5,21.3-25.8C2251.1,2683.2,2254.9,2670.1,2254.9,2656.8z"/>
</g>
<g>
	<path fill="#FFEEE3" d="M2213.3,2664.8c0-0.1,0-0.2,0-0.3V2333c0-15.3-8.1-29.4-21-36.8l-1-0.6c-2.1,6.2-3.3,12.9-3.3,19.9v349.7
		c0,11.4,3.1,22,8.5,31.1C2206.6,2689.2,2213.3,2677.7,2213.3,2664.8z"/>
</g>
<path fill="#9E8677" d="M2195.9,2684.2h-6.7c-2,0-3.6-1.7-3.6-3.8v-371.6c0-2.1,1.6-3.8,3.6-3.8h6.7c2,0,3.6,1.7,3.6,3.8v371.6
	C2199.5,2682.5,2197.9,2684.2,2195.9,2684.2z"/>
<path fill="#C8C4C2" d="M2192.8,2681.1h-4.2c-1.3,0-2.3-1.7-2.3-3.7v-365.6c0-2,1-3.7,2.3-3.7h4.2c1.3,0,2.3,1.7,2.3,3.7v365.6
	C2195.1,2679.4,2194.1,2681.1,2192.8,2681.1z"/>
<g>
	<g>
		<g>
			<path fill="#FFEEE3" d="M2261.2,2258.1c18.6,14.5,38.7,41.8,34.1,91.3l0.2,309.1c0,16.2-4.5,32-13.1,45.5
				c-2.7,4.3-5.9,9-9.4,13.9c18.1-10,30.4-29.8,30.4-52.7v-349.7C2303.5,2288,2285.6,2264.9,2261.2,2258.1z"/>
		</g>
	</g>
</g>
<ellipse fill="#877164" cx="2235.4" cy="2396.4" rx="38.5" ry="40.1"/>
<ellipse fill="#E9CBB5" cx="2235.4" cy="2396.4" rx="35.2" ry="36.7"/>
<ellipse fill="#FCEADE" cx="2235.4" cy="2396.4" rx="30.2" ry="31.5"/>
<path fill="#514138" d="M2305.3,2337.5v301l1.4-1.2c12-9.7,19-24.6,19-40.4c0,0-0.8-101.7-2.5-127.1c-0.7-10.1-2.2-20.1,1.5-52.2
	c0.5-4.5,0.8-9.1,0.8-13.7v-20.2c0-12.2-3.9-24-11-33.6L2305.3,2337.5z"/>
<path fill="#E8E7E6" d="M2191.3,2681.1h-1.2c-0.3,0-0.6-1.7-0.6-3.7v-365.6c0-2,0.3-3.7,0.6-3.7h1.2c0.3,0,0.6,1.7,0.6,3.7v365.6
	C2191.9,2679.4,2191.6,2681.1,2191.3,2681.1z"/>
<path fill="#232323" d="M2279.8,2704.6c0,0,62.3,114.1,217.2,144.2c0,0,226.4,38.7,319-188.5c0,0,54.7-128.3,0-320.8l-0.9-78.4
	c0,0,89,145.8,61.7,324.8c0,0-27.3,231.3-235.5,291.5c0,0-254.8,71.2-384.5-147.3c0,0-16.6-17-7.4-32.3
	C2249.4,2697.7,2267.4,2686.1,2279.8,2704.6z"/>
<path fill="#232323" d="M2261.2,2286.1c8.5-1.9,16.6-12.8,39.6-44.8c0,0,79.1-106.9,222.1-119.2c17.3-1.5,34.7-0.6,51.8,2.5
	c51.5,9,168.3,38.1,209.1,119.4c2.1,4.2,3,8.9,3,13.7v71.8c0,14.4,2.4,28.6,7,42.2l10.1,29.8c3.4,10.1,5.2,20.7,5.2,31.4v121.5
	c0,5-0.4,10-1.3,15c-2.8,16.2-8.7,56.5-1.8,75.9c1,2.8,4.7,3.1,6,0.4c11.8-23.6,52.5-123.3,11.2-310.2c-0.9-3.9-1.4-7.8-1.5-11.8
	l-2-78.7c-0.4-9.6-3.8-18.8-9.6-26.3c-7.8-9.9-19.3-28.4-36.8-45c-123.4-116.9-313.2-121.4-443.4-12.7
	c-20.8,17.4-40.6,38.4-57.7,63.7c0,0-25.8,33.8-25.8,50.8C2246.7,2282.7,2254.1,2287.7,2261.2,2286.1z"/>
<path fill="#232323" d="M2786.9,2274.9c0,0-138.5-164.7-304.1-126.7c0,0-39.7,13.8-47.2-7.9c0,0,196.7-88,354.6,98.9L2786.9,2274.9z
	"/>
<g>
	<g>
		<g>
			<path fill="#161616" d="M2814.1,2571.3l5.4-140.1c0.3-8.6-0.7-17.1-3.1-25.4l-14.4-49.2c-1.1-3.8-1.7-7.7-1.7-11.6v-69.8
				c0-10.1-2-20.2-6.4-29.2c-63.6-129.8-249.7-134.3-249.7-134.3c-169.6,3.7-256,123-285.4,174.6c0.8,0,1.7-0.1,2.5-0.3
				c8.5-1.9,16.6-12.8,39.6-44.8c0,0,79.1-106.9,222.1-119.2c17.3-1.5,34.7-0.6,51.8,2.5c51.5,9,168.3,38.1,209.1,119.4
				c2.1,4.2,3,8.9,3,13.7v71.8c0,14.4,2.4,28.6,7,42.2l10.1,29.8c3.4,10.1,5.2,20.7,5.2,31.4v121.5c0,5-0.4,10-1.3,15
				c-2.8,16.2-8.7,56.5-1.8,75.9c0.3,0.8,0.8,1.3,1.3,1.7c0.4-26,4-53.8,5.6-65C2813.6,2578.3,2813.9,2574.8,2814.1,2571.3z"/>
		</g>
	</g>
</g>
<g>
	<g>
		<path fill="#161616" d="M2815.1,2261l0.2,18.7c102.5,204,39.6,364.1,39.6,364.1c-85.1,259.8-311.4,237.6-311.4,237.6
			c-197.8,0-278.8-151-294.1-183.8c0,0-0.1,0-0.1,0c-9.1,15.2,7.4,32.3,7.4,32.3c129.7,218.5,384.5,147.3,384.5,147.3
			c208.1-60.2,235.5-291.5,235.5-291.5C2904.2,2406.8,2815.1,2261,2815.1,2261z"/>
	</g>
</g>
<g>
	<g>
		<g>
			<path fill="#161616" d="M2823.4,2335.3c-0.9-3.9-1.4-7.8-1.5-11.8l-2-78.7c-0.4-9.6-3.8-18.8-9.6-26.3
				c-7.8-9.9-19.3-28.4-36.8-45c-123.4-116.9-313.2-121.4-443.4-12.7c-20.8,17.4-40.6,38.4-57.7,63.7c0,0-25.8,33.8-25.8,50.8
				c0,1.2,0.2,2.3,0.6,3.3c16.9-34.9,82.1-149.6,222.7-182.7c54.2-12.8,99.3-11.2,145.4,0.4c59.7,15,145.2,49.4,191.2,127.3
				c4.8,8.2,8.6,22.9,8.6,32.5v69.8c0,3.9,0.6,7.8,1.7,11.6l19.3,99.6c3.7,20.8,0.5,79-1.2,104.5c-0.5,7.9-1.7,15.8-3.6,23.5
				c-3.7,15.2-9.9,41.8-12.5,65.2C2834.1,2591,2858.7,2495,2823.4,2335.3z"/>
		</g>
	</g>
</g>
<g>
	<path fill="#111111" d="M2600.7,2148.2c-66-17.9-114.4-5.2-129.4-0.2c-5.5,1.8-11.3,2.5-16.9,1.2c-7.2-1.8-12.2-5.9-15.7-10.2
		c-2,0.8-3.1,1.3-3.1,1.3c7.5,21.7,47.2,7.9,47.2,7.9c165.6-38,304.1,126.7,304.1,126.7l0.1-0.6
		C2710.5,2175.8,2600.7,2148.2,2600.7,2148.2z"/>
</g>
</svg>
