<?xml version="1.0" encoding="utf-8"?>
<!-- Generator: Adobe Illustrator 17.1.0, SVG Export Plug-In . SVG Version: 6.00 Build 0)  -->
<!DOCTYPE svg PUBLIC "-//W3C//DTD SVG 1.1//EN" "http://www.w3.org/Graphics/SVG/1.1/DTD/svg11.dtd">
<svg version="1.1" id="Layer_3" xmlns="http://www.w3.org/2000/svg" xmlns:xlink="http://www.w3.org/1999/xlink" x="0px" y="0px"
	 viewBox="0 0 5000 5000" enable-background="new 0 0 5000 5000" xml:space="preserve">
<path fill="#BE1A21" d="M1919.3,2513.5h-29.1c-2.7,0-5.4-0.4-8-1.1l-50.1-13.3c-2.5-0.7-5-1.2-7.5-1.6c-5.4-0.8-15.9-3-16.7-6.5
	c0,0,6.5-4.6,18.1-6.6c1.8-0.3,3.7-0.6,5.5-1.1l52.1-12.7c1.7-0.4,3.4-0.6,5.1-0.6h30.6V2513.5z"/>
<g>
	<path fill="#8E0A1A" d="M1879.1,2501.9l-67.9-12.8c-2.2,1.1-3.4,1.9-3.4,1.9c0.8,3.6,11.3,5.7,16.7,6.5c2.5,0.4,5.1,1,7.5,1.6
		l50.1,13.3c2.6,0.7,5.3,1.1,8,1.1h29.1v-11h-33.1C1883.8,2502.6,1881.5,2502.3,1879.1,2501.9z"/>
</g>
<g>
	<g>
		<g>
			<path fill="#AA1520" d="M1811,2489.2c-1.7,0.8-2.7,1.5-3,1.7l78.9-5.5h32.4v-8.6H1888L1811,2489.2z"/>
		</g>
	</g>
</g>
<path fill="#F4F4F2" d="M2918.5,2415.7l-12.4,29.2c-11.1,31.9-12.7,63.8,0,93.8l12.4,29.2h-815l0.3-0.8
	c20.4-48.2,20.4-102.5,0-150.7l-0.3-0.8H2918.5z"/>
<path fill="#8A8A8A" d="M2110,2554h-63.8c-3.2,0-6.3-0.6-9.3-1.8l-58.1-24c-3.3-1.3-6.8-2-10.3-2h-47.2c0,0-23.6-38.6,0-70.8h49.9
	c2.4,0,4.8-0.4,7.1-1.3l61-22.9c2.8-1,5.7-1.6,8.7-1.6h62C2110,2429.6,2142.1,2489.7,2110,2554z"/>
<polygon fill="#B7B7B7" points="2115.5,2442.8 2119.4,2455.4 2042.4,2455.3 2042.4,2442.8 "/>
<polygon fill="#B7B7B7" points="2119.4,2527.5 2116,2540 2042.4,2540 2042.4,2527.5 "/>
<polygon fill="#BE1A21" points="3100.1,2527.3 3183.7,2527.3 3153.1,2464.6 3100.1,2464.6 "/>
<rect x="1938.9" y="2464.7" transform="matrix(1.174931e-002 -0.9999 0.9999 1.174931e-002 -572.8953 4406.1431)" fill="#B7B7B7" width="7.6" height="56.5"/>
<g>
	<g>
		<path fill="#777676" d="M2039.3,2431.2c1-0.4,2.1-0.7,3.1-0.9l-70.8,25c2.3-0.1,4.5-0.5,6.7-1.3L2039.3,2431.2z"/>
		<path fill="#777676" d="M1970.3,2525.1l1.3,1.3c0,0-0.1,0-0.1,0L1970.3,2525.1z"/>
		<path fill="#777676" d="M1968.4,2526.1h-47.2c0,0-7.7-12.6-9.9-29.5l9.9,29.5l50.3,0.2l0,0
			C1970.5,2526.2,1969.5,2526.1,1968.4,2526.1z"/>
		<g>
			<path fill="#777676" d="M1971.6,2526.4c1,0-0.7-7.6,0.3-7.5l-0.3-22.2h-60.3c2.2,16.8,9.9,29.5,9.9,29.5L1971.6,2526.4z"/>
		</g>
		<g>
			<path fill="#777676" d="M2039.3,2431.2l-61,22.9c-2.1,0.8-4.4,1.2-6.7,1.3v71c2.4,0.3,4.8,0.9,7.1,1.8l58.1,24
				c1.8,0.7,3.6,1.2,5.5,1.5v-123.4C2041.3,2430.5,2040.3,2430.8,2039.3,2431.2z"/>
		</g>
	</g>
</g>
<g>
	<g>
		<g>
			<path fill="#686767" d="M2039.3,2542l-61.4-25.9c-3.9-1.7-8.2-2.3-12.4-2l-50.1-0.6c2.2,5.3,5.8,12.8,5.8,12.8h47.2
				c3.5,0,7,0.7,10.3,2l58.1,24c2.9,1.2,6.1,1.8,9.3,1.8h63.8c1.8-3.6,3.4-7.2,4.8-10.7h-69
				C2043.5,2543.3,2041.4,2542.9,2039.3,2542z"/>
		</g>
	</g>
</g>
<g>
	<path fill="none" d="M1923.6,2526.1c1.3,2.5,2.7,5,4.3,7.6h44v-7.3c-1.2-0.2-2.4-0.3-3.6-0.3H1923.6z"/>
	<path fill="#565656" d="M1922.8,2455.4h-1.6c-23.6,32.2,0,70.8,0,70.8h2.4C1907.3,2494.5,1916.2,2468.2,1922.8,2455.4z"/>
	<path fill="#565656" d="M2108.6,2546.5c-0.7,1.6-2.4,2.7-4.1,2.7h-61.2c-1.8,0-3.6-0.4-5.2-1.1l-63.4-26.8
		c-1.3-0.5-2.7,0.4-2.7,1.8v3.3c2.3,0.3,4.6,0.9,6.8,1.8l58.1,24c2.9,1.2,6.1,1.8,9.3,1.8h63.8c32.2-64.3,0-124.4,0-124.4h-3.5
		C2131.1,2489.3,2113.7,2535.3,2108.6,2546.5z"/>
</g>
<path fill="#F4F4F2" d="M2911.2,2557.1h63.8c3.2,0,6.3-0.6,9.3-1.8l58.1-24c3.3-1.3,6.8-2,10.3-2h47.2c0,0,23.6-38.6,0-70.8H3050
	c-2.4,0-4.8-0.4-7.1-1.3l-61-22.9c-2.8-1-5.7-1.6-8.7-1.6h-62C2911.2,2432.7,2879,2492.7,2911.2,2557.1z"/>
<polygon fill="#FFFFFD" points="2905.7,2445.9 2901.8,2458.4 2978.8,2458.4 2978.8,2445.9 "/>
<polygon fill="#FFFFFD" points="2901.8,2530.5 2905.2,2543 2978.8,2543 2978.8,2530.5 "/>
<rect x="3074.7" y="2467.7" transform="matrix(-1.174928e-002 -0.9999 0.9999 -1.174928e-002 618.91 5603.5713)" fill="#FFFFFD" width="7.6" height="56.5"/>
<g>
	<path fill="#D6D6D2" d="M2981.9,2434.3c-1-0.4-2.1-0.7-3.1-0.9l70.8,25c-2.3-0.1-4.5-0.5-6.7-1.3L2981.9,2434.3z"/>
	<path fill="#D6D6D2" d="M3050.9,2528.1l-1.3,1.3c0,0,0.1,0,0.1,0L3050.9,2528.1z"/>
	<path fill="#D6D6D2" d="M3052.8,2529.2h47.2c0,0,7.7-12.6,9.9-29.5l-9.9,29.5l-50.3,0.2l0,0
		C3050.7,2529.3,3051.7,2529.2,3052.8,2529.2z"/>
	<path fill="#D6D6D2" d="M3049.5,2529.4c-1,0,0.7-7.6-0.3-7.5l0.3-22.2h60.3c-2.2,16.8-9.9,29.5-9.9,29.5L3049.5,2529.4z"/>
	<path fill="#D6D6D2" d="M2981.9,2434.3l61,22.9c2.1,0.8,4.4,1.2,6.7,1.3v71c-2.4,0.3-4.8,0.9-7.1,1.8l-58.1,24
		c-1.8,0.7-3.6,1.2-5.5,1.5v-123.4C2979.8,2433.6,2980.9,2433.9,2981.9,2434.3z"/>
</g>
<g>
	<g>
		<g>
			<path fill="#BCBCBB" d="M2981.8,2545l61.4-25.9c3.9-1.7,8.2-2.3,12.4-2l50.1-0.6c-2.2,5.3-5.8,12.8-5.8,12.8h-47.2
				c-3.5,0-7,0.7-10.3,2l-58.1,24c-2.9,1.2-6.1,1.8-9.3,1.8h-63.8c-1.8-3.6-3.4-7.2-4.8-10.7h69
				C2977.6,2546.3,2979.8,2545.9,2981.8,2545z"/>
		</g>
	</g>
</g>
<g>
	<path fill="none" d="M3097.5,2529.2c-1.3,2.5-2.7,5-4.3,7.6h-44v-7.3c1.2-0.2,2.4-0.3,3.6-0.3H3097.5z"/>
	<path fill="#B2B2B2" d="M2912.6,2549.6c0.7,1.6,2.4,2.7,4.1,2.7h61.2c1.8,0,3.6-0.4,5.2-1.1l63.4-26.8c1.3-0.5,2.7,0.4,2.7,1.8v3.3
		c-2.3,0.3-4.6,0.9-6.8,1.8l-58.1,24c-2.9,1.2-6.1,1.8-9.3,1.8h-63.8c-28.2-67.7,0-124.4,0-124.4h3.5
		C2890.1,2492.4,2907.5,2538.3,2912.6,2549.6z"/>
</g>
<g>
	<polygon fill="#AD121D" points="3100.1,2464.6 3100.1,2527.3 3183.7,2527.3 3181.9,2523.6 3158.8,2523.6 3129,2468.9 
		3155.2,2468.9 3153.1,2464.6 	"/>
</g>
<g>
	<path fill="#FFFFFF" d="M2108,2567.2l-0.3,0.8h810.8l-12.3-29.2c-1.9-4.4-3.4-8.9-4.7-13.5l-781.9,3.7
		C2117.1,2542,2113.2,2554.8,2108,2567.2z"/>
</g>
<g>
	<path fill="#D8D8D8" d="M2104.1,2567.2l-0.3,0.8h814.7l-10.5-25l-793.2,0.3C2112.5,2551.5,2107.4,2559.3,2104.1,2567.2z"/>
</g>
<g>
	<path fill="none" d="M2901.6,2458.4l38.7,0v-28.8h-27.6l-6.4,15.3C2904.4,2449.3,2902.9,2453.9,2901.6,2458.4z"/>
	<path fill="#FFFFFF" d="M2120.1,2458.4h781.5c1.3-4.6,2.9-9.1,4.7-13.5l6.4-15.3H2110C2113.1,2439.1,2118.4,2448.7,2120.1,2458.4z"
		/>
</g>
<path fill="#F4F4F2" d="M2111.4,2566.9c0,0,42.3-74.8-2.4-152.1l-310.7,17.8l-15.6,3c-9.7,1.9-16.6,10.2-16.6,19.8v65.2
	c0,11.1,7.8,20.7,18.8,23.3l9,2.1L2111.4,2566.9z"/>
<g>
	<path fill="#FFFFFF" d="M1872.6,2519.6l-106.4-7.4v9c0,10.8,7.4,20.1,17.9,22.6l9.9,2.3l317.5,20.8c0,0,7.6-12,12.4-34.6l-242-11.5
		C1878.7,2520.7,1875.6,2520.3,1872.6,2519.6z"/>
</g>
<g>
	<path fill="#D8D8D8" d="M1854.9,2528l-88.8-3.8v0.2c0,8.9,6.3,16.7,15.1,18.8l12.6,2.9l317.5,20.8c0,0,5.5-8.8,10.1-25.4
		l-257.5-12.3C1861,2529.1,1857.9,2528.7,1854.9,2528z"/>
</g>
<g>
	<path fill="none" d="M2118.5,2431.9l-4-13.3C2116,2423.2,2117.3,2427.6,2118.5,2431.9z"/>
	<path fill="#FFFFFF" d="M1807.8,2438c-1.7,0.1-3.4,0.3-5.1,0.7l-26.9,5.5c-5.6,1.1-9.7,6.1-9.7,11.8v0.1l37.6-5.9
		c1-0.1,2.1-0.2,3.1-0.3l309.7-17.9c-1.2-4.3-3.8-8.7-5.3-13.2L1807.8,2438z"/>
</g>
<g>
	<g>
		<path fill="#AA1520" d="M1790.9,2515v-56c0-4.4,1.2-8.8,3.4-12.7l8-13.9l-3.9,0.3l-14.7,2.9c-10.1,2-17.4,10.7-17.4,20.8v67.6
			c0,9.2,6.4,17.1,15.6,19.3l12.2,2.8l6.8,0.4l-5.5-11.8C1792.4,2528.5,1790.9,2521.8,1790.9,2515z"/>
	</g>
</g>
<g>
	<g>
		<path fill="#BE1A21" d="M1779.8,2436.7c-2.8,4.9-6.3,11.4-7.7,16.5c-0.4,1.6-0.6,3.2-0.6,4.9v54.6c0,9.1,5.8,17.4,14.7,20.1
			c0.8,0.2,1.6,0.4,2.4,0.6c0,0-5.2-14.5-4.5-21.1v-51.8c0-2.8,0.5-5.7,1.5-8.3l6.8-18.2l-8.9,1.7
			C1782.2,2435.9,1781,2436.2,1779.8,2436.7z"/>
	</g>
</g>
<path fill="#F4F4F2" d="M2914.9,2567.5c0,0-42.3-74.8,2.4-152.1l310.7,17.8l15.6,3c9.7,1.9,16.6,10.2,16.6,19.8v65.2
	c0,11.1-7.8,20.7-18.8,23.3l-9,2.1L2914.9,2567.5z"/>
<g>
	<path fill="#FFFFFF" d="M3153.8,2520.2l106.4-7.4v10.2c0,10.1-6.9,18.8-16.8,21.1l-11,2.6l-317.5,20.8c0,0-7.6-12-12.4-34.6
		l242-11.5C3147.7,2521.3,3150.7,2520.9,3153.8,2520.2z"/>
</g>
<g>
	<path fill="#D8D8D8" d="M3171.5,2528.6l88.8-3.8v0.2c0,8.9-6.3,16.7-15.1,18.8l-12.6,2.9l-317.5,20.8c0,0-5.5-8.8-10.1-25.4
		l257.5-12.3C3165.4,2529.7,3168.4,2529.3,3171.5,2528.6z"/>
</g>
<g>
	<path fill="none" d="M2907.8,2432.5l4-13.3C2910.3,2423.8,2909,2428.2,2907.8,2432.5z"/>
	<path fill="#FFFFFF" d="M3218.5,2438.6c1.7,0.1,3.4,0.3,5.1,0.7l26.9,5.5c5.6,1.1,9.7,6.1,9.7,11.8v0.1l-37.6-5.9
		c-1-0.1-2.1-0.2-3.1-0.3l-309.7-17.9c1.2-4.3,3.7-8.3,5.2-12.9L3218.5,2438.6z"/>
</g>
<g>
	<g>
		<path fill="#AA1520" d="M3235.4,2515.6v-56c0-4.4-1.2-8.8-3.4-12.7l-8-13.9l3.9,0.3l14.7,2.9c10.1,2,17.4,10.7,17.4,20.8v67.6
			c0,9.2-6.4,17.1-15.6,19.3l-12.2,2.8l-6.8,0.4l5.5-11.8C3234,2529.1,3235.4,2522.4,3235.4,2515.6z"/>
	</g>
</g>
<g>
	<g>
		<path fill="#BE1A21" d="M3246.5,2437.3c2.8,4.9,6.3,11.4,7.7,16.5c0.4,1.6,0.6,3.2,0.6,4.9v54.6c0,9.1-5.8,17.4-14.7,20.1
			c-0.8,0.2-1.6,0.4-2.4,0.6c0,0,5.2-14.5,4.5-21.1V2461c0-2.8-0.5-5.7-1.5-8.3l-6.8-18.2l8.9,1.7
			C3244.1,2436.5,3245.3,2436.8,3246.5,2437.3z"/>
	</g>
</g>
</svg>
