<?xml version="1.0" encoding="utf-8"?>
<!-- Generator: Adobe Illustrator 17.1.0, SVG Export Plug-In . SVG Version: 6.00 Build 0)  -->
<!DOCTYPE svg PUBLIC "-//W3C//DTD SVG 1.1//EN" "http://www.w3.org/Graphics/SVG/1.1/DTD/svg11.dtd">
<svg version="1.1" id="Layer_3" xmlns="http://www.w3.org/2000/svg" xmlns:xlink="http://www.w3.org/1999/xlink" x="0px" y="0px"
	 viewBox="0 0 5000 5000" enable-background="new 0 0 5000 5000" xml:space="preserve">
<g opacity="0.2">
	<g>
	</g>
</g>
<path fill="#E05A4C" d="M2642.1,2393.5c-4.2-4.5-8.9-8.4-13.9-12c-25.9-19.2-25.7-76.6-25.7-76.6v-447.7l5-7.1
	c23.2-32.8,21.4-77.9-4.2-108.6l-0.8-0.9V1632c0-3.7-0.2-7.4-0.5-11.1c-10.3-101.5-109.4-100-123.7-99.3c-1.5,0.1-3,0.1-4.5,0.1
	c-55.9,0.8-82,30.2-94.1,56.1c-7.1,15.2-10.5,31.9-10.5,48.8l0,111.6l-9.1,13.8c-18.5,28.2-18.1,65.3,0.8,93.1l8.2,12l-0.1,475
	c1.6,25.9-15.5,45.3-15.5,45.3c-31.8,29.4-44.6,51-44.6,51h359.8C2664.2,2418.3,2650.9,2403,2642.1,2393.5z M2601.5,1806.8
	c0,16.5-14.4,29.8-32.2,29.8h-168.4c-17.8,0-32.2-13.4-32.2-29.8v-21.7c0-16.5,14.4-29.8,32.2-29.8h168.4
	c17.8,0,32.2,13.4,32.2,29.8V1806.8z"/>
<g>
	<path fill="#C64842" d="M2601.5,1785.1v21.7c0,14.4-11,26.4-25.6,29.2v461.5c0,30.6,11.5,60,32,81.9l46.1,49.1h14.7
		c-4.5-10.2-17.8-25.5-26.6-35c-4.2-4.5-8.9-8.4-13.9-12c-25.9-19.2-25.7-76.6-25.7-76.6v-447.7l5-7.1
		c23.2-32.8,21.4-77.9-4.2-108.6l-0.8-0.9V1632c0-3.7-0.2-7.4-0.5-11.1c-2.9-28.7-12.9-49.2-26.1-63.8v198.8
		C2590.5,1758.7,2601.5,1770.7,2601.5,1785.1z"/>
</g>
<g>
	<g>
		<path fill="#C64842" d="M2370.8,1785.1v21.7c0,14.4,11,26.4,25.6,29.2v461.5c0,30.6-11.5,60-32,81.9l-46.1,49.1l-10.6,25
			c4.5-10.2,13.7-50.5,22.5-60c4.2-4.5,8.9-8.4,13.9-12c25.9-19.2,25.7-76.6,25.7-76.6v-447.7l-5-7.1
			c-23.2-32.8-21.4-77.9,4.2-108.6l0.8-0.9V1632c0-3.7,0.2-7.4,0.5-11.1c2.9-28.7,12.9-49.2,26.1-63.8v198.8
			C2381.8,1758.7,2370.8,1770.7,2370.8,1785.1z"/>
	</g>
</g>
<g>
	<path fill="#C64842" d="M2310.3,2765.3c0,0,12.8,21.6,44.6,51c0,0,17.1,19.4,15.5,45.3l0.1,705.6c0,16.9,2.7,34.1,10.5,48.8
		c13.9,26.1,39.9,52.5,94.1,56.1c1.5,0.1,3,0,4.5,0.1c14.3,0.7,113.5,2.2,123.7-99.3c0.4-3.7,0.5-7.4,0.5-11.1v-672.9
		c0,0-0.2-57.4,25.7-76.6c4.9-3.6,9.7-7.5,13.9-12c8.8-9.5,22.1-24.8,26.6-35H2310.3z M2591.2,3541.7c0,52-30,108-78.8,113.6
		c-10.5,1.2-48.6,1.1-48.9,1.1c-56.7-5.4-80.1-57.5-80.1-117.9V2860c0-6.7,5.2-12.1,11.6-12.1h180.8c8.5,0,15.4,7.2,15.4,16.1
		V3541.7z"/>
	<path fill="#E05A4C" d="M2575.8,2847.8H2395c-6.4,0-11.6,5.4-11.6,12.1v678.5c0,60.4,23.4,112.5,80.1,117.9
		c0.3,0,38.4,0.1,48.9-1.1c48.8-5.6,78.8-61.6,78.8-113.6v-677.7C2591.2,2855,2584.3,2847.8,2575.8,2847.8z M2487.3,3132.8
		c7.4,0,13.5,6.3,13.5,14.1s-6,14.1-13.5,14.1s-13.5-6.3-13.5-14.1S2479.8,3132.8,2487.3,3132.8z M2487.3,3194.7
		c7.4,0,13.5,6.3,13.5,14.1c0,7.8-6,14.1-13.5,14.1s-13.5-6.3-13.5-14.1C2473.8,3201,2479.8,3194.7,2487.3,3194.7z M2487.3,3255.4
		c7.4,0,13.5,6.3,13.5,14.1c0,7.8-6,14.1-13.5,14.1s-13.5-6.3-13.5-14.1C2473.8,3261.7,2479.8,3255.4,2487.3,3255.4z M2487.3,3321.3
		c7.4,0,13.5,6.3,13.5,14.1c0,7.8-6,14.1-13.5,14.1s-13.5-6.3-13.5-14.1C2473.8,3327.6,2479.8,3321.3,2487.3,3321.3z M2487.3,3383.2
		c7.4,0,13.5,6.3,13.5,14.1s-6,14.1-13.5,14.1s-13.5-6.3-13.5-14.1S2479.8,3383.2,2487.3,3383.2z M2487.3,3443.9
		c7.4,0,13.5,6.3,13.5,14.1c0,7.8-6,14.1-13.5,14.1s-13.5-6.3-13.5-14.1C2473.8,3450.2,2479.8,3443.9,2487.3,3443.9z M2488.8,3533.6
		c-7.4,0-13.5-6.3-13.5-14.1c0-7.8,6-14.1,13.5-14.1c7.4,0,13.5,6.3,13.5,14.1C2502.3,3527.3,2496.2,3533.6,2488.8,3533.6z"/>
</g>
<path fill="#F4CD98" d="M2605.7,2831h-231c-38.7,0-70.1-32.7-70.1-73.1V2448c0-40.4,31.4-73.1,70.1-73.1h231
	c38.7,0,70.1,32.7,70.1,73.1V2758C2675.8,2798.3,2644.4,2831,2605.7,2831z"/>
<path fill="#B58A61" d="M2601.5,2827.2h-225.4c-37.8,0-68.4-31.9-68.4-71.3v-302.4c0-39.4,30.6-71.3,68.4-71.3h225.4
	c37.8,0,68.4,31.9,68.4,71.3v302.4C2669.8,2795.3,2639.2,2827.2,2601.5,2827.2z"/>
<path fill="#F4CD98" d="M2600.3,2821.9h-221.2c-37.1,0-67.1-31.3-67.1-70v-296.7c0-38.6,30-70,67.1-70h221.2
	c37.1,0,67.1,31.3,67.1,70V2752C2667.4,2790.6,2637.3,2821.9,2600.3,2821.9z"/>
<path fill="#FFE9CA" d="M2596.7,2814.9h-214c-35.9,0-64.9-30.3-64.9-67.7v-287.1c0-37.4,29.1-67.7,64.9-67.7h214
	c35.9,0,64.9,30.3,64.9,67.7v287.1C2661.6,2784.5,2632.5,2814.9,2596.7,2814.9z"/>
<path fill="#050505" d="M2593.9,2809.4h-208.4c-34.9,0-63.2-29.5-63.2-65.9v-279.6c0-36.4,28.3-65.9,63.2-65.9h208.4
	c34.9,0,63.2,29.5,63.2,65.9v279.6C2657.1,2779.8,2628.8,2809.4,2593.9,2809.4z"/>
<path fill="#3F3F3F" d="M2591.5,2804.6h-203.6c-34.1,0-61.8-28.8-61.8-64.4V2467c0-35.6,27.7-64.4,61.8-64.4h203.6
	c34.1,0,61.8,28.8,61.8,64.4v273.2C2653.3,2775.8,2625.6,2804.6,2591.5,2804.6z"/>
<path fill="#050505" d="M2589.5,2800.7h-199.6c-33.4,0-60.6-28.3-60.6-63.1v-267.8c0-34.9,27.1-63.1,60.6-63.1h199.6
	c33.4,0,60.6,28.3,60.6,63.1v267.8C2650.1,2772.4,2622.9,2800.7,2589.5,2800.7z"/>
<g>
	<path fill="#494849" d="M2650.1,2469.7c0-34.9-27.1-63.1-60.6-63.1h-199.6c-9.9,0-19.3,2.5-27.6,6.9l287.7,298.5V2469.7z"/>
</g>
<g>
	<path fill="#727172" d="M2637,2441.5l10.2,9c-7.8-25.5-30.7-43.9-57.7-43.9h-199.6c-9.9,0-19.3,2.5-27.6,6.9l2.7,2.8h206.1
		C2595.2,2416.3,2618.6,2425.2,2637,2441.5z"/>
</g>
<g>
	<g>
		<g>
			<path fill="#727172" d="M2627.8,2775.6c-11,9.4-24.8,14.6-39.1,14.6h-232.3c9.6,6.6,21.1,10.5,33.4,10.5h199.6
				c25.9,0,48-17,56.7-40.9L2627.8,2775.6z"/>
		</g>
	</g>
</g>
<path fill="#F4CD98" d="M2671,2725.4h-0.1V2611h4.1c5,0,9.1,4.2,9.1,9.5v91.3C2684.1,2719.3,2678.3,2725.4,2671,2725.4z"/>
<g>
	<g>
		<path fill="#DDB07A" d="M2677.5,2723.6l3.5-3C2680,2721.8,2678.8,2722.8,2677.5,2723.6z"/>
		<g>
			<path fill="#DDB07A" d="M2677.5,2611.4v112.2c1.3-0.8,2.5-1.8,3.5-3v-107.2C2680,2612.4,2678.8,2611.7,2677.5,2611.4z"/>
		</g>
	</g>
</g>
<g>
	<path fill="none" d="M2677.5,2723.6c-0.9,0.6-2,1-3,1.3L2677.5,2723.6z"/>
	<path fill="#FFF5EB" d="M2675.7,2611l-1.2,113.9c1.1-0.3,2.1-0.7,3-1.3v-112.2C2676.9,2611.2,2676.3,2611.1,2675.7,2611z"/>
</g>
<path fill="#B58A61" d="M2674.3,2487.6c-4.2,9.8-13.4,37.5-0.1,68.3c1.1,2.5,3.4,4.1,6,4.1h9.5c2.3,0,4.5-1.4,5.4-3.6
	c0.7-1.6,1.3-3.9,1.6-6.9v-54.8c0-3.5-1.4-6.8-4.1-8.9c0,0-0.1-0.1-0.1-0.1c-1.6-1.2-3.5-1.7-5.5-1.7h-7.1
	C2677.5,2483.8,2675.3,2485.3,2674.3,2487.6z"/>
<g>
	<g>
		<g>
			<path fill="#C69A75" d="M2695,2488.2c-0.6-0.9-1.3-1.8-2.2-2.5c0,0-0.1-0.1-0.1-0.1c-1.1-0.9-2.5-1.4-3.9-1.7
				c-4.9,0.5-13,2.1-17,10.1c-0.6,1.8-0.4,1.4-1.1,3.7C2674.7,2492.7,2682.3,2486.7,2695,2488.2z"/>
		</g>
	</g>
</g>
<g>
	<g>
		<g>
			<path fill="#C69A75" d="M2694.9,2555.8c-0.6,0.9-1.3,1.7-2.1,2.4c0,0-0.1,0.1-0.1,0.1c-1.1,0.9-2.4,1.4-3.8,1.6
				c-4.9-0.5-12.8-2-16.7-9.6c-0.6-1.7-0.7-1.3-1.3-3.6C2674.8,2551.4,2682.5,2557.2,2694.9,2555.8z"/>
		</g>
	</g>
</g>
<path fill="#C69A75" d="M2670.7,2507.9v27.7c0,4,2.6,7.7,6.7,8.9c2.9,0.9,6.6,1.1,10.8-0.6c1.4-0.6,2.6-1.5,3.5-2.6l2.7-3.1
	c1.5-1.7,2.3-3.8,2.3-6v-20.9c0-1.5-0.4-3-1.2-4.4l-1-1.7c-0.9-1.7-2.4-3-4.2-3.9c-2-1-4.9-2.2-8-2.8
	C2676.2,2497.5,2670.7,2502.1,2670.7,2507.9z"/>
<path fill="#E2C0A8" d="M2676.3,2509.7v24.1c0,3.5,2.1,6.7,5.2,7.7c2.3,0.8,5.2,1,8.4-0.5c1.1-0.5,2-1.3,2.8-2.3l2.1-2.7
	c1.2-1.5,1.8-3.3,1.8-5.2v-18.2c0-1.3-0.3-2.6-0.9-3.8l-0.8-1.5c-0.7-1.5-1.9-2.7-3.3-3.4c-1.6-0.9-3.8-1.9-6.2-2.4
	C2680.7,2500.7,2676.3,2504.7,2676.3,2509.7z"/>
<g>
	<g>
		<g>
			<path fill="#D6A885" d="M2693.2,2487.5c-0.6-0.8-1.3-1.5-2.1-2c0,0-0.1-0.1-0.1-0.1c-1.1-0.7-2.4-1.1-3.7-1.2
				c-4.6,0.7-12,2.4-15.4,9.4c-0.5,1.6-0.3,1.2-0.9,3.2C2674.5,2492.3,2681.4,2486.8,2693.2,2487.5z"/>
		</g>
	</g>
</g>
<g>
	<g>
		<g>
			<path fill="#D6A885" d="M2692.7,2556.1c-0.6,0.7-1.3,1.4-2.1,1.9c0,0-0.1,0.1-0.1,0.1c-1.1,0.7-2.3,1.1-3.6,1.2
				c-4.5-0.6-11.8-2.3-15.1-9c-0.5-1.5-0.3-1.2-0.9-3.1C2674.4,2551.5,2681.2,2556.7,2692.7,2556.1z"/>
		</g>
	</g>
</g>
<rect x="2687.6" y="2507.9" fill="#B58A61" width="9" height="1.5"/>
<rect x="2687.6" y="2514.6" fill="#B58A61" width="9" height="1.3"/>
<rect x="2687.6" y="2520.6" fill="#B58A61" width="9" height="1.5"/>
<rect x="2687.6" y="2526.7" fill="#B58A61" width="9" height="1.5"/>
<rect x="2687.6" y="2532.5" fill="#B58A61" width="9" height="1.5"/>
<rect x="2687.6" y="2502.1" fill="#B58A61" width="9" height="1.5"/>
<rect x="2687.6" y="2538.5" fill="#B58A61" width="9" height="1.6"/>
<rect x="2687.6" y="2496.2" fill="#AA7B55" width="9" height="1.1"/>
<rect x="2687.6" y="2545.1" fill="#AA7B55" width="9" height="1.5"/>
<ellipse fill="#999998" cx="2486.5" cy="1618.3" rx="39.2" ry="40.9"/>
<g>
	<path fill="#B2B2B2" d="M2525.7,1618.3c0-22.6-17.5-40.9-39.2-40.9c-8.8,0-16.9,3-23.4,8.1l51.3,61.5
		C2521.4,1639.6,2525.7,1629.5,2525.7,1618.3z"/>
</g>
<g>
	<path fill="none" d="M2525.1,1611.1l-13.6-24.4C2518.5,1592.8,2523.4,1601.3,2525.1,1611.1z"/>
	<path fill="#E2E2DC" d="M2511.4,1586.7l-25.6,25.9l7.5,9l31.8-10.6C2523.4,1601.3,2518.5,1592.8,2511.4,1586.7z"/>
</g>
<ellipse fill="#494948" cx="2487.5" cy="1618.3" rx="14.8" ry="15.4"/>
<ellipse fill="#D8D8D8" cx="2487.5" cy="1618.3" rx="13.5" ry="14.1"/>
<g>
	<path fill="#EAEAEA" d="M2501,1618.3c0-7.8-6-14.1-13.5-14.1c-2.7,0-5.2,0.8-7.3,2.2l17.6,20.9
		C2499.8,1624.9,2501,1621.7,2501,1618.3z"/>
</g>
<g>
	<path fill="none" d="M2501,1618.3c0,0.5-0.1,0.9-0.1,1.4l-7.8-14.1C2497.8,1607.7,2501,1612.6,2501,1618.3z"/>
	<path fill="#FFFFFD" d="M2501,1618.3c0-5.7-3.2-10.6-7.9-12.8l-7.1,7.8l7.2,8.6l7.6-2.3C2500.9,1619.2,2501,1618.7,2501,1618.3z"/>
</g>
</svg>
