<?xml version="1.0" encoding="utf-8"?>
<!-- Generator: Adobe Illustrator 17.1.0, SVG Export Plug-In . SVG Version: 6.00 Build 0)  -->
<!DOCTYPE svg PUBLIC "-//W3C//DTD SVG 1.1//EN" "http://www.w3.org/Graphics/SVG/1.1/DTD/svg11.dtd">
<svg version="1.1" id="Layer_2" xmlns="http://www.w3.org/2000/svg" xmlns:xlink="http://www.w3.org/1999/xlink" x="0px" y="0px"
	 viewBox="0 0 5000 5000" enable-background="new 0 0 5000 5000" xml:space="preserve">
<g>
	<g opacity="0.35">
		<path d="M2259.1,2721.7c0,0,62.5,114.4,217.9,144.6c0,0,227,38.8,319.9-189c0,0,54.8-128.7,0-321.7l-0.9-78.6
			c0,0,89.3,146.2,61.9,325.7c0,0-27.4,231.9-236.2,292.3c0,0-255.5,71.4-385.6-147.7c0,0-16.6-17.1-7.5-32.4
			C2228.6,2714.8,2246.7,2703.1,2259.1,2721.7z"/>
	</g>
	<g>
		<path d="M2277.1,2713.7c0,0,62.5,114.4,217.9,144.6c0,0,227,38.8,319.9-189c0,0,54.8-128.7,0-321.7l-0.9-78.6
			c0,0,89.3,146.2,61.9,325.7c0,0-27.4,231.9-236.2,292.3c0,0-255.5,71.4-385.6-147.7c0,0-16.6-17.1-7.5-32.4
			C2246.6,2706.8,2264.7,2695.1,2277.1,2713.7z"/>
	</g>
</g>
<g>
	<g opacity="0.35">
		<path d="M2240.4,2302c8.6-1.9,16.6-12.9,39.7-44.9c0,0,79.4-107.2,222.8-119.6c17.4-1.5,34.8-0.6,52,2.5
			c51.6,9.1,168.8,38.2,209.7,119.8c2.1,4.2,3,9,3,13.7v72c0,14.4,2.4,28.7,7,42.3l10.2,29.9c3.4,10.1,5.2,20.7,5.2,31.5v121.8
			c0,5.1-0.4,10.1-1.3,15c-2.8,16.2-8.7,56.7-1.8,76.1c1,2.8,4.7,3.1,6,0.4c11.8-23.7,52.6-123.7,11.3-311.1
			c-0.9-3.9-1.4-7.9-1.5-11.8l-2-78.9c-0.4-9.7-3.8-18.9-9.6-26.4c-7.8-10-19.3-28.5-37-45.2c-123.8-117.2-314.1-121.8-444.7-12.8
			c-20.9,17.4-40.7,38.5-57.9,63.9c0,0-25.9,33.9-25.9,50.9C2225.9,2298.6,2233.3,2303.6,2240.4,2302z"/>
	</g>
	<g>
		<path d="M2258.4,2294c8.6-1.9,16.6-12.9,39.7-44.9c0,0,79.4-107.2,222.8-119.6c17.4-1.5,34.8-0.6,52,2.5
			c51.6,9.1,168.8,38.2,209.7,119.8c2.1,4.2,3,9,3,13.7v72c0,14.4,2.4,28.7,7,42.3l10.2,29.9c3.4,10.1,5.2,20.7,5.2,31.5v121.8
			c0,5.1-0.4,10.1-1.3,15c-2.8,16.2-8.7,56.7-1.8,76.1c1,2.8,4.7,3.1,6,0.4c11.8-23.7,52.6-123.7,11.3-311.1
			c-0.9-3.9-1.4-7.9-1.5-11.8l-2-78.9c-0.4-9.7-3.8-18.9-9.6-26.4c-7.8-10-19.3-28.5-37-45.2c-123.8-117.2-314.1-121.8-444.7-12.8
			c-20.9,17.4-40.7,38.5-57.9,63.9c0,0-25.9,33.9-25.9,50.9C2243.9,2290.6,2251.3,2295.6,2258.4,2294z"/>
	</g>
</g>
<g>
	<g opacity="0.35">
		<path d="M2226.4,2742h-1.2c-32.1,0-58.2-26.8-58.2-59.8v-350.7c0-33,26.1-59.8,58.2-59.8h1.2c32.1,0,58.2,26.8,58.2,59.8v350.7
			C2284.6,2715.2,2258.6,2742,2226.4,2742z"/>
	</g>
	<g>
		<path fill="#E9CBB5" d="M2244.4,2734h-1.2c-32.1,0-58.2-26.8-58.2-59.8v-350.7c0-33,26.1-59.8,58.2-59.8h1.2
			c32.1,0,58.2,26.8,58.2,59.8v350.7C2302.6,2707.2,2276.6,2734,2244.4,2734z"/>
	</g>
</g>
<g>
	<path fill="none" d="M2191.2,2700.9c-4.5-1.8-9.3-5.4-14.2-11.4l27.9,54c0,0,6.5-5.9,14.6-14.5
		C2207.2,2723.4,2197.2,2713.4,2191.2,2700.9z"/>
	<path fill="#877164" d="M2252.1,2665.8v-329.9c0-20.1-6.4-40-19.3-55c-4-4.6-8.5-8.8-13.6-11.9c-11.2,5.2-20.5,14-26.6,25
		c14-3.3,33.1-2.6,39,23.2c0.9,3.8,1.2,7.8,1.2,11.7v323.9c0,15.4-5.4,30.6-16.1,41.1c-6.9,6.7-15.6,11.2-25.5,7.2
		c6,12.5,16,22.5,28.3,28.1c6.9-7.3,15-16.5,21.4-25.9C2248.4,2692.3,2252.1,2679.1,2252.1,2665.8z"/>
</g>
<g>
	<path fill="#FFEEE3" d="M2210.5,2673.8c0-0.1,0-0.2,0-0.3V2341c0-15.4-8.1-29.5-21-36.9l-1-0.6c-2.1,6.2-3.3,12.9-3.3,19.9v350.7
		c0,11.4,3.1,22.1,8.5,31.2C2203.7,2698.3,2210.4,2686.7,2210.5,2673.8z"/>
</g>
<path fill="#9E8677" d="M2193,2693.2h-6.7c-2,0-3.6-1.7-3.6-3.8v-372.7c0-2.1,1.6-3.8,3.6-3.8h6.7c2,0,3.6,1.7,3.6,3.8v372.7
	C2196.6,2691.5,2195,2693.2,2193,2693.2z"/>
<path fill="#C8C4C2" d="M2189.9,2690.1h-4.3c-1.3,0-2.3-1.7-2.3-3.7v-366.6c0-2,1-3.7,2.3-3.7h4.3c1.3,0,2.3,1.7,2.3,3.7v366.6
	C2192.2,2688.5,2191.2,2690.1,2189.9,2690.1z"/>
<g>
	<g>
		<g>
			<path fill="#FFEEE3" d="M2258.5,2265.9c18.6,14.5,38.8,41.9,34.2,91.6l0.2,310c0,16.2-4.6,32.1-13.2,45.6
				c-2.8,4.3-5.9,9.1-9.4,14c18.1-10,30.5-29.9,30.5-52.8v-350.7C2300.9,2295.9,2282.9,2272.8,2258.5,2265.9z"/>
		</g>
	</g>
</g>
<ellipse fill="#877164" cx="2232.6" cy="2404.6" rx="38.6" ry="40.2"/>
<ellipse fill="#E9CBB5" cx="2232.6" cy="2404.6" rx="35.3" ry="36.8"/>
<ellipse fill="#FCEADE" cx="2232.6" cy="2404.6" rx="30.3" ry="31.6"/>
<path fill="#514138" d="M2302.6,2345.5v301.8l1.4-1.2c12-9.7,19.1-24.7,19-40.5c0,0-0.8-102-2.5-127.5c-0.7-10.1-2.2-20.2,1.5-52.4
	c0.5-4.5,0.8-9.1,0.8-13.7v-20.3c0-12.2-3.9-24.1-11-33.7L2302.6,2345.5z"/>
<path fill="#E8E7E6" d="M2188.4,2690.1h-1.2c-0.3,0-0.6-1.7-0.6-3.7v-366.6c0-2,0.3-3.7,0.6-3.7h1.2c0.3,0,0.6,1.7,0.6,3.7v366.6
	C2189,2688.5,2188.7,2690.1,2188.4,2690.1z"/>
<path fill="#EFEEED" d="M2277.1,2713.7c0,0,62.5,114.4,217.9,144.6c0,0,227,38.8,319.9-189c0,0,54.8-128.7,0-321.7l-0.9-78.6
	c0,0,89.3,146.2,61.9,325.7c0,0-27.4,231.9-236.2,292.3c0,0-255.5,71.4-385.6-147.7c0,0-16.6-17.1-7.5-32.4
	C2246.6,2706.8,2264.7,2695.1,2277.1,2713.7z"/>
<path fill="#EFEEED" d="M2258.4,2294c8.6-1.9,16.6-12.9,39.7-44.9c0,0,79.4-107.2,222.8-119.6c17.4-1.5,34.8-0.6,52,2.5
	c51.6,9.1,168.8,38.2,209.7,119.8c2.1,4.2,3,9,3,13.7v72c0,14.4,2.4,28.7,7,42.3l10.2,29.9c3.4,10.1,5.2,20.7,5.2,31.5v121.8
	c0,5.1-0.4,10.1-1.3,15c-2.8,16.2-8.7,56.7-1.8,76.1c1,2.8,4.7,3.1,6,0.4c11.8-23.7,52.6-123.7,11.3-311.1
	c-0.9-3.9-1.4-7.9-1.5-11.8l-2-78.9c-0.4-9.7-3.8-18.9-9.6-26.4c-7.8-10-19.3-28.5-37-45.2c-123.8-117.2-314.1-121.8-444.7-12.8
	c-20.9,17.4-40.7,38.5-57.9,63.9c0,0-25.9,33.9-25.9,50.9C2243.9,2290.6,2251.3,2295.6,2258.4,2294z"/>
<g>
	<g opacity="0.35">
		<path d="M2767.7,2290.8c0,0-138.9-165.2-304.9-127.1c0,0-39.9,13.8-47.3-7.9c0,0,197.3-88.3,355.6,99.2L2767.7,2290.8z"/>
	</g>
	<g>
		<path fill="#EFEEED" d="M2785.7,2282.8c0,0-138.9-165.2-304.9-127.1c0,0-39.9,13.8-47.3-7.9c0,0,197.3-88.3,355.6,99.2
			L2785.7,2282.8z"/>
	</g>
</g>
<g>
	<path fill="#CECECE" d="M2812.9,2580l5.4-140.5c0.3-8.6-0.7-17.2-3.2-25.4l-14.5-49.4c-1.1-3.8-1.7-7.7-1.7-11.6v-70
		c0-10.1-2-20.2-6.4-29.3c-63.7-130.2-250.4-134.6-250.4-134.6c-170.1,3.7-256.7,123.4-286.3,175.1c0.8,0,1.7-0.1,2.5-0.3
		c8.6-1.9,16.6-12.9,39.7-44.9c0,0,79.4-107.2,222.8-119.6c17.4-1.5,34.8-0.6,52,2.5c51.6,9.1,168.8,38.2,209.7,119.8
		c2.1,4.2,3,9,3,13.7v72c0,14.4,2.4,28.7,7,42.3l10.2,29.9c3.4,10.1,5.2,20.7,5.2,31.5v121.8c0,5.1-0.4,10.1-1.3,15
		c-2.8,16.2-8.7,56.7-1.8,76.1c0.3,0.8,0.8,1.3,1.3,1.7c0.4-26,4-54,5.6-65.2C2812.5,2587.1,2812.8,2583.6,2812.9,2580z"/>
</g>
<g>
	<g>
		<path fill="#CECECE" d="M2814,2268.9l0.2,18.7c102.8,204.6,39.7,365.1,39.7,365.1c-85.3,260.5-312.3,238.3-312.3,238.3
			c-198.3,0-279.6-151.4-294.9-184.3c0,0-0.1,0-0.1,0c-9.1,15.3,7.5,32.4,7.5,32.4c130.1,219.1,385.6,147.7,385.6,147.7
			c208.7-60.4,236.2-292.3,236.2-292.3C2903.3,2415.1,2814,2268.9,2814,2268.9z"/>
	</g>
</g>
<g>
	<g>
		<g>
			<path fill="#D8D7D6" d="M2822.3,2343.4c-0.9-3.9-1.4-7.9-1.5-11.8l-2-78.9c-0.4-9.7-3.8-18.9-9.6-26.4c-7.8-10-19.3-28.5-37-45.2
				c-123.8-117.2-314.1-121.8-444.7-12.8c-20.9,17.4-40.7,38.5-57.9,63.9c0,0-25.9,33.9-25.9,50.9c0,1.2,0.2,2.3,0.6,3.4
				c16.9-35,82.3-150,223.4-183.3c54.3-12.8,99.6-11.3,145.8,0.4c59.9,15.1,145.6,49.6,191.8,127.7c4.9,8.2,8.6,23,8.6,32.6v70
				c0,3.9,0.6,7.9,1.7,11.6l19.4,99.9c3.7,20.8,0.5,79.2-1.2,104.8c-0.5,8-1.7,15.8-3.6,23.6c-3.7,15.3-10,41.9-12.5,65.4
				C2833,2599.8,2857.7,2503.5,2822.3,2343.4z"/>
		</g>
	</g>
</g>
<g>
	<g>
		<path fill="#CECECE" d="M2599,2155.7c-66.2-17.9-114.8-5.2-129.7-0.2c-5.5,1.8-11.3,2.5-16.9,1.2c-7.2-1.8-12.3-5.9-15.8-10.2
			c-2,0.8-3.1,1.3-3.1,1.3c7.5,21.7,47.4,7.9,47.4,7.9c166.1-38.1,304.9,127.1,304.9,127.1l0.1-0.6
			C2709.1,2183.4,2599,2155.7,2599,2155.7z"/>
	</g>
</g>
</svg>
