<?xml version="1.0" encoding="utf-8"?>
<!-- Generator: Adobe Illustrator 17.1.0, SVG Export Plug-In . SVG Version: 6.00 Build 0)  -->
<!DOCTYPE svg PUBLIC "-//W3C//DTD SVG 1.1//EN" "http://www.w3.org/Graphics/SVG/1.1/DTD/svg11.dtd">
<svg version="1.1" id="Layer_3" xmlns="http://www.w3.org/2000/svg" xmlns:xlink="http://www.w3.org/1999/xlink" x="0px" y="0px"
	 viewBox="0 0 5000 5000" enable-background="new 0 0 5000 5000" xml:space="preserve">
<path fill="#A5543C" d="M2943.9,2924.1H1977c-15.7,0-28.4-12.7-28.4-28.4v-818.9c0-15.7,12.7-28.4,28.4-28.4h981.1
	c76.1,0,137.8,61.7,137.8,137.8v585.8C3095.9,2856,3027.9,2924.1,2943.9,2924.1z"/>
<path fill="#4CC1AA" d="M2938,2918h-953.5c-15.5,0-28-12.5-28-28v-807.5c0-15.5,12.5-28,28-28H2952c75.1,0,135.9,60.9,135.9,135.9
	v577.7C3088,2850.9,3020.8,2918,2938,2918z"/>
<path fill="#C36C4A" d="M2928.5,2920.3h-944.2c-15.3,0-27.7-12.2-27.7-27.2V2107c0-15,12.4-27.2,27.7-27.2h958.1
	c74.3,0,134.6,59.2,134.6,132.3v562.3C3077,2854.9,3010.5,2920.3,2928.5,2920.3z"/>
<g>
	<path fill="#B55F45" d="M3017.2,2837.1c-31,25.6-70.7,38.4-110.9,38.4h-817.8c-23.5,0-42.6-19.1-42.6-42.6V2066h-61.6
		c-15.3,0-27.7,12.2-27.7,27.2v786.1c0,15,12.4,27.2,27.7,27.2h944.2c82,0,148.5-65.3,148.5-145.9v-35.2
		C3069.3,2779.8,3044.2,2814.7,3017.2,2837.1z"/>
</g>
<g>
	<g>
		<g>
			<path fill="#B55F45" d="M2909.5,2082.2c69.6,0,133.7,39.9,162.5,103.3c1.7,3.7,3.3,7.6,4.9,11.6
				c-0.7-72.5-60.6-131.1-134.5-131.1h-895.1v16.2H2909.5z"/>
		</g>
	</g>
</g>
<path fill="#9E4B38" d="M1972.8,2924.1l-0.2-0.1c-14-3.5-23.9-16.2-23.8-30.7l-0.1-825.3c0-12.6,11.6-22,23.9-19.4l0.2,0.1V2924.1z"
	/>
<g>
	<g>
		
			<line fill="none" stroke="#CC9E97" stroke-width="5" stroke-linecap="round" stroke-linejoin="round" x1="2047.3" y1="2082.2" x2="2053.3" y2="2082.2"/>
		
			<path fill="none" stroke="#CC9E97" stroke-width="5" stroke-linecap="round" stroke-linejoin="round" stroke-dasharray="12.0197,12.0197" d="
			M2065.3,2082.2h859.5c18.9,0,37.7,3.1,55.3,10c32.6,12.9,74.7,41.7,78,104.9v555c0,48.3-24.9,94.3-67.3,117.4
			c-17.9,9.7-40.2,16.7-67.9,18.1h-863.7"/>
		
			<line fill="none" stroke="#CC9E97" stroke-width="5" stroke-linecap="round" stroke-linejoin="round" x1="2053.3" y1="2887.6" x2="2047.3" y2="2887.6"/>
	</g>
</g>
<path fill="#AD583D" d="M2948,2615.2l-175.5-121.4c-5.3-3.7-5.3-11.5,0-15.1l175.5-120.2v48.6l-104.5,75.2c-3.1,2.2-3,6.8,0.1,8.9
	l80,53.8v-29.7l-30-24.2c-2.5-2-2.3-6,0.4-7.8l44.6-29.4c4-2.6,9.4,0.2,9.4,5V2615.2z"/>
</svg>
