<?xml version="1.0" encoding="utf-8"?>
<!-- Generator: Adobe Illustrator 17.1.0, SVG Export Plug-In . SVG Version: 6.00 Build 0)  -->
<!DOCTYPE svg PUBLIC "-//W3C//DTD SVG 1.1//EN" "http://www.w3.org/Graphics/SVG/1.1/DTD/svg11.dtd">
<svg version="1.1" id="Layer_3" xmlns="http://www.w3.org/2000/svg" xmlns:xlink="http://www.w3.org/1999/xlink" x="0px" y="0px"
	 viewBox="0 0 5000 5000" enable-background="new 0 0 5000 5000" xml:space="preserve">
<g opacity="0.72">
	<g opacity="0.4">
		<path d="M3058.6,2344.7l-197.8,116.6c-11.7,6.9-24.1,12.6-37,17.1c-46.3,16.1-171.1,62.4-290,132.7c0,0-35.1,18-28.2,46.9
			c1.7,7.4,7.3,13.4,14.8,16c13.1,4.7,38.1,7.2,73-17.2c0,0,99.9-76.4,132.8-97.7c0,0,48.1-39.1,94.5-36.8c0,0,37.7,1.6,59.3,8
			c8.9,2.6,18.6,1.3,26.4-3.5l179.2-111.5L3058.6,2344.7z"/>
	</g>
	<g>
		<path d="M3076.6,2341.7l-197.8,116.6c-11.7,6.9-24.1,12.6-37,17.1c-46.3,16.1-171.1,62.4-290,132.7c0,0-35.1,18-28.2,46.9
			c1.7,7.4,7.3,13.4,14.8,16c13.1,4.7,38.1,7.2,73-17.2c0,0,99.9-76.4,132.8-97.7c0,0,48.1-39.1,94.5-36.8c0,0,37.7,1.6,59.3,8
			c8.9,2.6,18.6,1.3,26.4-3.5l179.2-111.5L3076.6,2341.7z"/>
	</g>
</g>
<g opacity="0.72">
	<g opacity="0.4">
		<path d="M1960.7,2338.3l195.2,123.8c11.5,7.3,23.8,13.4,36.6,18.3c46,17.5,169.7,67.7,287,142.3c0,0,34.7,19.3,27.2,48.7
			c-1.9,7.5-7.5,13.5-15.1,16c-13.2,4.5-38.3,6.5-72.6-19.2c0,0-77.6-63.5-117.6-93.5c-7.2-5.4-14.2-11-20.8-17.1
			c-14.3-13.2-46.6-38.6-81-37.7c0,0-42.5,6.3-64.2,12.3c-9,2.5-18.6,0.9-26.3-4.2l-176.8-118.1L1960.7,2338.3z"/>
	</g>
	<g>
		<path d="M1978.7,2335.3l195.2,123.8c11.5,7.3,23.8,13.4,36.6,18.3c46,17.5,169.7,67.7,287,142.3c0,0,34.7,19.3,27.2,48.7
			c-1.9,7.5-7.5,13.5-15.1,16c-13.2,4.5-38.3,6.5-72.6-19.2c0,0-77.6-63.5-117.6-93.5c-7.2-5.4-14.2-11-20.8-17.1
			c-14.3-13.2-46.6-38.6-81-37.7c0,0-42.5,6.3-64.2,12.3c-9,2.5-18.6,0.9-26.3-4.2l-176.8-118.1L1978.7,2335.3z"/>
	</g>
</g>
<g opacity="0.72">
	<g opacity="0.4">
		<path d="M1863.4,2313.4l9.2,68.3c0.4,3.2,2.9,5.8,6.1,6.3c8.5,1.5,24.7,7.5,29.6,32.1c1.6,7.9,3,15.8,4.9,23.5
			c10.4,41.2,39.2,154,50,173.7c0,0,22.8,71.1,171.7,73.9c2.5,0.1,5.1,0.2,7.6,0.3c22.3,1.1,159.2,3.6,232.6-95.3
			c0,0,68.4-97,86.4-163.2c0,0,14.6-27.5,44-29l0.7-64.6c0,0-111.6-17.7-146.4-29.4c-10-3.4-20-6.3-30.4-8.3
			c-61.4-12.2-249.6-40.5-430.6-5.4l85.6,52.5c0,0,46.7-46.5,209.6-37.8c0,0,111,7.5,172.9,40.2c23,12.1,37.9,34.9,39.5,60
			c1.7,26.9-1.8,69.3-27.1,120.5c0,0-47.3,106-154.3,126.9c0,0-153.2,26-221.8-32.9c0,0-33-21.1-41.6-124.5
			c-0.6-7.5-1.7-15.1-1.5-22.7c0.7-27,3.3-95.2,12.6-110.5c0,0,23.5-37.1,30.8-45.3l-66.1-25.6c0,0-27.2-9.3-69.2,8.2
			C1864.9,2306.6,1863,2310,1863.4,2313.4z"/>
	</g>
	<g>
		<path d="M1881.4,2310.4l9.2,68.3c0.4,3.2,2.9,5.8,6.1,6.3c8.5,1.5,24.7,7.5,29.6,32.1c1.6,7.9,3,15.8,4.9,23.5
			c10.4,41.2,39.2,154,50,173.7c0,0,22.8,71.1,171.7,73.9c2.5,0.1,5.1,0.2,7.6,0.3c22.3,1.1,159.2,3.6,232.6-95.3
			c0,0,68.4-97,86.4-163.2c0,0,14.6-27.5,44-29l0.7-64.6c0,0-111.6-17.7-146.4-29.4c-10-3.4-20-6.3-30.4-8.3
			c-61.4-12.2-249.6-40.5-430.6-5.4l85.6,52.5c0,0,46.7-46.5,209.6-37.8c0,0,111,7.5,172.9,40.2c23,12.1,37.9,34.9,39.5,60
			c1.7,26.9-1.8,69.3-27.1,120.5c0,0-47.3,106-154.3,126.9c0,0-153.2,26-221.8-32.9c0,0-33-21.1-41.6-124.5
			c-0.6-7.5-1.7-15.1-1.5-22.7c0.7-27,3.3-95.2,12.6-110.5c0,0,23.5-37.1,30.8-45.3l-66.1-25.6c0,0-27.2-9.3-69.2,8.2
			C1882.9,2303.6,1881,2307,1881.4,2310.4z"/>
	</g>
</g>
<g opacity="0.72">
	<g opacity="0.4">
		<path d="M3161,2327.9l-10.7,68.2c-0.5,3.1-3,5.7-6.3,6.2c-8.5,1.3-24.9,7-30.3,31.4c-1.7,7.8-3.3,15.7-5.4,23.4
			c-11.2,41-42.5,153.1-53.7,172.5c0,0-24.3,70.6-173.3,70c-2.5,0-5.1,0.1-7.6,0.1c-22.3,0.6-159.3,0.1-230.5-100.5
			c0,0-66.3-98.5-82.9-165.1c0,0-14-27.8-43.4-30l0.7-64.6c0,0,111.9-15.2,147-26.1c10-3.1,20.2-5.8,30.5-7.7
			c61.6-10.8,249.9-34.7,430.2,4.5l-86.3,50.4c0,0-45.7-47.6-208.7-42.5c0,0-111.1,5-173.7,36.3c-23.2,11.6-38.7,34.1-40.7,59.1
			c-2.2,26.8,0.3,69.3,24.6,121c0,0,45,107,151.5,130.4c0,0,152.6,29.4,222.5-27.9c0,0,34.5-20.4,44.2-123.6c0.7-7.5,2-15,2-22.6
			c-0.1-27.1-1.2-95.2-10.3-110.7c0,0-22.7-37.6-29.8-46l66.6-24.2c0,0,27.4-8,69,9.8C3159.6,2321,3161.5,2324.4,3161,2327.9z"/>
	</g>
	<g>
		<path d="M3179,2324.9l-10.7,68.2c-0.5,3.1-3,5.7-6.3,6.2c-8.5,1.3-24.9,7-30.3,31.4c-1.7,7.8-3.3,15.7-5.4,23.4
			c-11.2,41-42.5,153.1-53.7,172.5c0,0-24.3,70.6-173.3,70c-2.5,0-5.1,0.1-7.6,0.1c-22.3,0.6-159.3,0.1-230.5-100.5
			c0,0-66.3-98.5-82.9-165.1c0,0-14-27.8-43.4-30l0.7-64.6c0,0,111.9-15.2,147-26.1c10-3.1,20.2-5.8,30.5-7.7
			c61.6-10.8,249.9-34.7,430.2,4.5l-86.3,50.4c0,0-45.7-47.6-208.7-42.5c0,0-111.1,5-173.7,36.3c-23.2,11.6-38.7,34.1-40.7,59.1
			c-2.2,26.8,0.3,69.3,24.6,121c0,0,45,107,151.5,130.4c0,0,152.6,29.4,222.5-27.9c0,0,34.5-20.4,44.2-123.6c0.7-7.5,2-15,2-22.6
			c-0.1-27.1-1.2-95.2-10.3-110.7c0,0-22.7-37.6-29.8-46l66.6-24.2c0,0,27.4-8,69,9.8C3177.6,2318,3179.5,2321.4,3179,2324.9z"/>
	</g>
</g>
<path fill="#7F5A2F" d="M3081.3,2344.9l-197.8,119.4c-11.7,7-24.1,12.9-37,17.5c-46.3,16.5-171.1,63.9-290,135.8
	c0,0-35.1,18.5-28.2,48c1.7,7.5,7.2,13.6,14.7,16.4c13.1,4.8,38.1,7.3,73-17.6c0,0,78.9-61.8,119.6-90.8
	c7.3-5.2,14.4-10.7,21.1-16.6c14.6-12.8,47.4-37.6,81.8-35.8c0,0,42.4,7.2,64,13.7c8.9,2.7,18.6,1.4,26.4-3.6l179.3-114.1
	L3081.3,2344.9z"/>
<path fill="#9E7C4F" d="M3076.6,2341.7l-197.8,116.6c-11.7,6.9-24.1,12.6-37,17.1c-46.3,16.1-171.1,62.4-290,132.7
	c0,0-35.1,18-28.2,46.9c1.7,7.4,7.3,13.4,14.8,16c13.1,4.7,38.1,7.2,73-17.2c0,0,99.9-76.4,132.8-97.7c0,0,48.1-39.1,94.5-36.8
	c0,0,37.7,1.6,59.3,8c8.9,2.6,18.6,1.3,26.4-3.5l179.2-111.5L3076.6,2341.7z"/>
<path fill="#7F5A2F" d="M1978.7,2335.3l195.2,123.8c11.5,7.3,23.8,13.4,36.6,18.3c46,17.5,169.7,67.7,287,142.3
	c0,0,34.7,19.3,27.2,48.7c-1.9,7.5-7.5,13.5-15.1,16c-13.2,4.5-38.3,6.5-72.6-19.2c0,0-77.6-63.5-117.6-93.5
	c-7.2-5.4-14.2-11-20.8-17.1c-14.3-13.2-46.6-38.6-81-37.7c0,0-42.5,6.3-64.2,12.3c-9,2.5-18.6,0.9-26.3-4.2l-176.8-118.1
	L1978.7,2335.3z"/>
<path fill="#9E7C4F" d="M1983.4,2340.5l195.3,118.5c11.5,7,23.8,12.9,36.7,17.5c46,16.8,169.8,64.9,287.1,136.3
	c0,0,34.7,18.4,27.2,46.5c-1.9,7.2-7.5,12.9-15.1,15.4c-13.2,4.3-38.3,6.2-72.6-18.5c0,0-98.2-77-130.7-98.5
	c0,0-47.3-39.4-93.7-38.1c0,0-37.7,0.7-59.4,6.5c-9,2.4-18.6,0.9-26.3-4L1955.1,2409L1983.4,2340.5z"/>
<path opacity="0.1" fill="#FFFFFF" d="M2027,2299.4c0,0-95.1,22.8-61.9,181.2c0,0-12.7,137.2,100.4,180.8c0,0,215.9,70.4,320.3-90.5
	c0,0,82.2-129.9,60-213.3C2445.7,2357.6,2310.1,2263.8,2027,2299.4z"/>
<path opacity="0.1" fill="#FFFFFF" d="M3035.5,2310.7c0,0,94.5,25,58,182.5c0,0,9.7,137.4-104.2,178.6c0,0-217.3,65.6-318.3-97.7
	c0,0-79.4-131.8-55.4-214.6C2615.7,2359.5,2753.2,2268.8,3035.5,2310.7z"/>
<path fill="#B79B6C" d="M1881.4,2310.4l9.2,68.3c0.4,3.2,2.9,5.8,6.1,6.3c8.5,1.5,24.7,7.5,29.6,32.1c1.6,7.9,3,15.8,4.9,23.5
	c10.4,41.2,39.2,154,50,173.7c0,0,22.8,71.1,171.7,73.9c2.5,0.1,5.1,0.2,7.6,0.3c22.3,1.1,159.2,3.6,232.6-95.3
	c0,0,68.4-97,86.4-163.2c0,0,14.6-27.5,44-29l0.7-64.6c0,0-111.6-17.7-146.4-29.4c-10-3.4-20-6.3-30.4-8.3
	c-61.4-12.2-249.6-40.5-430.6-5.4l85.6,52.5c0,0,46.7-46.5,209.6-37.8c0,0,111,7.5,172.9,40.2c23,12.1,37.9,34.9,39.5,60
	c1.7,26.9-1.8,69.3-27.1,120.5c0,0-47.3,106-154.3,126.9c0,0-153.2,26-221.8-32.9c0,0-33-21.1-41.6-124.5
	c-0.6-7.5-1.7-15.1-1.5-22.7c0.7-27,3.3-95.2,12.6-110.5c0,0,23.5-37.1,30.8-45.3l-66.1-25.6c0,0-27.2-9.3-69.2,8.2
	C1882.9,2303.6,1881,2307,1881.4,2310.4z"/>
<path fill="#B79B6C" d="M3179,2324.9l-10.7,68.2c-0.5,3.1-3,5.7-6.3,6.2c-8.5,1.3-24.9,7-30.3,31.4c-1.7,7.8-3.3,15.7-5.4,23.4
	c-11.2,41-42.5,153.1-53.7,172.5c0,0-24.3,70.6-173.3,70c-2.5,0-5.1,0.1-7.6,0.1c-22.3,0.6-159.3,0.1-230.5-100.5
	c0,0-66.3-98.5-82.9-165.1c0,0-14-27.8-43.4-30l0.7-64.6c0,0,111.9-15.2,147-26.1c10-3.1,20.2-5.8,30.5-7.7
	c61.6-10.8,249.9-34.7,430.2,4.5l-86.3,50.4c0,0-45.7-47.6-208.7-42.5c0,0-111.1,5-173.7,36.3c-23.2,11.6-38.7,34.1-40.7,59.1
	c-2.2,26.8,0.3,69.3,24.6,121c0,0,45,107,151.5,130.4c0,0,152.6,29.4,222.5-27.9c0,0,34.5-20.4,44.2-123.6c0.7-7.5,2-15,2-22.6
	c-0.1-27.1-1.2-95.2-10.3-110.7c0,0-22.7-37.6-29.8-46l66.6-24.2c0,0,27.4-8,69,9.8C3177.6,2318,3179.5,2321.4,3179,2324.9z"/>
<path fill="#B79B6C" d="M2438.3,2322.2c0,0,50.5,63.5,51.7,87.7c0,0,45.7-22.3,78.6,5c0,0,37.7-81.2,63-90.6c0,0-31.2,1.4-56.7,6.4
	c0,0-31.4,6.8-81.2,0.5C2493.8,2331.3,2456.4,2323.8,2438.3,2322.2z"/>
<path fill="#E5CFB3" d="M2472.6,2333.9l9.8,1.5c6.7,1,11.8,6.2,12.4,12.6c1.8,17.3,5.6,49.5,9.2,51.6l0,0
	c-5.2,1.6-10.8-0.5-13.5-5.1c-6.6-11.6-17.6-32.7-24-54.2C2465.4,2336.7,2468.7,2333.3,2472.6,2333.9z"/>
<path fill="#E5CFB3" d="M2585,2335.2l-12.6,1.7c-4,0.5-7,3.6-7.3,7.5c-1.1,14.8-4.1,49.8-8.1,52c0,0,0,0,0,0.1
	c1.7,4.7,8.4,5.1,10.9,0.8c6.2-10.9,17.1-31.9,24.3-53.9C2593.5,2338.9,2589.8,2334.6,2585,2335.2z"/>
<path fill="#7F5A2F" d="M3155.3,2365.6c-0.1,5.6-15.6,10-34.7,9.8s-34.6-4.9-34.5-10.5c0.1-5.6,15.6-10,34.7-9.8
	S3155.4,2360,3155.3,2365.6z"/>
<path fill="#ECDCCB" d="M3152.2,2365.6c-0.1,4.8-13.3,8.5-29.6,8.3c-16.3-0.2-29.5-4.2-29.4-9c0.1-4.8,13.3-8.5,29.6-8.3
	C3139.1,2356.8,3152.2,2360.8,3152.2,2365.6z"/>
<ellipse transform="matrix(0.9999 1.121870e-002 -1.121870e-002 0.9999 26.6894 -34.9487)" fill="#F1F4F9" cx="3128.5" cy="2361.5" rx="13.1" ry="1.9"/>
<path fill="#7F5A2F" d="M1980.2,2352.4c-0.1,5.6-15.6,10-34.7,9.8c-19.1-0.2-34.6-4.9-34.5-10.5c0.1-5.6,15.6-10,34.7-9.8
	C1964.8,2342.1,1980.3,2346.8,1980.2,2352.4z"/>
<path fill="#ECDCCB" d="M1977.1,2352.4c-0.1,4.8-13.3,8.5-29.6,8.3c-16.3-0.2-29.5-4.2-29.4-9c0.1-4.8,13.3-8.5,29.6-8.3
	C1963.9,2343.6,1977.1,2347.6,1977.1,2352.4z"/>
<ellipse transform="matrix(0.9999 1.121870e-002 -1.121870e-002 0.9999 26.4675 -21.7662)" fill="#F1F4F9" cx="1953.3" cy="2348.3" rx="13.1" ry="1.9"/>
<path fill="#E5CFB3" d="M2775.7,2308.2c0,0,216.5-23.2,307.7,31c4.7,2.8,10.6,3.2,15.6,0.9l29.7-14.1l0,0
	C3128.7,2326,2943,2270.3,2775.7,2308.2"/>
<path fill="#E5CFB3" d="M2278.6,2302.1c0,0-216.3-25.6-307.9,27.5c-4.8,2.8-10.6,3.1-15.6,0.7l-29.6-14.4l0,0
	C1925.5,2316,2111.6,2262.4,2278.6,2302.1"/>
<path fill="#E5CFB3" d="M3093.6,2518.2c0,0-9.3,144.1-144.6,156.8c-135.3,12.7-0.8,4.4-0.8,4.4S3084.3,2691.2,3093.6,2518.2z"/>
<path fill="#E5CFB3" d="M1967.8,2495.5c0,0-5.6,144.3,127.8,170.1c133.3,25.8,0.3,4.4,0.3,4.4S1959.2,2668.6,1967.8,2495.5z"/>
<path fill="#BEA379" d="M2669.5,2608.9c0,0-58.8,48.8-81.3,58.1c-19.5,8-1.1-0.6,0,0c0,0-27.3,14.4-53.8,2.3c-16.6-7.6,0,0,0,0
	s32.7,3.5,51.9-6.6c0,0,25.9-11.8,81.6-57.5c24.3-19.9,0,0,0,0L2669.5,2608.9"/>
<path fill="#BEA379" d="M2381.1,2608.6c0,0,58.9,50.6,81.4,59.9c19.5,8.1,1.1-0.6,0,0c0,0,36.9,17,55.6,4.8c15.1-10,0,0,0,0
	s-33.9,0.9-53.4-10c0,0-26.5-12.4-82-58.5c-24.2-20.1,0,0,0,0L2381.1,2608.6"/>
</svg>
